<svg width="291" height="232" viewBox="0 0 291 232" fill="none" xmlns="http://www.w3.org/2000/svg">
<g clip-path="url(#clip0_2658_3087)">
<path d="M37.8644 61.4307C32.6079 61.4307 28.3394 65.687 28.3394 70.9448C28.3394 76.2027 32.6006 80.459 37.8644 80.459C43.1282 80.459 47.3894 76.2027 47.3894 70.9448C47.3894 65.687 43.1282 61.4307 37.8644 61.4307ZM37.8644 76.0996C35.0187 76.0996 32.7038 73.7947 32.7038 70.9448C32.7038 68.095 35.0113 65.7901 37.8644 65.7901C40.7175 65.7901 43.025 68.095 43.025 70.9448C43.025 73.7947 40.7175 76.0996 37.8644 76.0996Z" fill="#A1C2FF"/>
<path d="M51.0091 19.0283C49.0333 19.0283 47.4409 20.6263 47.4409 22.5925C47.4409 24.5586 49.0407 26.1566 51.0091 26.1566C52.9775 26.1566 54.5773 24.5586 54.5773 22.5925C54.5773 20.6263 52.9775 19.0283 51.0091 19.0283ZM51.0091 24.5292C49.9401 24.5292 49.0776 23.6676 49.0776 22.5998C49.0776 21.5321 49.9401 20.6705 51.0091 20.6705C52.0781 20.6705 52.9407 21.5321 52.9407 22.5998C52.9407 23.6676 52.0781 24.5292 51.0091 24.5292Z" fill="#E7E8FA"/>
<path d="M118.54 12.6885H144.991" stroke="#A1C2FF" stroke-width="2" stroke-linecap="round" stroke-linejoin="round"/>
<ellipse cx="274.604" cy="42.2764" rx="0.737231" ry="0.736391" fill="#A1C2FF"/>
<path d="M274.604 45.958V73.1897C274.604 76.2531 272.12 78.7348 269.053 78.7348H262.69" stroke="#A1C2FF" stroke-width="2" stroke-linecap="round" stroke-linejoin="round"/>
<ellipse cx="260.848" cy="78.7354" rx="0.737231" ry="0.736391" fill="#A1C2FF"/>
<path d="M31.2515 90.8936V130.519" stroke="#A1C2FF" stroke-width="2" stroke-linecap="round" stroke-linejoin="round"/>
<path d="M244.753 30.9648H46.2538C42.1252 30.9648 38.7783 34.3079 38.7783 38.4318V159.789C38.7783 163.913 42.1252 167.256 46.2538 167.256H244.753C248.882 167.256 252.229 163.913 252.229 159.789V38.4318C252.229 34.3079 248.882 30.9648 244.753 30.9648Z" fill="#E7E8FA"/>
<path d="M240.61 37.7246H50.3897C48.8954 37.7246 47.6841 38.9346 47.6841 40.4272V148.758C47.6841 150.25 48.8954 151.46 50.3897 151.46H240.61C242.104 151.46 243.316 150.25 243.316 148.758V40.4272C243.316 38.9346 242.104 37.7246 240.61 37.7246Z" fill="url(#paint0_linear_2658_3087)"/>
<path d="M38.793 160.128C38.9699 164.097 42.2358 167.256 46.2464 167.256H244.746C248.764 167.256 252.022 164.09 252.199 160.128H38.793Z" fill="#A1C2FF"/>
<path d="M0 225.188H291V228.325C291 230.357 289.349 232.006 287.314 232.006H3.05214C1.36388 232.006 0 230.637 0 228.958V225.195V225.188Z" fill="#A1C2FF"/>
<path d="M247.879 167.374H43.1208C40.5036 167.374 38.056 168.663 36.5742 170.82L0.589922 223.237C-0.921402 225.431 0.656273 228.421 3.32505 228.421H287.69C290.359 228.421 291.929 225.438 290.425 223.237L254.441 170.82C252.959 168.663 250.511 167.374 247.894 167.374H247.879Z" fill="#E7E8FA"/>
<path d="M70.3762 201.513H165.73C166.762 201.513 167.728 202.051 168.273 202.927L174.201 212.537C175.144 214.069 176.818 215.004 178.624 215.004H255.679C257.014 215.004 257.825 213.546 257.132 212.412L234.543 175.791C233.467 174.046 231.564 172.985 229.515 172.985H60.2172C58.3593 172.985 56.6342 173.965 55.6832 175.563L32.8143 214.076C32.571 214.481 32.8659 214.996 33.3377 214.996H57.7032C59.5389 214.996 61.2345 214.032 62.1708 212.456L67.8033 202.964C68.3415 202.058 69.3146 201.506 70.3688 201.506L70.3762 201.513Z" fill="url(#paint1_linear_2658_3087)"/>
<path d="M171.746 212.272L166.836 204.311C166.511 203.781 165.929 203.457 165.31 203.457H70.8112C70.1772 203.457 69.5874 203.788 69.263 204.333L64.5374 212.294C63.8296 213.487 64.6922 215.004 66.0856 215.004H170.212C171.62 215.004 172.483 213.465 171.738 212.264L171.746 212.272Z" fill="url(#paint2_linear_2658_3087)"/>
<g style="mix-blend-mode:overlay" opacity="0.27">
<path d="M240.61 37.7246H106.405C111.558 89.1836 155.033 129.361 207.907 129.361C220.359 129.361 232.287 127.13 243.316 123.05V40.4345C243.316 38.9397 242.107 37.732 240.61 37.732V37.7246Z" fill="white"/>
</g>
<path d="M110.438 30.9648L113.173 37.1137C114.802 40.7736 118.436 43.1374 122.447 43.1374H168.546C172.557 43.1374 176.191 40.7809 177.82 37.1137L180.556 30.9648H110.438Z" fill="#E7E8FA"/>
<g style="mix-blend-mode:multiply">
<path d="M244.753 30.9648H187.655C187.515 31.4214 187.419 31.9001 187.419 32.4082V71.7167C187.419 74.4856 189.667 76.7242 192.432 76.7242H252.229V38.4318C252.229 34.3081 248.882 30.9648 244.753 30.9648Z" fill="#A1C2FF"/>
</g>
<g style="mix-blend-mode:multiply">
<path d="M206.366 87.0264H154.774C152.669 87.0264 150.963 88.7309 150.963 90.8335V120.702C150.963 122.804 152.669 124.509 154.774 124.509H206.366C208.471 124.509 210.177 122.804 210.177 120.702V90.8335C210.177 88.7309 208.471 87.0264 206.366 87.0264Z" fill="#A1C2FF"/>
</g>
<g style="mix-blend-mode:multiply">
<path d="M252.222 108.935H207.405C205.304 108.935 203.594 110.636 203.594 112.742V142.61C203.594 144.708 205.297 146.417 207.405 146.417H252.222V108.942V108.935Z" fill="#A1C2FF"/>
</g>
<g style="mix-blend-mode:multiply">
<path d="M133.181 31.9365H63.0039V136.106H133.181V31.9365Z" fill="#A1C2FF"/>
</g>
<path d="M136.167 20.2578H60.0254V130.267H136.167V20.2578Z" fill="#E7E8FA"/>
<path d="M134.073 127.263H62.1118V23.2627H134.073V127.271V127.263ZM62.5984 126.777H133.586V23.7487H62.5984V126.785V126.777Z" fill="#E56E6B"/>
<path d="M120.191 52.7109H74.3794V56.2824H120.191V52.7109Z" fill="#A1C2FF"/>
<path d="M120.191 77.291H74.3794V80.8625H120.191V77.291Z" fill="#A1C2FF"/>
<path d="M125.868 61.1426H68.688V64.7141H125.868V61.1426Z" fill="#A1C2FF"/>
<path d="M125.868 68.5654H68.688V72.1369H125.868V68.5654Z" fill="#A1C2FF"/>
<path d="M99.0371 48.0027C102.271 46.6726 103.813 42.9755 102.482 39.7451C101.15 36.5147 97.4488 34.9743 94.2147 36.3044C90.9806 37.6346 89.4384 41.3316 90.7701 44.562C92.1018 47.7924 95.803 49.3329 99.0371 48.0027Z" fill="url(#paint3_linear_2658_3087)"/>
<path d="M122.948 133.949L116.866 128.809L111.248 133.949V110.355H122.948V133.949Z" fill="url(#paint4_linear_2658_3087)"/>
<path d="M116.696 119.553C122.572 119.553 127.335 114.796 127.335 108.927C127.335 103.058 122.572 98.3008 116.696 98.3008C110.821 98.3008 106.058 103.058 106.058 108.927C106.058 114.796 110.821 119.553 116.696 119.553Z" fill="url(#paint5_linear_2658_3087)"/>
<path d="M116.696 115.334C120.238 115.334 123.11 112.465 123.11 108.927C123.11 105.389 120.238 102.521 116.696 102.521C113.154 102.521 110.282 105.389 110.282 108.927C110.282 112.465 113.154 115.334 116.696 115.334Z" fill="url(#paint6_linear_2658_3087)"/>
<path d="M261.348 7.59961H190.029C186.531 7.59961 183.696 10.4317 183.696 13.9252V63.5801C183.696 67.0736 186.531 69.9057 190.029 69.9057H261.348C264.846 69.9057 267.681 67.0736 267.681 63.5801V13.9252C267.681 10.4317 264.846 7.59961 261.348 7.59961Z" fill="#A1C2FF"/>
<mask id="mask0_2658_3087" style="mask-type:luminance" maskUnits="userSpaceOnUse" x="183" y="7" width="85" height="63">
<path d="M261.348 7.59961H190.029C186.531 7.59961 183.696 10.4317 183.696 13.9252V63.5801C183.696 67.0736 186.531 69.9057 190.029 69.9057H261.348C264.846 69.9057 267.681 67.0736 267.681 63.5801V13.9252C267.681 10.4317 264.846 7.59961 261.348 7.59961Z" fill="white"/>
</mask>
<g mask="url(#mask0_2658_3087)">
<path d="M221.206 22.806L211.143 14.8015L237.226 12.9531L253.246 32.8578L239.689 30.1847L221.206 22.806Z" fill="url(#paint7_linear_2658_3087)"/>
<path d="M223.698 43.4474C223.698 43.4474 226.809 51.7318 224.737 57.1738C223.956 62.3506 238.738 58.4698 241.075 51.9969C240.3 47.8511 237.447 45.0012 237.182 36.7168C236.924 28.4324 223.44 38.0129 223.698 43.4474Z" fill="url(#paint8_linear_2658_3087)"/>
<g style="mix-blend-mode:multiply" opacity="0.32">
<path d="M237.971 42.8291C237.727 41.835 237.521 40.7378 237.373 39.5007L229.131 35.6641C226.182 37.7849 223.572 41.025 223.69 43.4404C223.69 43.4404 225.128 47.2696 225.393 51.4302C233.046 49.8838 236.489 45.6201 237.963 42.8291H237.971Z" fill="#FFA26E"/>
</g>
<path d="M217.409 30.678C217.409 30.678 213.767 40.9286 217.284 45.0671C222.776 51.5326 231.328 47.9979 234.749 44.0877C238.17 40.1775 238.044 23.9621 232.309 21.3995C226.573 18.8369 219.857 20.6705 217.409 30.6707V30.678Z" fill="url(#paint9_linear_2658_3087)"/>
<path d="M233.422 39.4341C233.422 40.7375 232.36 41.7979 231.055 41.7979C229.751 41.7979 228.689 40.7375 228.689 39.4341C228.689 38.1307 229.751 37.0703 231.055 37.0703C232.36 37.0703 233.422 38.1307 233.422 39.4341Z" fill="#FE746A"/>
<path d="M236.644 39.1317C236.644 39.1317 239.453 35.1331 241.097 37.3423C242.763 39.5809 236.025 43.55 235.84 41.687C235.693 40.1406 236.644 39.1317 236.644 39.1317Z" fill="url(#paint10_linear_2658_3087)"/>
<path d="M237.315 40.5822C237.315 40.5822 238.716 38.0122 240.5 38.0122C241.001 37.563 239.549 37.7324 238.767 38.351C237.986 38.9622 236.755 40.0815 237.315 40.5822Z" fill="#FF7D5A"/>
<path d="M237.256 40.1334C237.256 40.1334 238.937 38.4912 239.792 39.0509C240.205 39.721 236.887 41.3631 237.256 40.1334Z" fill="#FF7D5A"/>
<path d="M260.781 91.3273C260.007 78.8308 259.255 65.0603 256.129 61.2384C251.197 55.2221 240.654 50.4355 240.654 50.4355C240.654 50.4355 235.28 59.3827 227.148 58.499C224.929 56.8716 225.224 55.1043 225.224 55.1043C225.224 55.1043 224.192 56.2825 222.563 57.3208C220.933 58.3517 215.913 61.0101 214.284 63.8158C214.284 63.8158 211.327 68.2488 211.327 75.4802C211.327 77.5347 211.231 83.7131 211.084 91.3273H260.781Z" fill="url(#paint11_linear_2658_3087)"/>
<path d="M213.944 63.2854C213.944 63.2854 218.191 76.2753 225.172 82.5715C225.172 82.5715 249.958 71.2163 256.94 59.4562C252.833 55.7668 240.374 49.7432 240.374 49.7432C240.374 49.7432 235.722 55.6269 228.188 56.9892C228.188 56.9892 225.998 56.1719 225.312 54.5297C225.312 54.5297 219.016 57.9466 213.944 63.2854Z" fill="url(#paint12_linear_2658_3087)"/>
<path d="M247.341 53.3369C242.925 58.2781 235.287 65.7893 226.337 70.1929C226.337 70.1929 222.607 64.2944 220.152 57.8952C218.965 58.7715 217.675 59.7877 216.377 60.9438C217.66 64.3533 220.668 71.3711 225.313 76.7615C225.313 76.7615 237.86 71.1649 251.713 55.8333C250.29 54.9791 248.779 54.1249 247.341 53.3443V53.3369Z" fill="url(#paint13_linear_2658_3087)"/>
<path d="M239.688 47.6299C239.688 47.6299 232.191 54.2942 229.006 55.3252L228.188 57.0041L232.294 61.2752C232.294 61.2752 240.204 53.9923 241.539 50.3987L239.688 47.6299Z" fill="white"/>
<path d="M225.416 53.065C225.416 53.065 225.725 54.1917 227.576 55.3183L228.195 56.9973L225.629 60.3479C225.629 60.3479 223.676 57.2698 223.469 55.6276C223.263 53.9855 223.366 55.2152 223.366 55.2152L225.423 53.0576L225.416 53.065Z" fill="white"/>
<path d="M234.764 27.313C234.764 27.313 233.805 30.4574 234.351 32.0996C234.897 33.7417 236.128 34.9715 236.128 34.9715C236.128 34.9715 235.582 39.6181 235.309 40.303L236.541 40.4429L237.226 38.3883C237.226 38.3883 238.804 35.8625 241.097 37.3353L241.886 35.244C241.886 35.244 242.158 36.2013 242.844 36.7462C243.53 37.1586 242.844 34.0142 241.546 31.8197C240.249 29.6253 234.771 27.3057 234.771 27.3057L234.764 27.313Z" fill="url(#paint14_linear_2658_3087)"/>
<path d="M219.769 24.6467C219.769 24.6467 230.857 23.7777 241.745 32.1873L243.596 25.6703C243.596 25.6703 240.101 19.514 227.163 17.6657C222.231 17.2533 222.231 17.6657 222.231 17.6657L219.769 24.6393V24.6467Z" fill="url(#paint15_linear_2658_3087)"/>
<path d="M233.99 22.6295C233.09 21.5985 232.242 20.6265 231.527 19.6839C228.792 16.0829 231.358 13.7707 231.468 13.6749C231.468 13.6749 231.962 13.3657 232.294 13.3141C232.294 13.3141 231.601 12.7029 230.945 13.0711L230.93 13.0564C230.93 13.0564 227.664 15.9578 230.871 20.1773C231.601 21.142 232.464 22.1287 233.37 23.167C236.069 26.2599 239.128 29.7651 238.73 33.0126L239.548 33.1083C239.991 29.5 236.798 25.8475 233.99 22.6295Z" fill="url(#paint16_linear_2658_3087)"/>
<path d="M238.118 35.1337C238.118 35.1337 236.931 30.9952 238.885 30.1704C240.618 29.7286 241.097 34.8833 240.898 34.876C240.699 34.8686 240.168 36.3561 238.118 35.1411V35.1337Z" fill="url(#paint17_linear_2658_3087)"/>
<path d="M227.37 33.6758C227.822 33.6758 228.188 33.3098 228.188 32.8584C228.188 32.407 227.822 32.041 227.37 32.041C226.918 32.041 226.551 32.407 226.551 32.8584C226.551 33.3098 226.918 33.6758 227.37 33.6758Z" fill="url(#paint18_linear_2658_3087)"/>
<path d="M220.182 32.2393C220.634 32.2393 221 31.8733 221 31.4219C221 30.9704 220.634 30.6045 220.182 30.6045C219.73 30.6045 219.363 30.9704 219.363 31.4219C219.363 31.8733 219.73 32.2393 220.182 32.2393Z" fill="url(#paint19_linear_2658_3087)"/>
<path d="M220.174 39.25C221.125 39.4341 222.791 39.7213 224.612 39.8538C225.224 39.898 225.608 40.5755 225.283 41.0983C224.701 42.0262 223.167 42.8215 221.405 42.2987C219.916 41.8568 219.326 40.9658 219.179 40.222C219.068 39.6477 219.592 39.1395 220.167 39.2574L220.174 39.25Z" fill="url(#paint20_linear_2658_3087)"/>
<path d="M224.605 39.846C222.784 39.7135 221.118 39.4263 220.174 39.2422C220.152 39.2422 220.123 39.2422 220.101 39.2422C220.064 39.5957 220.196 40.089 221.074 40.4425C222.371 40.9727 223.978 40.7886 224.613 39.846H224.605Z" fill="white"/>
<path d="M226.735 30.649C226.735 30.649 228.151 30.1335 229.043 31.3559C229.043 31.3559 229.419 31.4001 229.419 30.8846C229.419 30.3691 228.763 29.7064 227.768 29.5665C226.78 29.4266 226.448 30.0819 226.448 30.0819C226.448 30.0819 226.212 30.509 226.728 30.649H226.735Z" fill="url(#paint21_linear_2658_3087)"/>
<path d="M219.547 29.4117C219.547 29.4117 220.963 28.8962 221.855 30.1186C221.855 30.1186 222.231 30.1628 222.231 29.6473C222.231 29.1318 221.575 28.4691 220.58 28.3292C219.584 28.1892 219.26 28.8446 219.26 28.8446C219.26 28.8446 219.024 29.2717 219.54 29.4117H219.547Z" fill="url(#paint22_linear_2658_3087)"/>
<path d="M222.231 33.6094C222.231 33.6094 220.248 37.2324 220.52 37.5049C220.793 37.7773 222.164 37.0262 222.164 37.0262C222.164 37.0262 221.958 37.9173 222.164 37.9173C222.371 37.9173 222.916 36.2751 222.85 36.0689C222.784 35.8627 221.412 36.82 221.412 36.82L222.231 33.6094Z" fill="#FE746A"/>
</g>
<path d="M201.928 8.49784C201.397 5.38291 199.082 2.87181 196.008 2.13542C184.079 -0.714411 173.574 -0.714411 161.638 2.13542C158.564 2.87181 156.249 5.38291 155.718 8.49784C154.686 14.5583 154.686 20.7588 155.718 26.8192C156.249 29.9342 158.564 32.4453 161.638 33.1817C171.17 35.4571 179.789 35.9137 188.952 34.5514C189.483 36.2451 191.223 39.9049 196.524 41.9153L194.865 33.4394C195.241 33.351 195.624 33.2774 196 33.1817C199.075 32.4453 201.389 29.9342 201.92 26.8192C202.952 20.7588 202.952 14.5583 201.92 8.49784H201.928Z" fill="url(#paint23_linear_2658_3087)"/>
<path d="M192.956 15.3905H165.014C164.115 15.3905 163.393 14.6615 163.393 13.7705C163.393 12.8721 164.122 12.1504 165.014 12.1504H192.956C193.855 12.1504 194.577 12.8794 194.577 13.7705C194.577 14.6688 193.848 15.3905 192.956 15.3905Z" fill="white"/>
<path d="M177.85 22.5263H165.014C164.115 22.5263 163.393 21.7972 163.393 20.9062C163.393 20.0078 164.122 19.2861 165.014 19.2861H177.85C178.749 19.2861 179.472 20.0152 179.472 20.9062C179.472 21.8046 178.742 22.5263 177.85 22.5263Z" fill="white"/>
<path d="M276.72 23.1229C276.72 24.3601 275.71 25.3689 274.471 25.3689C273.233 25.3689 272.223 24.3601 272.223 23.1229C272.223 21.8858 273.233 20.877 274.471 20.877C275.71 20.877 276.72 21.8858 276.72 23.1229Z" fill="#A1C2FF"/>
<path d="M266.524 101.452H211.327C209.076 101.452 207.25 103.275 207.25 105.524V137.476C207.25 139.725 209.076 141.549 211.327 141.549H266.524C268.775 141.549 270.601 139.725 270.601 137.476V105.524C270.601 103.275 268.775 101.452 266.524 101.452Z" fill="#FF8895"/>
<mask id="mask1_2658_3087" style="mask-type:luminance" maskUnits="userSpaceOnUse" x="207" y="101" width="64" height="41">
<path d="M266.524 101.452H211.327C209.076 101.452 207.25 103.275 207.25 105.524V137.476C207.25 139.725 209.076 141.549 211.327 141.549H266.524C268.775 141.549 270.601 139.725 270.601 137.476V105.524C270.601 103.275 268.775 101.452 266.524 101.452Z" fill="white"/>
</mask>
<g mask="url(#mask1_2658_3087)">
<path d="M234.138 111.599C234.138 111.599 232.781 113.109 232.442 113.617C232.442 113.617 231.174 113.698 230.923 114.964C230.673 116.231 230.923 116.481 230.923 116.481C230.923 116.481 229.405 116.732 229.744 118.507C230.083 120.281 233.12 119.942 233.12 119.942L235.656 113.359L234.138 111.592V111.599Z" fill="#5A1D20"/>
<path d="M235.14 110.326L228.159 104.774L246.25 103.492L257.36 117.292L247.961 115.444L235.14 110.326Z" fill="url(#paint24_linear_2658_3087)"/>
<path d="M236.865 124.641C236.865 124.641 239.025 130.392 237.588 134.163C237.05 137.756 247.297 135.061 248.919 130.569C248.381 127.697 246.405 125.716 246.221 119.972C246.044 114.221 236.688 120.871 236.873 124.641H236.865Z" fill="url(#paint25_linear_2658_3087)"/>
<g style="mix-blend-mode:multiply" opacity="0.32">
<path d="M246.766 124.214C246.596 123.529 246.456 122.763 246.353 121.902L240.632 119.243C238.583 120.716 236.777 122.962 236.858 124.641C236.858 124.641 237.853 127.299 238.037 130.179C243.345 129.103 245.734 126.151 246.759 124.214H246.766Z" fill="#FFA26E"/>
</g>
<path d="M232.508 115.783C232.508 115.783 229.979 122.889 232.427 125.768C236.239 130.253 242.166 127.801 244.54 125.091C246.914 122.381 246.825 111.129 242.844 109.354C238.863 107.579 234.204 108.846 232.508 115.783Z" fill="url(#paint26_linear_2658_3087)"/>
<path d="M241.974 123.5C242.882 123.5 243.618 122.765 243.618 121.858C243.618 120.951 242.882 120.216 241.974 120.216C241.066 120.216 240.33 120.951 240.33 121.858C240.33 122.765 241.066 123.5 241.974 123.5Z" fill="#BD6356"/>
<path d="M245.845 121.645C245.845 121.645 247.791 118.869 248.934 120.4C250.091 121.954 245.417 124.708 245.292 123.412C245.189 122.337 245.845 121.638 245.845 121.638V121.645Z" fill="url(#paint27_linear_2658_3087)"/>
<path d="M246.309 122.653C246.309 122.653 247.282 120.871 248.521 120.871C248.867 120.562 247.865 120.68 247.319 121.107C246.774 121.534 245.926 122.307 246.309 122.653Z" fill="#5A1D20"/>
<path d="M246.272 122.345C246.272 122.345 247.437 121.211 248.034 121.594C248.322 122.058 246.014 123.192 246.272 122.345Z" fill="#5A1D20"/>
<path d="M262.587 157.853C262.049 149.186 261.533 139.635 259.358 136.984C255.937 132.808 248.624 129.487 248.624 129.487C248.624 129.487 244.894 135.695 239.254 135.077C237.713 133.95 237.919 132.72 237.919 132.72C237.919 132.72 237.204 133.537 236.076 134.259C234.948 134.981 231.461 136.822 230.333 138.766C230.333 138.766 228.284 141.837 228.284 146.859C228.284 148.287 228.217 152.566 228.114 157.853H262.587Z" fill="url(#paint28_linear_2658_3087)"/>
<path d="M230.105 138.404C230.105 138.404 233.046 147.418 237.89 151.777C237.89 151.777 255.082 143.905 259.926 135.746C257.08 133.183 248.432 129.008 248.432 129.008C248.432 129.008 245.203 133.087 239.976 134.037C239.976 134.037 238.457 133.47 237.978 132.329C237.978 132.329 233.606 134.7 230.097 138.397L230.105 138.404Z" fill="url(#paint29_linear_2658_3087)"/>
<path d="M253.269 131.505C250.209 134.929 244.908 140.143 238.701 143.199C238.701 143.199 236.113 139.104 234.41 134.664C233.584 135.268 232.692 135.982 231.793 136.777C232.685 139.141 234.771 144.009 237.993 147.75C237.993 147.75 246.7 143.869 256.306 133.235C255.318 132.639 254.271 132.05 253.276 131.505H253.269Z" fill="url(#paint30_linear_2658_3087)"/>
<path d="M247.961 127.543C247.961 127.543 242.763 132.168 240.552 132.882L239.984 134.045L242.83 137.013C242.83 137.013 248.315 131.961 249.244 129.472L247.961 127.55V127.543Z" fill="white"/>
<path d="M238.06 131.312C238.06 131.312 238.273 132.093 239.556 132.881L239.984 134.045L238.2 136.372C238.2 136.372 236.843 134.236 236.703 133.102C236.563 131.961 236.629 132.815 236.629 132.815L238.052 131.32L238.06 131.312Z" fill="white"/>
<path d="M234.137 111.6C234.137 111.6 241.827 110.996 249.383 116.828L250.666 112.307C250.666 112.307 248.24 108.036 239.268 106.755C235.848 106.467 235.848 106.755 235.848 106.755L234.137 111.593V111.6Z" fill="url(#paint31_linear_2658_3087)"/>
<path d="M239.983 117.292C239.983 117.608 239.725 117.859 239.416 117.859C239.106 117.859 238.848 117.601 238.848 117.292C238.848 116.982 239.106 116.725 239.416 116.725C239.725 116.725 239.983 116.982 239.983 117.292Z" fill="#5A1D20"/>
<path d="M234.993 116.297C234.993 116.614 234.735 116.865 234.425 116.865C234.115 116.865 233.857 116.607 233.857 116.297C233.857 115.988 234.115 115.73 234.425 115.73C234.735 115.73 234.993 115.988 234.993 116.297Z" fill="#5A1D20"/>
<path d="M234.425 121.732C235.081 121.858 236.239 122.056 237.507 122.152C237.927 122.182 238.2 122.653 237.971 123.014C237.566 123.654 236.504 124.207 235.28 123.846C234.248 123.537 233.835 122.925 233.739 122.402C233.658 122.005 234.027 121.651 234.425 121.732Z" fill="#5A1D20"/>
<path d="M237.499 122.144C236.239 122.049 235.081 121.857 234.425 121.725C234.41 121.725 234.388 121.725 234.373 121.725C234.344 121.968 234.44 122.314 235.044 122.557C235.944 122.925 237.057 122.8 237.499 122.144Z" fill="white"/>
<path d="M238.974 115.76C238.974 115.76 239.954 115.4 240.573 116.246C240.573 116.246 240.831 116.276 240.831 115.922C240.831 115.569 240.374 115.105 239.689 115.009C239.003 114.914 238.775 115.37 238.775 115.37C238.775 115.37 238.612 115.665 238.974 115.76Z" fill="#5A1D20"/>
<path d="M233.99 114.906C233.99 114.906 234.97 114.545 235.59 115.392C235.59 115.392 235.848 115.421 235.848 115.068C235.848 114.714 235.39 114.251 234.705 114.155C234.019 114.059 233.791 114.516 233.791 114.516C233.791 114.516 233.629 114.81 233.99 114.906Z" fill="#5A1D20"/>
<path d="M235.848 117.814C235.848 117.814 234.469 120.326 234.661 120.517C234.853 120.708 235.804 120.186 235.804 120.186C235.804 120.186 235.664 120.804 235.804 120.804C235.944 120.804 236.327 119.663 236.275 119.523C236.231 119.383 235.28 120.046 235.28 120.046L235.848 117.814Z" fill="#924843"/>
<path d="M244.023 113.455C244.023 113.455 245.203 114.471 244.783 115.23C244.363 115.988 244.193 116.835 244.783 117.505C245.373 118.183 244.363 118.772 244.613 119.781C244.864 120.797 245.461 120.959 245.461 120.959L245.844 121.644C245.844 121.644 247.319 119.273 248.587 120.2C248.587 120.2 249.435 120.539 248.757 121.975C248.757 121.975 247.739 123.072 247.149 123.242L246.641 123.581L247.061 124.928C247.061 124.928 249.509 126.784 251.035 125.179C252.553 123.573 251.204 122.645 251.204 122.645C251.204 122.645 252.723 122.226 252.811 120.79C252.892 119.354 251.794 118.676 251.794 118.676C251.794 118.676 252.045 118.256 251.455 117.41C250.865 116.563 249.376 116.82 249.376 116.82C249.376 116.82 247.223 114.707 244.016 113.44L244.023 113.455Z" fill="#5A1D20"/>
<path d="M244.009 110.2C243.382 109.486 242.8 108.809 242.299 108.161C240.404 105.664 242.181 104.059 242.262 103.993C242.262 103.993 242.601 103.779 242.837 103.742C242.837 103.742 242.358 103.315 241.901 103.573H241.893C241.893 103.573 239.63 105.576 241.849 108.507C242.358 109.177 242.955 109.854 243.581 110.583C245.454 112.726 247.577 115.156 247.297 117.41L247.865 117.476C248.167 114.972 245.963 112.439 244.009 110.208V110.2Z" fill="url(#paint32_linear_2658_3087)"/>
<path d="M246.869 118.875C246.869 118.875 246.044 116.003 247.4 115.429C248.602 115.12 248.934 118.699 248.801 118.691C248.661 118.691 248.292 119.715 246.869 118.875Z" fill="url(#paint33_linear_2658_3087)"/>
</g>
<path d="M257.803 92.4759C258.164 90.3624 259.742 88.6466 261.828 88.1459C269.945 86.2092 277.089 86.2092 285.206 88.1459C287.299 88.6466 288.87 90.3551 289.231 92.4759C289.931 96.5997 289.931 100.819 289.231 104.943C288.87 107.056 287.292 108.772 285.206 109.273C278.725 110.819 272.857 111.129 266.627 110.201C266.266 111.357 265.086 113.846 261.474 115.208L262.602 109.442C262.344 109.383 262.086 109.332 261.828 109.266C259.734 108.765 258.164 107.056 257.803 104.936C257.102 100.812 257.102 96.5923 257.803 92.4685V92.4759Z" fill="url(#paint34_linear_2658_3087)"/>
<path d="M274.56 92.1154L275.43 94.7811C275.577 95.2303 275.99 95.5322 276.462 95.5322H279.271C280.318 95.5322 280.76 96.8725 279.905 97.491L277.634 99.1406C277.251 99.413 277.096 99.9064 277.243 100.348L278.113 103.014C278.438 104.015 277.295 104.84 276.447 104.222L274.177 102.572C273.793 102.3 273.285 102.3 272.901 102.572L270.631 104.222C269.783 104.84 268.64 104.008 268.964 103.014L269.834 100.348C269.982 99.899 269.82 99.413 269.444 99.1406L267.173 97.491C266.325 96.8725 266.76 95.5322 267.807 95.5322H270.616C271.088 95.5322 271.5 95.2303 271.648 94.7811L272.518 92.1154C272.842 91.1139 274.258 91.1139 274.582 92.1154H274.56Z" fill="url(#paint35_linear_2658_3087)"/>
<path d="M277.907 143.728C277.907 144.966 276.897 145.974 275.658 145.974C274.42 145.974 273.41 144.966 273.41 143.728C273.41 142.491 274.42 141.482 275.658 141.482C276.897 141.482 277.907 142.491 277.907 143.728Z" fill="#FF8895"/>
<path d="M209.868 75.2373H151.272C148.882 75.2373 146.945 77.1726 146.945 79.5599V113.478C146.945 115.865 148.882 117.801 151.272 117.801H209.868C212.258 117.801 214.195 115.865 214.195 113.478V79.5599C214.195 77.1726 212.258 75.2373 209.868 75.2373Z" fill="#A4E3C2"/>
<mask id="mask2_2658_3087" style="mask-type:luminance" maskUnits="userSpaceOnUse" x="146" y="75" width="69" height="43">
<path d="M209.868 75.2373H151.272C148.882 75.2373 146.945 77.1726 146.945 79.5599V113.478C146.945 115.865 148.882 117.801 151.272 117.801H209.868C212.258 117.801 214.195 115.865 214.195 113.478V79.5599C214.195 77.1726 212.258 75.2373 209.868 75.2373Z" fill="white"/>
</mask>
<g mask="url(#mask2_2658_3087)">
<path d="M184.065 86.8803C184.065 86.8803 190.987 92.2412 189.476 98.9792C187.965 105.717 184.706 103.854 182.966 106.873C181.219 109.893 179.015 113.03 174.134 112.912C169.254 112.794 166.577 108.265 168.325 100.253C170.072 92.2412 176.11 88.2942 176.11 88.2942C176.11 88.2942 179.472 85.2308 184.072 86.8803H184.065Z" fill="url(#paint36_linear_2658_3087)"/>
<path d="M179.59 103.331C179.59 103.331 178.808 105.157 179.678 106.637C179.678 106.637 175.579 107.86 172.269 104.111C172.269 104.111 172.969 101.063 172.269 98.1025L179.59 103.331Z" fill="url(#paint37_linear_2658_3087)"/>
<path d="M183.032 85.5619L190.235 79.8328L171.568 78.5146L160.104 92.7564L169.806 90.8418L183.032 85.5619Z" fill="url(#paint38_linear_2658_3087)"/>
<path d="M185.746 91.1954C185.746 91.1954 188.355 98.5299 185.834 101.498C181.905 106.122 175.786 103.589 173.338 100.798C170.89 98.007 170.979 86.3941 175.085 84.5605C179.192 82.7269 183.998 84.0377 185.746 91.1954Z" fill="url(#paint39_linear_2658_3087)"/>
<path d="M174.289 97.4623C174.289 98.3975 175.048 99.1559 175.985 99.1559C176.921 99.1559 177.68 98.3975 177.68 97.4623C177.68 96.527 176.921 95.7686 175.985 95.7686C175.048 95.7686 174.289 96.527 174.289 97.4623Z" fill="#FE746A"/>
<path d="M171.989 97.2408C171.989 97.2408 169.984 94.3763 168.804 95.9595C167.61 97.5648 172.439 100.4 172.564 99.0671C172.674 97.9551 171.989 97.2408 171.989 97.2408Z" fill="url(#paint40_linear_2658_3087)"/>
<path d="M171.51 98.2796C171.51 98.2796 170.507 96.4386 169.232 96.4386C168.871 96.122 169.91 96.2398 170.47 96.6816C171.031 97.1234 171.908 97.9188 171.51 98.2796Z" fill="#FF7D5A"/>
<path d="M171.547 97.9621C171.547 97.9621 170.345 96.7912 169.733 97.1888C169.438 97.6675 171.812 98.8384 171.547 97.9621Z" fill="#FF7D5A"/>
<path d="M155.239 133.464C155.792 124.525 156.33 114.664 158.571 111.932C162.102 107.624 169.644 104.2 169.644 104.2C169.644 104.2 173.493 110.607 179.309 109.973C180.894 108.81 180.688 107.543 180.688 107.543C180.688 107.543 181.425 108.39 182.59 109.127C183.755 109.863 187.353 111.77 188.517 113.773C188.517 113.773 190.633 116.947 190.633 122.124C190.633 123.597 190.7 128.015 190.81 133.464H155.246H155.239Z" fill="url(#paint41_linear_2658_3087)"/>
<path d="M188.753 113.397C188.753 113.397 185.716 122.698 180.718 127.197C180.718 127.197 162.98 119.075 157.981 110.658C160.923 108.014 169.836 103.706 169.836 103.706C169.836 103.706 173.168 107.918 178.558 108.89C178.558 108.89 180.128 108.301 180.614 107.13C180.614 107.13 185.119 109.575 188.746 113.397H188.753Z" fill="url(#paint42_linear_2658_3087)"/>
<path d="M164.852 106.276C168.015 109.811 173.478 115.187 179.885 118.338C179.885 118.338 182.553 114.112 184.315 109.539C185.163 110.165 186.092 110.894 187.014 111.718C186.092 114.156 183.947 119.178 180.622 123.037C180.622 123.037 171.642 119.031 161.727 108.058C162.744 107.447 163.828 106.836 164.86 106.276H164.852Z" fill="url(#paint43_linear_2658_3087)"/>
<path d="M178.624 93.3452C178.95 93.3452 179.214 93.0815 179.214 92.7561C179.214 92.4307 178.95 92.167 178.624 92.167C178.298 92.167 178.034 92.4307 178.034 92.7561C178.034 93.0815 178.298 93.3452 178.624 93.3452Z" fill="url(#paint44_linear_2658_3087)"/>
<path d="M183.18 91.7249C183.18 92.0489 183.445 92.314 183.769 92.314C184.094 92.314 184.359 92.0489 184.359 91.7249C184.359 91.4008 184.094 91.1357 183.769 91.1357C183.445 91.1357 183.18 91.4008 183.18 91.7249Z" fill="url(#paint45_linear_2658_3087)"/>
<path d="M183.77 97.3288C183.092 97.4614 181.897 97.6676 180.592 97.7559C180.157 97.7854 179.877 98.2714 180.113 98.647C180.533 99.3097 181.624 99.8841 182.885 99.5086C183.954 99.1919 184.374 98.5586 184.478 98.0211C184.559 97.6087 184.183 97.2478 183.77 97.3288Z" fill="url(#paint46_linear_2658_3087)"/>
<path d="M180.6 97.7562C181.905 97.6605 183.091 97.4543 183.77 97.3291C183.784 97.3291 183.807 97.3291 183.821 97.3291C183.851 97.5795 183.755 97.9329 183.128 98.1907C182.199 98.5736 181.049 98.441 180.6 97.7636V97.7562Z" fill="white"/>
<path d="M179.074 91.1727C179.074 91.1727 178.064 90.8045 177.422 91.6808C177.422 91.6808 177.149 91.7177 177.149 91.3421C177.149 90.9665 177.621 90.5026 178.329 90.3995C179.037 90.2964 179.273 90.7677 179.273 90.7677C179.273 90.7677 179.442 91.0696 179.074 91.1727Z" fill="url(#paint47_linear_2658_3087)"/>
<path d="M184.219 90.2889C184.219 90.2889 183.209 89.9207 182.568 90.797C182.568 90.797 182.295 90.8339 182.295 90.4583C182.295 90.0827 182.767 89.6188 183.474 89.5157C184.182 89.4126 184.418 89.8839 184.418 89.8839C184.418 89.8839 184.588 90.1858 184.219 90.2889Z" fill="url(#paint48_linear_2658_3087)"/>
<path d="M182.302 93.2939C182.302 93.2939 183.725 95.886 183.526 96.0849C183.327 96.2837 182.354 95.7388 182.354 95.7388C182.354 95.7388 182.501 96.3721 182.354 96.3721C182.207 96.3721 181.816 95.1938 181.867 95.0539C181.919 94.9066 182.9 95.5915 182.9 95.5915L182.31 93.2939H182.302Z" fill="#FE746A"/>
<path d="M179.331 105.334C179.331 105.334 174.974 106.232 172.446 102.572L169.482 103.588C169.15 103.883 170.146 111.195 173.581 111.512C176.987 111.829 178.262 109.362 178.262 109.362C178.262 109.362 181.167 111.858 182.126 110.466C183.084 109.075 181.779 107.506 181.779 107.506L179.339 105.326L179.331 105.334Z" fill="white"/>
<path d="M179.066 86.8721C179.066 86.8721 176.449 87.6526 175.49 90.878C174.532 94.1034 177.319 95.9297 175.144 98.6322C172.969 101.335 172.092 101.416 171.834 104.641C171.576 107.867 169.651 110.562 165.818 110.392C161.984 110.223 157.974 105.517 159.714 101.246C161.461 96.9827 164.425 96.7176 166.341 94.8914C168.258 93.0651 168.524 91.4082 168.524 91.4082C168.524 91.4082 170.352 87.66 179.073 86.8794L179.066 86.8721Z" fill="url(#paint49_linear_2658_3087)"/>
<path d="M184.064 86.8795C184.064 86.8795 176.124 86.2536 168.339 92.2773L167.02 87.6159C167.02 87.6159 169.519 83.2123 178.778 81.8868C182.31 81.5922 182.31 81.8868 182.31 81.8868L184.072 86.8795H184.064Z" fill="url(#paint50_linear_2658_3087)"/>
<path d="M173.883 85.4365C174.525 84.7001 175.137 84.0006 175.645 83.3304C177.599 80.7531 175.763 79.1036 175.689 79.0299C175.689 79.0299 175.336 78.809 175.1 78.7722C175.1 78.7722 175.594 78.3303 176.065 78.5954H176.073C176.073 78.5954 178.41 80.6573 176.117 83.6839C175.594 84.3761 174.982 85.0757 174.326 85.8194C172.394 88.0286 170.204 90.5397 170.492 92.8667L169.91 92.9403C169.593 90.3556 171.878 87.7414 173.883 85.4365Z" fill="url(#paint51_linear_2658_3087)"/>
<path d="M170.927 94.3837C170.927 94.3837 171.775 91.4234 170.381 90.8269C169.143 90.5102 168.796 94.1996 168.936 94.1922C169.076 94.1922 169.46 95.2526 170.927 94.3763V94.3837Z" fill="url(#paint52_linear_2658_3087)"/>
</g>
<path d="M194.931 78.3597C195.292 76.2462 196.87 74.5304 198.956 74.0297C207.073 72.093 214.217 72.093 222.334 74.0297C224.428 74.5304 225.998 76.2389 226.359 78.3597C227.06 82.4835 227.06 86.703 226.359 90.8268C225.998 92.9402 224.42 94.656 222.334 95.1567C215.854 96.7032 209.985 97.0124 203.756 96.0846C203.394 97.2407 202.215 99.7297 198.602 101.092L199.73 95.3261C199.472 95.2672 199.214 95.2157 198.956 95.1494C196.863 94.6486 195.292 92.9402 194.931 90.8194C194.231 86.6956 194.231 82.4761 194.931 78.3523V78.3597Z" fill="url(#paint53_linear_2658_3087)"/>
<path d="M213.812 79.2949C213.089 79.2949 212.418 79.5232 211.836 79.9798C211.276 80.4142 210.9 80.9665 210.678 81.3715C210.457 80.9665 210.081 80.4142 209.521 79.9798C208.931 79.5232 208.268 79.2949 207.545 79.2949C205.518 79.2949 203.992 80.9518 203.992 83.1462C203.992 85.5174 205.894 87.1375 208.784 89.5897C209.27 90.0094 209.831 90.4807 210.406 90.9815C210.479 91.0477 210.583 91.0845 210.678 91.0845C210.774 91.0845 210.877 91.0477 210.951 90.9815C211.526 90.4807 212.086 90.0021 212.573 89.5897C215.456 87.1375 217.365 85.5101 217.365 83.1462C217.365 80.9518 215.839 79.2949 213.812 79.2949Z" fill="white"/>
<path d="M152.924 68.3007C152.924 69.5378 151.914 70.5467 150.675 70.5467C149.437 70.5467 148.427 69.5378 148.427 68.3007C148.427 67.0635 149.437 66.0547 150.675 66.0547C151.914 66.0547 152.924 67.0635 152.924 68.3007Z" fill="#A4E3C2"/>
</g>
<defs>
<linearGradient id="paint0_linear_2658_3087" x1="47.6841" y1="94.5961" x2="243.316" y2="94.5961" gradientUnits="userSpaceOnUse">
<stop stop-color="#6060E7"/>
<stop offset="1" stop-color="#8182EE"/>
</linearGradient>
<linearGradient id="paint1_linear_2658_3087" x1="-19.6176" y1="335.396" x2="253.04" y2="117.018" gradientUnits="userSpaceOnUse">
<stop stop-color="#434A5B"/>
<stop offset="1" stop-color="#6164A1"/>
</linearGradient>
<linearGradient id="paint2_linear_2658_3087" x1="-26.5402" y1="326.744" x2="246.118" y2="108.373" gradientUnits="userSpaceOnUse">
<stop stop-color="#434A5B"/>
<stop offset="1" stop-color="#6164A1"/>
</linearGradient>
<linearGradient id="paint3_linear_2658_3087" x1="88.0451" y1="21.2344" x2="107.176" y2="67.9811" gradientUnits="userSpaceOnUse">
<stop stop-color="#FF8D02"/>
<stop offset="1" stop-color="#FFC757"/>
</linearGradient>
<linearGradient id="paint4_linear_2658_3087" x1="113.357" y1="99.7367" x2="119.844" y2="138.679" gradientUnits="userSpaceOnUse">
<stop stop-color="#FF8D02"/>
<stop offset="1" stop-color="#FFC757"/>
</linearGradient>
<linearGradient id="paint5_linear_2658_3087" x1="102.276" y1="73.7863" x2="134.408" y2="152.289" gradientUnits="userSpaceOnUse">
<stop stop-color="#FF3843"/>
<stop offset="1" stop-color="#FF8457"/>
</linearGradient>
<linearGradient id="paint6_linear_2658_3087" x1="118.996" y1="115.842" x2="113.162" y2="98.3117" gradientUnits="userSpaceOnUse">
<stop stop-color="#FF8D02"/>
<stop offset="1" stop-color="#FFC757"/>
</linearGradient>
<linearGradient id="paint7_linear_2658_3087" x1="220.454" y1="38.7342" x2="237.085" y2="17.5739" gradientUnits="userSpaceOnUse">
<stop stop-color="#434A5B"/>
<stop offset="1" stop-color="#6164A1"/>
</linearGradient>
<linearGradient id="paint8_linear_2658_3087" x1="236.15" y1="56.4006" x2="229.423" y2="43.9639" gradientUnits="userSpaceOnUse">
<stop stop-color="#FFB58E"/>
<stop offset="0.33" stop-color="#FEB38A"/>
<stop offset="0.59" stop-color="#FCAC80"/>
<stop offset="0.83" stop-color="#F8A270"/>
<stop offset="1" stop-color="#F5985F"/>
</linearGradient>
<linearGradient id="paint9_linear_2658_3087" x1="224.118" y1="24.4702" x2="228.694" y2="48.0441" gradientUnits="userSpaceOnUse">
<stop stop-color="#FFB58E"/>
<stop offset="0.33" stop-color="#FEB38A"/>
<stop offset="0.59" stop-color="#FCAC80"/>
<stop offset="0.83" stop-color="#F8A270"/>
<stop offset="1" stop-color="#F5985F"/>
</linearGradient>
<linearGradient id="paint10_linear_2658_3087" x1="235.811" y1="25.5085" x2="239.364" y2="43.8093" gradientUnits="userSpaceOnUse">
<stop stop-color="#FFB58E"/>
<stop offset="0.33" stop-color="#FEB38A"/>
<stop offset="0.59" stop-color="#FCAC80"/>
<stop offset="0.83" stop-color="#F8A270"/>
<stop offset="1" stop-color="#F5985F"/>
</linearGradient>
<linearGradient id="paint11_linear_2658_3087" x1="274.515" y1="128.228" x2="226.501" y2="67.1279" gradientUnits="userSpaceOnUse">
<stop stop-color="#434A5B"/>
<stop offset="1" stop-color="#6164A1"/>
</linearGradient>
<linearGradient id="paint12_linear_2658_3087" x1="213.944" y1="66.1573" x2="256.94" y2="66.1573" gradientUnits="userSpaceOnUse">
<stop stop-color="#FF8D02"/>
<stop offset="1" stop-color="#FFC757"/>
</linearGradient>
<linearGradient id="paint13_linear_2658_3087" x1="216.377" y1="65.0455" x2="251.713" y2="65.0455" gradientUnits="userSpaceOnUse">
<stop stop-color="#9A2802"/>
<stop offset="1" stop-color="#FF5057"/>
</linearGradient>
<linearGradient id="paint14_linear_2658_3087" x1="236.12" y1="25.1701" x2="241.042" y2="45.8947" gradientUnits="userSpaceOnUse">
<stop stop-color="#B62C01"/>
<stop offset="1" stop-color="#7C0C0A"/>
</linearGradient>
<linearGradient id="paint15_linear_2658_3087" x1="231.874" y1="23.8514" x2="229.417" y2="40.4652" gradientUnits="userSpaceOnUse">
<stop stop-color="#434A5B"/>
<stop offset="1" stop-color="#6164A1"/>
</linearGradient>
<linearGradient id="paint16_linear_2658_3087" x1="236.135" y1="13.6381" x2="233.384" y2="32.2182" gradientUnits="userSpaceOnUse">
<stop stop-color="#434A5B"/>
<stop offset="1" stop-color="#6164A1"/>
</linearGradient>
<linearGradient id="paint17_linear_2658_3087" x1="237.744" y1="32.7806" x2="241.014" y2="32.9367" gradientUnits="userSpaceOnUse">
<stop stop-color="#FF8D02"/>
<stop offset="1" stop-color="#FFC757"/>
</linearGradient>
<linearGradient id="paint18_linear_2658_3087" x1="229.987" y1="23.4547" x2="226.161" y2="37.2054" gradientUnits="userSpaceOnUse">
<stop stop-color="#434A5B"/>
<stop offset="1" stop-color="#6164A1"/>
</linearGradient>
<linearGradient id="paint19_linear_2658_3087" x1="222.946" y1="21.4953" x2="219.121" y2="35.246" gradientUnits="userSpaceOnUse">
<stop stop-color="#434A5B"/>
<stop offset="1" stop-color="#6164A1"/>
</linearGradient>
<linearGradient id="paint20_linear_2658_3087" x1="223.956" y1="45.5388" x2="220.572" y2="35.0724" gradientUnits="userSpaceOnUse">
<stop stop-color="#9A2802"/>
<stop offset="1" stop-color="#FF5057"/>
</linearGradient>
<linearGradient id="paint21_linear_2658_3087" x1="227.841" y1="27.4751" x2="227.981" y2="33.5945" gradientUnits="userSpaceOnUse">
<stop stop-color="#434A5B"/>
<stop offset="1" stop-color="#6164A1"/>
</linearGradient>
<linearGradient id="paint22_linear_2658_3087" x1="220.646" y1="26.2452" x2="220.793" y2="32.3646" gradientUnits="userSpaceOnUse">
<stop stop-color="#434A5B"/>
<stop offset="1" stop-color="#6164A1"/>
</linearGradient>
<linearGradient id="paint23_linear_2658_3087" x1="191.393" y1="52.453" x2="171.211" y2="-3.54213" gradientUnits="userSpaceOnUse">
<stop stop-color="#FF8D02"/>
<stop offset="1" stop-color="#FFC757"/>
</linearGradient>
<linearGradient id="paint24_linear_2658_3087" x1="234.617" y1="121.372" x2="246.153" y2="106.697" gradientUnits="userSpaceOnUse">
<stop stop-color="#434A5B"/>
<stop offset="1" stop-color="#6164A1"/>
</linearGradient>
<linearGradient id="paint25_linear_2658_3087" x1="245.506" y1="133.625" x2="240.84" y2="124.998" gradientUnits="userSpaceOnUse">
<stop stop-color="#B6614A"/>
<stop offset="0.32" stop-color="#B25F46"/>
<stop offset="0.57" stop-color="#A8583D"/>
<stop offset="0.8" stop-color="#984E2D"/>
<stop offset="1" stop-color="#834119"/>
</linearGradient>
<linearGradient id="paint26_linear_2658_3087" x1="237.16" y1="111.475" x2="240.331" y2="127.832" gradientUnits="userSpaceOnUse">
<stop stop-color="#B6614A"/>
<stop offset="0.32" stop-color="#B25F46"/>
<stop offset="0.57" stop-color="#A8583D"/>
<stop offset="0.8" stop-color="#984E2D"/>
<stop offset="1" stop-color="#834119"/>
</linearGradient>
<linearGradient id="paint27_linear_2658_3087" x1="245.27" y1="112.197" x2="247.734" y2="124.893" gradientUnits="userSpaceOnUse">
<stop stop-color="#B6614A"/>
<stop offset="0.32" stop-color="#B25F46"/>
<stop offset="0.57" stop-color="#A8583D"/>
<stop offset="0.8" stop-color="#984E2D"/>
<stop offset="1" stop-color="#834119"/>
</linearGradient>
<linearGradient id="paint28_linear_2658_3087" x1="272.112" y1="183.443" x2="238.814" y2="141.071" gradientUnits="userSpaceOnUse">
<stop stop-color="#434A5B"/>
<stop offset="1" stop-color="#6164A1"/>
</linearGradient>
<linearGradient id="paint29_linear_2658_3087" x1="230.105" y1="140.392" x2="259.926" y2="140.392" gradientUnits="userSpaceOnUse">
<stop stop-color="#FF8D02"/>
<stop offset="1" stop-color="#FFC757"/>
</linearGradient>
<linearGradient id="paint30_linear_2658_3087" x1="231.793" y1="139.627" x2="256.299" y2="139.627" gradientUnits="userSpaceOnUse">
<stop stop-color="#9A2802"/>
<stop offset="1" stop-color="#FF5057"/>
</linearGradient>
<linearGradient id="paint31_linear_2658_3087" x1="242.542" y1="111.048" x2="240.835" y2="122.573" gradientUnits="userSpaceOnUse">
<stop stop-color="#434A5B"/>
<stop offset="1" stop-color="#6164A1"/>
</linearGradient>
<linearGradient id="paint32_linear_2658_3087" x1="245.491" y1="103.971" x2="243.586" y2="116.851" gradientUnits="userSpaceOnUse">
<stop stop-color="#434A5B"/>
<stop offset="1" stop-color="#6164A1"/>
</linearGradient>
<linearGradient id="paint33_linear_2658_3087" x1="246.614" y1="117.232" x2="248.882" y2="117.34" gradientUnits="userSpaceOnUse">
<stop stop-color="#FF8D02"/>
<stop offset="1" stop-color="#FFC757"/>
</linearGradient>
<linearGradient id="paint34_linear_2658_3087" x1="264.969" y1="122.381" x2="278.698" y2="84.2846" gradientUnits="userSpaceOnUse">
<stop stop-color="#6060E7"/>
<stop offset="1" stop-color="#8182EE"/>
</linearGradient>
<linearGradient id="paint35_linear_2658_3087" x1="266.708" y1="97.9034" x2="280.355" y2="97.9034" gradientUnits="userSpaceOnUse">
<stop stop-color="#FF8D02"/>
<stop offset="1" stop-color="#FFC757"/>
</linearGradient>
<linearGradient id="paint36_linear_2658_3087" x1="182.915" y1="82.7123" x2="172.527" y2="126.459" gradientUnits="userSpaceOnUse">
<stop stop-color="#C56B01"/>
<stop offset="1" stop-color="#B32C0A"/>
</linearGradient>
<linearGradient id="paint37_linear_2658_3087" x1="179.678" y1="102.469" x2="172.269" y2="102.469" gradientUnits="userSpaceOnUse">
<stop stop-color="#FFB58E"/>
<stop offset="0.33" stop-color="#FEB38A"/>
<stop offset="0.59" stop-color="#FCAC80"/>
<stop offset="0.83" stop-color="#F8A270"/>
<stop offset="1" stop-color="#F5985F"/>
</linearGradient>
<linearGradient id="paint38_linear_2658_3087" x1="183.571" y1="96.9612" x2="171.674" y2="81.8152" gradientUnits="userSpaceOnUse">
<stop stop-color="#434A5B"/>
<stop offset="1" stop-color="#6164A1"/>
</linearGradient>
<linearGradient id="paint39_linear_2658_3087" x1="180.954" y1="86.755" x2="177.673" y2="103.627" gradientUnits="userSpaceOnUse">
<stop stop-color="#FFB58E"/>
<stop offset="0.33" stop-color="#FEB38A"/>
<stop offset="0.59" stop-color="#FCAC80"/>
<stop offset="0.83" stop-color="#F8A270"/>
<stop offset="1" stop-color="#F5985F"/>
</linearGradient>
<linearGradient id="paint40_linear_2658_3087" x1="172.579" y1="87.4984" x2="170.041" y2="100.592" gradientUnits="userSpaceOnUse">
<stop stop-color="#FFB58E"/>
<stop offset="0.33" stop-color="#FEB38A"/>
<stop offset="0.59" stop-color="#FCAC80"/>
<stop offset="0.83" stop-color="#F8A270"/>
<stop offset="1" stop-color="#F5985F"/>
</linearGradient>
<linearGradient id="paint41_linear_2658_3087" x1="145.404" y1="159.871" x2="179.77" y2="116.151" gradientUnits="userSpaceOnUse">
<stop stop-color="#434A5B"/>
<stop offset="1" stop-color="#6164A1"/>
</linearGradient>
<linearGradient id="paint42_linear_2658_3087" x1="188.753" y1="115.451" x2="157.981" y2="115.451" gradientUnits="userSpaceOnUse">
<stop stop-color="#FF8D02"/>
<stop offset="1" stop-color="#FFC757"/>
</linearGradient>
<linearGradient id="paint43_linear_2658_3087" x1="187.014" y1="114.664" x2="161.727" y2="114.664" gradientUnits="userSpaceOnUse">
<stop stop-color="#9A2802"/>
<stop offset="1" stop-color="#FF5057"/>
</linearGradient>
<linearGradient id="paint44_linear_2658_3087" x1="176.751" y1="86.0255" x2="179.488" y2="95.8653" gradientUnits="userSpaceOnUse">
<stop stop-color="#434A5B"/>
<stop offset="1" stop-color="#6164A1"/>
</linearGradient>
<linearGradient id="paint45_linear_2658_3087" x1="181.786" y1="84.6261" x2="184.523" y2="94.4585" gradientUnits="userSpaceOnUse">
<stop stop-color="#434A5B"/>
<stop offset="1" stop-color="#6164A1"/>
</linearGradient>
<linearGradient id="paint46_linear_2658_3087" x1="181.064" y1="101.828" x2="183.485" y2="94.3375" gradientUnits="userSpaceOnUse">
<stop stop-color="#9A2802"/>
<stop offset="1" stop-color="#FF5057"/>
</linearGradient>
<linearGradient id="paint47_linear_2658_3087" x1="178.285" y1="88.9046" x2="178.189" y2="93.2862" gradientUnits="userSpaceOnUse">
<stop stop-color="#434A5B"/>
<stop offset="1" stop-color="#6164A1"/>
</linearGradient>
<linearGradient id="paint48_linear_2658_3087" x1="183.43" y1="88.0208" x2="183.327" y2="92.4024" gradientUnits="userSpaceOnUse">
<stop stop-color="#434A5B"/>
<stop offset="1" stop-color="#6164A1"/>
</linearGradient>
<linearGradient id="paint49_linear_2658_3087" x1="172.298" y1="81.6731" x2="162.595" y2="122.577" gradientUnits="userSpaceOnUse">
<stop stop-color="#C56B01"/>
<stop offset="1" stop-color="#B32C0A"/>
</linearGradient>
<linearGradient id="paint50_linear_2658_3087" x1="175.394" y1="86.3051" x2="177.16" y2="98.1984" gradientUnits="userSpaceOnUse">
<stop stop-color="#434A5B"/>
<stop offset="1" stop-color="#6164A1"/>
</linearGradient>
<linearGradient id="paint51_linear_2658_3087" x1="172.35" y1="79.0005" x2="174.321" y2="92.3003" gradientUnits="userSpaceOnUse">
<stop stop-color="#434A5B"/>
<stop offset="1" stop-color="#6164A1"/>
</linearGradient>
<linearGradient id="paint52_linear_2658_3087" x1="171.193" y1="92.6972" x2="168.851" y2="92.8089" gradientUnits="userSpaceOnUse">
<stop stop-color="#FF8D02"/>
<stop offset="1" stop-color="#FFC757"/>
</linearGradient>
<linearGradient id="paint53_linear_2658_3087" x1="202.104" y1="108.265" x2="215.833" y2="70.1684" gradientUnits="userSpaceOnUse">
<stop stop-color="#FF3843"/>
<stop offset="1" stop-color="#FF8457"/>
</linearGradient>
<clipPath id="clip0_2658_3087">
<rect width="291" height="232" fill="white"/>
</clipPath>
</defs>
</svg>
