<svg width="352" height="229" viewBox="0 0 352 229" fill="none" xmlns="http://www.w3.org/2000/svg">
<path d="M351.133 218.715C351.133 224.395 348.228 229 344.643 229H6.49078C2.9053 229 0 224.395 0 218.715C0 213.033 2.9053 208.427 6.49078 208.427H344.641C348.226 208.427 351.132 213.032 351.132 218.715H351.133Z" fill="#429EBD"/>
<path d="M205.926 142.315H152.354C152.354 142.315 166.362 138.842 166.362 134.752V82.6787H191.92V134.752C191.92 140.885 205.926 142.315 205.926 142.315Z" fill="#DADADA"/>
<path d="M266.556 121.409C266.556 124.796 263.809 127.541 260.42 127.541H97.864C94.4753 127.541 91.73 124.796 91.73 121.409V6.13159C91.73 2.74604 94.4753 0 97.864 0H260.42C263.809 0 266.556 2.74428 266.556 6.13159V121.411V121.409Z" fill="#D0E0E9"/>
<path d="M263.281 100.46C263.281 103.144 260.638 105.319 257.376 105.319H100.903C97.6424 105.319 94.999 103.144 94.999 100.46V9.10959C94.999 6.4268 97.6424 4.25 100.903 4.25H257.376C260.636 4.25 263.281 6.4268 263.281 9.10959V100.46Z" fill="#57C4F2"/>
<path d="M91.73 108.387V121.411C91.73 124.798 94.4753 127.542 97.864 127.542H260.42C263.809 127.542 266.556 124.798 266.556 121.411V108.387H91.73Z" fill="#262C2F"/>
<path d="M205.926 142.314H152.354V146.199H205.926V142.314Z" fill="#C6C6C6"/>
<path d="M252.789 8.29199H105.494V18.5611H252.789V8.29199Z" fill="white"/>
<path d="M248.042 10.9149C247.167 9.86601 245.569 9.70262 244.487 10.5512C243.402 11.4015 243.233 12.9441 244.11 13.993C244.894 14.9312 246.248 15.1578 247.302 14.5921C247.308 14.6009 247.315 14.6096 247.32 14.6167L249.134 16.7865C249.287 16.9692 249.564 16.9973 249.754 16.8497C249.942 16.7021 249.97 16.4351 249.817 16.2524L248.005 14.0808C248.005 14.0808 247.988 14.0685 247.984 14.0597C248.775 13.1795 248.826 11.8513 248.044 10.9131L248.042 10.9149ZM247.272 13.884C246.457 14.5236 245.258 14.4006 244.599 13.6117C243.94 12.8229 244.065 11.6616 244.88 11.0238C245.696 10.3843 246.896 10.5073 247.555 11.2961C248.214 12.085 248.088 13.2463 247.272 13.884Z" fill="#DADADA"/>
<path d="M238.627 24.4717H119.659V101.141H238.627V24.4717Z" fill="white"/>
<path d="M236.122 26.9756H122.164V91.4416H236.122V26.9756Z" fill="#438DCC"/>
<path d="M223.487 96.2516C223.487 97.6396 222.36 98.7658 220.974 98.7658H138.2C136.811 98.7658 135.687 97.6396 135.687 96.2516C135.687 94.8637 136.811 93.7393 138.2 93.7393H220.974C222.362 93.7393 223.487 94.8637 223.487 96.2516Z" fill="#CDE4F2"/>
<path d="M169.564 94.6543H139.177C137.991 94.6543 137.029 95.3711 137.029 96.2531C137.029 97.135 137.989 97.8519 139.177 97.8519H169.564V94.6543Z" fill="#E6332A"/>
<path d="M122.164 98.9581V93.5469L125.572 96.2507L122.164 98.9581Z" fill="#CDE4F2"/>
<path d="M129.619 93.5469H128.178V98.9581H129.619V93.5469Z" fill="#CDE4F2"/>
<path d="M132.027 93.5469H130.583V98.9581H132.027V93.5469Z" fill="#CDE4F2"/>
<path d="M227.693 95.4727V93.7913H230.705V92.9199H226.781V95.4727H227.693Z" fill="#CDE4F2"/>
<path d="M234.915 95.4727H235.827V92.9199H231.9V93.7913H234.915V95.4727Z" fill="#CDE4F2"/>
<path d="M234.915 96.9658V98.7104H231.9V99.5819H235.827V96.9658H234.915Z" fill="#CDE4F2"/>
<path d="M227.693 96.9658H226.781V99.5819H230.705V98.7104H227.693V96.9658Z" fill="#CDE4F2"/>
<path d="M217.319 91.4419C215.356 87.2289 212.168 82.0355 207.482 79.0066C201.963 75.44 186.575 73.9502 186.575 73.9502H170.945C170.945 73.9502 156.635 73.9502 148.471 81.4926C145.086 84.6216 142.709 88.3217 141.124 91.4419H217.319Z" fill="#B4E1FA"/>
<path d="M186.618 73.9523C186.618 73.9523 185.556 76.7405 178.823 76.7405C172.089 76.7405 170.667 73.9523 170.667 73.9523L172.75 63.9801L184.182 63.3301L186.618 73.9523Z" fill="#F9C6BF"/>
<path d="M186.973 45.3533C186.968 43.9074 185.286 36.6953 177.835 36.6953C169.172 36.6953 168.734 43.9074 168.726 45.3533C168.696 51.2653 166.834 62.6782 173.856 66.0901C174.856 66.5732 176.712 66.7032 177.847 66.7138C178.981 66.7032 181.254 66.6417 183.069 65.5472C189.52 61.6574 186.999 51.2671 186.971 45.3533H186.973Z" fill="#F9C6BF"/>
<path d="M189.818 41.643C189.55 37.1892 189.764 33.1097 182.602 31.2509C175.665 29.4501 167.026 33.693 167.026 38.0167C162.551 37.7268 167.376 51.2919 167.376 51.2919C167.376 51.2919 168.833 55.2519 168.873 53.1085C168.894 51.768 169.9 50.3642 169.9 50.3642C169.9 50.3642 168.353 44.4575 170.148 41.5569C173.148 36.6973 176.492 40.7013 183.568 42.286C187.738 43.2189 186.365 49.5754 186.365 49.5754C186.365 49.5754 187.367 50.5628 187.391 51.9033C187.43 54.0467 188.579 50.0076 188.579 50.0076C188.579 50.0076 190.065 45.7172 189.82 41.6447L189.818 41.643Z" fill="#093B59"/>
<path d="M185.651 52.3267C183.853 52.5674 186.707 54.6792 188.061 54.4789C189.027 54.3366 190.077 53.149 190.068 51.4852C190.059 49.6562 188.771 48.9043 187.804 49.0448C186.117 49.2961 186.881 52.1598 185.651 52.325V52.3267Z" fill="#F9C6BF"/>
<path d="M173.701 49.5754C173.701 50.0093 173.437 50.3625 173.125 50.3625C172.812 50.3625 172.55 50.0093 172.55 49.5754C172.55 49.1414 172.806 48.7812 173.125 48.7812C173.443 48.7812 173.701 49.1361 173.701 49.5754Z" fill="#093B59"/>
<path d="M182.417 49.5754C182.417 50.0093 182.674 50.3625 182.99 50.3625C183.306 50.3625 183.568 50.0093 183.568 49.5754C183.568 49.1414 183.308 48.7812 182.99 48.7812C182.672 48.7812 182.417 49.1361 182.417 49.5754Z" fill="#093B59"/>
<path d="M175.39 58.9906C176.768 60.614 180.782 60.5279 181.463 58.6182" stroke="#E9A37C" stroke-width="4.21" stroke-miterlimit="10" stroke-linecap="round"/>
<path d="M175.921 66.0615C178.503 67.453 181.723 66.1775 181.723 66.1775" stroke="#E9ABA3" stroke-width="3.18" stroke-miterlimit="10" stroke-linecap="round"/>
<path d="M178.446 49.418C178.279 50.8762 178.409 54.4357 178.409 54.4357" stroke="#E9ABA3" stroke-width="3.18" stroke-miterlimit="10" stroke-linecap="round"/>
<path d="M177.137 55.0848C177.137 55.0848 178.571 54.0535 179.719 54.9741" stroke="#E9A37C" stroke-width="2.79" stroke-miterlimit="10" stroke-linecap="round"/>
<path d="M181.724 45.713C182.721 45.1684 184.158 45.135 184.993 46.0943" stroke="#093B59" stroke-width="2.79" stroke-miterlimit="10" stroke-linecap="round"/>
<path d="M174.543 45.713C173.548 45.1684 172.107 45.135 171.274 46.0943" stroke="#093B59" stroke-width="2.79" stroke-miterlimit="10" stroke-linecap="round"/>
<path d="M169.717 52.2527C171.52 52.5092 168.685 54.6 167.33 54.3856C166.36 54.2328 165.302 53.0363 165.293 51.3725C165.284 49.5436 166.567 48.8039 167.532 48.9533C169.221 49.2186 168.485 52.077 169.717 52.251V52.2527Z" fill="#F9C6BF"/>
<path d="M194.406 75.5598L182.417 82.8738L179.749 76.7211L185.718 70.0361L194.406 75.5598Z" fill="#DDF1FD"/>
<path d="M164.236 74.6181L176.515 82.8738L179.749 76.7211L171.274 70.0361L164.236 74.6181Z" fill="#DDF1FD"/>
<path d="M208.445 58.9805C211.317 67.4312 202.728 72.9496 202.728 72.9496C202.728 72.9496 217.247 71.7233 219.854 61.21L208.445 58.9805Z" fill="white"/>
<path d="M253.25 43.427C253.25 55.6182 240.547 65.5025 224.879 65.5025C209.21 65.5025 196.509 55.6182 196.509 43.427C196.509 31.2359 209.211 21.3516 224.879 21.3516C240.546 21.3516 253.25 31.2341 253.25 43.427Z" fill="white"/>
<path d="M217.247 43.4268C217.247 45.2452 215.772 46.721 213.95 46.721C212.127 46.721 210.654 45.2452 210.654 43.4268C210.654 41.6084 212.131 40.1309 213.95 40.1309C215.769 40.1309 217.247 41.6067 217.247 43.4268Z" fill="#093B59"/>
<path d="M228.137 43.4268C228.137 45.2452 226.661 46.721 224.84 46.721C223.019 46.721 221.542 45.2452 221.542 43.4268C221.542 41.6084 223.019 40.1309 224.84 40.1309C226.661 40.1309 228.137 41.6067 228.137 43.4268Z" fill="#093B59"/>
<path d="M239.102 43.4268C239.102 45.2452 237.628 46.721 235.805 46.721C233.982 46.721 232.508 45.2452 232.508 43.4268C232.508 41.6084 233.984 40.1309 235.805 40.1309C237.626 40.1309 239.102 41.6067 239.102 43.4268Z" fill="#093B59"/>
<path d="M227.129 181.693H92.896V206.527H227.129V181.693Z" fill="white"/>
<path d="M227.129 181.693H92.896V188.904H227.129V181.693Z" fill="#C9E8FB"/>
<path d="M184.981 200.519C184.981 204.943 189.084 208.53 194.142 208.53H272.028C277.088 208.53 281.19 204.943 281.19 200.519V187.702C281.19 183.278 277.088 179.692 272.028 179.692H194.142C189.084 179.692 184.981 183.278 184.981 187.702V200.519Z" fill="#453A8F"/>
<path d="M218.884 179.69H88.7729V183.696H218.884V179.69Z" fill="#453A8F"/>
<path d="M218.884 204.524H88.7729V208.53H218.884V204.524Z" fill="#453A8F"/>
<path d="M246.685 148.527H110.349V177.365H246.685V148.527Z" fill="white"/>
<path d="M246.685 148.527H110.349V156.901H246.685V148.527Z" fill="#C9E8FB"/>
<path d="M153.155 170.389C153.155 175.527 148.988 179.69 143.847 179.69H64.7462C59.6052 179.69 55.438 175.525 55.438 170.389V155.503C55.438 150.366 59.6052 146.202 64.7462 146.202H143.847C148.988 146.202 153.155 150.368 153.155 155.503V170.389Z" fill="#0076A8"/>
<path d="M250.87 146.202H118.724V150.853H250.87V146.202Z" fill="#0076A8"/>
<path d="M250.87 175.04H118.724V179.691H250.87V175.04Z" fill="#0076A8"/>
<path d="M228.396 183.569L215.813 177.899L203.23 183.569V159.536H228.396V183.569Z" fill="#E6332A"/>
<g style="mix-blend-mode:multiply">
<path d="M47.6255 211.197C47.6255 214.762 109.359 217.652 185.514 217.652C261.668 217.652 323.402 214.762 323.402 211.197C323.402 207.632 261.67 204.74 185.514 204.74C109.357 204.74 47.6255 207.632 47.6255 211.197Z" fill="#D3E2EC"/>
</g>
<path d="M120.022 91.1374C125.589 89.7951 125.524 87.3969 125.395 84.6017C125.186 79.9582 120.497 79.2097 118.388 73.6228C117.031 70.0264 118.105 62.2187 110.118 61.3333C105.144 60.7798 104.297 70.5043 103.955 72.6442C103.179 77.4651 102.708 80.0127 105.16 84.6017C105.999 86.1724 111.871 90.1043 113.307 91.1584C113.936 91.6223 115.734 92.8837 116.282 91.7101L120.024 91.1356L120.022 91.1374Z" fill="#093B59"/>
<path d="M83.7512 183.607C82.1782 184.731 77.865 188.347 76.6611 188.714C75.4589 189.078 73.8806 189.491 73.0721 189.283C72.6221 189.167 72.195 187.504 73.6538 186.697L75.3587 185.613L78.895 181.307L83.1589 179.912C83.1589 179.912 84.9024 182.783 83.7512 183.607Z" fill="#042236"/>
<path d="M98.7712 179.509C97.859 181.213 95.6023 186.368 94.6866 187.229C93.7709 188.091 92.5423 189.158 91.7215 189.334C91.2646 189.427 90.1432 188.127 91.0941 186.758L92.1434 185.031L93.4 179.602L96.5989 176.459C96.5989 176.459 99.4356 178.258 98.7695 179.507L98.7712 179.509Z" fill="#042236"/>
<path d="M60.3697 140.807C60.8003 155.194 76.1897 181.602 76.5342 182.006C78.1793 183.22 83.8195 180.541 84.2993 179.056C84.0972 178.341 81.7402 155.473 77.0369 140.775L81.7754 127.373C81.7754 127.373 59.9355 126.421 60.3697 140.808V140.807Z" fill="#07304A"/>
<path d="M94.1632 126.242C86.3912 126.242 67.9857 127.435 65.395 139.607C62.0081 155.517 91.6024 181.47 91.8116 181.537C93.3512 181.354 97.8331 176.324 97.3919 175.13C97.1371 174.585 83.173 146.385 83.173 146.385C83.173 146.385 111.581 160.196 118.917 135.94C121.107 128.698 94.165 126.244 94.165 126.244L94.1632 126.242Z" fill="#093B59"/>
<path d="M120.87 135.595C116.193 141.566 93.149 130.109 91.0487 127.539C88.9484 124.964 95.4585 114.159 95.4585 114.159C95.4585 114.159 96.7081 103.629 98.6889 96.6071C100.638 89.7025 106.313 82.4008 106.313 82.4008L114.247 82.3955C114.247 82.3955 117.527 82.3885 120.55 86.649C125.462 93.5799 122.947 111.715 122.947 111.715C122.947 111.715 124.7 130.705 120.87 135.596V135.595Z" fill="#8E328A"/>
<path d="M104.322 78.3456C105.313 79.0414 106.682 78.8622 106.682 78.8622L106.315 82.397C106.315 82.397 105.354 84.2418 106.116 84.5703C106.877 84.9006 114.249 82.39 114.249 82.39C113.31 76.7574 113.147 72.3809 113.147 72.3809C113.147 72.3809 113.679 71.2091 113.493 68.5491C113.25 65.1987 107.392 63.1045 107.392 63.1045L103.454 64.6471C103.454 64.6471 102.78 66.5392 102.833 68.2663C102.916 70.9157 101.8 76.5764 104.324 78.3456H104.322Z" fill="#F9C6BF"/>
<path d="M112.676 62.6351C110.412 60.1578 103.886 61.0328 102.482 63.5153C100.638 66.7761 102.833 68.4961 102.833 68.4961C102.833 68.4961 102.84 67.0414 102.993 66.2719C105.675 68.9828 109.511 68.0481 111.135 69.6188C112.324 70.7713 110.804 70.8872 111.945 72.7408C112.449 73.5595 113.152 74.0198 113.437 73.1853C113.725 72.349 115.836 66.0962 112.672 62.6368L112.676 62.6351Z" fill="#093B59"/>
<path d="M111.948 72.7388C111.043 72.5842 112.193 73.8808 112.876 73.9862C113.367 74.0635 114.015 73.7122 114.202 73.0094C114.407 72.2381 113.866 71.7374 113.379 71.6619C112.527 71.5283 112.571 72.846 111.95 72.7388H111.948Z" fill="#F9C6BF"/>
<path d="M108.229 70.5993C108.229 70.9138 108.343 71.1668 108.486 71.1668C108.628 71.1668 108.744 70.9138 108.744 70.5993C108.744 70.2848 108.626 70.0283 108.486 70.0283C108.345 70.0283 108.229 70.2831 108.229 70.5993Z" fill="#093B59"/>
<path d="M104.322 70.5993C104.322 70.9138 104.206 71.1668 104.064 71.1668C103.921 71.1668 103.805 70.9138 103.805 70.5993C103.805 70.2848 103.923 70.0283 104.064 70.0283C104.204 70.0283 104.322 70.2831 104.322 70.5993Z" fill="#093B59"/>
<path d="M106.101 70.5127C106.257 72.18 105.173 72.2608 105.16 72.7633C105.146 73.264 105.874 73.5416 105.874 73.5416" stroke="#E9ABA3" stroke-width="1.49" stroke-miterlimit="10" stroke-linecap="round"/>
<path d="M107.117 75.0503C106.398 75.5457 104.579 75.2154 104.438 74.4951" stroke="#E9A37C" stroke-width="1.49" stroke-miterlimit="10" stroke-linecap="round"/>
<path d="M109.876 77.4668C108.939 78.3892 107.117 78.5543 107.117 78.5543" stroke="#E9ABA3" stroke-width="1.49" stroke-miterlimit="10" stroke-linecap="round"/>
<path d="M107.805 69.3127C108.485 69.007 109.181 69.1669 109.515 69.6166" stroke="#093B59" stroke-width="1.49" stroke-miterlimit="10" stroke-linecap="round"/>
<path d="M104.73 69.4886C104.146 69.1337 103.563 69.2496 103.178 69.6186" stroke="#093B59" stroke-width="1.49" stroke-miterlimit="10" stroke-linecap="round"/>
<path d="M82.2871 98.356C80.7615 93.9918 80.9707 91.9152 81.3328 90.8153C81.4435 90.4815 81.846 90.2127 81.9602 90.5764C82.1377 91.1351 82.2573 94.1359 82.2573 94.1359C82.2573 94.1359 82.1711 90.3638 82.0569 89.6874C81.9409 89.0128 82.9199 88.7545 83.0587 89.4502C83.2292 90.3006 83.8848 93.4156 83.8848 93.4156C83.8848 93.4156 83.5016 89.4801 83.4436 88.9056C83.3856 88.3329 84.5826 87.9692 84.6898 88.9021C84.8005 89.8403 85.3049 93.5368 85.3049 93.5368C85.3049 93.5368 85.2909 90.2514 85.2821 89.5469C85.2733 88.8459 86.3753 88.6649 86.4878 89.6927C86.6003 90.7205 86.9131 94.0182 86.9131 94.0182L87.6003 95.6714C87.6003 95.6714 87.7937 94.8316 87.9009 93.9725C88.0011 93.1977 88.7164 93.4894 89.3122 94.5101C89.7059 95.183 89.7446 96.6957 90.7833 98.8321C95.151 107.815 101.7 106.218 101.7 106.218L108.524 113.891C108.524 113.891 104.823 118.783 98.6943 118.014C91.6006 117.127 86.8305 111.332 82.2871 98.3577V98.356Z" fill="#F9C6BF"/>
<path d="M98.694 105.418C98.8416 102.761 104.719 83.9432 113.658 83.959C122.595 83.973 122.156 93.4919 120.391 97.4748C117.537 103.914 108.841 118.092 106.475 118.092C104.622 118.092 98.5481 108.072 98.694 105.416V105.418Z" fill="#8E328A"/>
<path d="M81.1439 85.6005L80.3027 85.915L85.1984 98.997L86.0396 98.6825L81.1439 85.6005Z" fill="#093B59"/>
<path d="M91.2347 94.764L86.0427 98.6819L81.1426 85.6L87.3732 84.4492L91.2347 94.764Z" fill="#074D7D"/>
<path d="M90.7075 94.2087L86.1957 97.6785L81.7754 85.8722L87.2222 84.9023L90.7075 94.2087Z" fill="#61B9D9"/>
<path d="M98.6943 105.417C99.4659 99.8357 104.695 89.9092 107.767 86.8398" stroke="#6B1A6F" stroke-width="2.62" stroke-miterlimit="10" stroke-linecap="round"/>
<path d="M106.614 118.202C117.551 108.515 120.921 94.3278 121.416 92.8818" stroke="#6B1A6F" stroke-width="2.62" stroke-miterlimit="10" stroke-linecap="round"/>
<path d="M271.286 188.11C271.632 190.011 272.205 195.609 272.811 196.71C273.418 197.81 274.265 199.203 274.989 199.618C275.393 199.848 276.859 198.952 276.376 197.359L275.908 195.394L276.371 189.844L274.286 185.872C274.286 185.872 271.034 186.717 271.286 188.112V188.11Z" fill="#042236"/>
<path d="M292.66 159.51C300.137 170.724 278.467 190.038 278.123 190.442C275.388 191.304 272.253 187.367 271.773 185.881C271.975 185.164 273.207 177.277 276.473 170.012L257.542 157.35C257.542 157.35 285.176 148.287 292.662 159.508L292.66 159.51Z" fill="#07304A"/>
<path d="M286.037 159.606C286.037 159.606 284.599 157.016 282.241 156.136C278.954 154.91 275.961 152.468 274.108 150.976C265.519 144.068 261.802 130.833 261.802 130.833L251.281 132.846C251.281 132.846 251.573 140.236 255.241 145.963C258.192 150.57 267.767 158.169 274.667 158.889C277.063 159.138 286.035 159.608 286.035 159.608L286.037 159.606Z" fill="#F9C6BF"/>
<path d="M263.335 133.757C263.335 133.757 259.848 113.22 250.938 112.495C242.029 111.767 241.676 121.29 243.105 125.406C245.414 132.058 251.85 141.761 254.209 141.956C256.055 142.111 263.335 133.757 263.335 133.757Z" fill="#B7E2FA"/>
<path d="M301.936 214.469C303.863 214.306 309.49 214.263 310.643 213.763C311.796 213.264 313.264 212.554 313.747 211.871C314.014 211.487 313.259 209.945 311.628 210.277L309.626 210.558L304.138 209.574L299.989 211.273C299.989 211.273 300.521 214.588 301.936 214.469Z" fill="#042236"/>
<path d="M251.615 156.094C251.615 156.094 275.344 162.259 285.606 171.163C297.894 181.825 306.566 208.657 306.546 208.875C305.769 210.219 299.377 212.35 298.454 211.473C298.052 211.025 277.637 187.077 277.637 187.077C277.637 187.077 236.817 180.515 234.657 161.38C233.808 153.859 251.616 156.094 251.616 156.094H251.615Z" fill="#093B59"/>
<path d="M234.139 164.264C238.305 170.605 262.002 161.812 266.177 155.784C268.068 153.052 261.243 145.009 261.243 145.009C261.243 145.009 260.87 134.413 259.477 127.25C258.107 120.205 253.061 112.459 253.061 112.459L245.156 111.796C245.156 111.796 241.885 111.517 238.521 115.514C233.048 122.011 234.05 140.291 234.05 140.291C234.05 140.291 230.726 159.071 234.139 164.263V164.264Z" fill="#B7E2FA"/>
<path d="M255.381 108.586C254.337 109.197 252.986 108.904 252.986 108.904L253.06 112.458C253.06 112.458 253.865 114.377 253.077 114.642C252.292 114.909 245.156 111.794 245.156 111.794C246.557 106.26 247.084 101.91 247.084 101.91C247.084 101.91 246.648 100.697 247.057 98.0619C247.579 94.7431 253.587 93.1426 253.587 93.1426L257.385 95.0066C257.385 95.0066 257.9 96.9463 257.701 98.6645C257.401 101.296 258.044 107.031 255.381 108.586Z" fill="#F9C6BF"/>
<path d="M247.263 92.8017C249.551 89.8308 259.17 90.5968 260.033 94.0491C260.942 97.6824 257.678 98.8929 257.678 98.8929C257.678 98.8929 257.793 97.4417 257.703 96.6634C254.805 99.1424 251.994 95.6303 250.247 97.0604C248.966 98.1093 249.537 100.613 248.245 102.366C247.674 103.139 246.936 103.54 246.72 102.683C246.505 101.827 244.4 96.5158 247.263 92.7999V92.8017Z" fill="#093B59"/>
<path d="M248.247 102.367C249.163 102.288 247.908 103.484 247.219 103.534C246.724 103.569 246.105 103.165 245.978 102.449C245.836 101.662 246.416 101.209 246.91 101.174C247.769 101.112 247.618 102.418 248.246 102.367H248.247Z" fill="#F9C6BF"/>
<path d="M252.131 100.541C252.105 100.855 251.968 101.098 251.827 101.087C251.687 101.075 251.592 100.813 251.618 100.499C251.643 100.184 251.78 99.9383 251.922 99.9506C252.063 99.9612 252.158 100.226 252.13 100.541H252.131Z" fill="#093B59"/>
<path d="M256.025 100.865C256 101.178 256.093 101.441 256.236 101.454C256.378 101.464 256.515 101.22 256.54 100.907C256.566 100.593 256.471 100.327 256.331 100.317C256.187 100.305 256.051 100.551 256.025 100.865Z" fill="#093B59"/>
<path d="M254.258 100.634C253.967 102.282 255.04 102.452 255.011 102.953C254.984 103.452 254.234 103.671 254.234 103.671" stroke="#E9ABA3" stroke-width="1.64" stroke-miterlimit="10" stroke-linecap="round"/>
<path d="M252.87 105.072C253.543 105.625 255.383 105.446 255.583 104.741" stroke="#E9ABA3" stroke-width="1.64" stroke-miterlimit="10" stroke-linecap="round"/>
<path d="M249.918 107.25C250.778 108.246 252.578 108.561 252.578 108.561" stroke="#E9ABA3" stroke-width="1.64" stroke-miterlimit="10" stroke-linecap="round"/>
<path d="M252.661 99.2955C252.009 98.9335 251.302 99.0355 250.933 99.4571" stroke="#093B59" stroke-width="1.49" stroke-miterlimit="10" stroke-linecap="round"/>
<path d="M255.71 99.7256C256.32 99.4198 256.893 99.585 257.244 99.9838" stroke="#093B59" stroke-width="1.49" stroke-miterlimit="10" stroke-linecap="round"/>
<path d="M280.713 160.516C280.713 160.516 279.272 157.926 276.915 157.046C273.627 155.82 270.635 153.376 268.783 151.886C260.194 144.978 256.475 131.741 256.475 131.741L245.954 133.755C245.954 133.755 246.247 141.142 249.915 146.87C252.866 151.477 262.44 159.075 269.338 159.795C271.734 160.045 280.71 160.514 280.71 160.514L280.713 160.516Z" fill="#F9C6BF"/>
<path d="M258.742 136.03C258.815 133.372 254.522 114.13 245.612 113.405C236.703 112.677 236.35 122.2 237.781 126.316C240.088 132.968 247.577 147.821 249.938 148.017C251.783 148.17 258.67 138.688 258.742 136.03Z" fill="#B7E2FA"/>
<path d="M258.742 136.031C258.438 130.405 254.049 120.08 251.244 116.767" stroke="#7AB6D3" stroke-width="3.28" stroke-miterlimit="10" stroke-linecap="round"/>
<path d="M249.789 148.116C239.691 137.555 237.514 123.134 237.138 121.653" stroke="#7AB6D3" stroke-width="3.28" stroke-miterlimit="10" stroke-linecap="round"/>
<path d="M274.963 159.078L282.461 144.116H300.177L292.679 159.078V161.956H257.208V159.078H274.963Z" fill="#DADADA"/>
<path d="M274.962 156.166C269.494 153.578 264.914 148.019 261.715 143.251" stroke="#E9ABA3" stroke-width="3.28" stroke-miterlimit="10" stroke-linecap="round"/>
<path d="M261.141 134.764C261.378 132.21 257.993 120.004 256.285 118.277" stroke="#7AB6D3" stroke-width="3.28" stroke-miterlimit="10" stroke-linecap="round"/>
</svg>
