<svg width="33" height="33" viewBox="0 0 33 33" fill="none" xmlns="http://www.w3.org/2000/svg">
<g clip-path="url(#clip0_808_8831)">
<path d="M16.759 -0.000115551C17.3004 0.250439 17.5113 0.668891 17.4778 1.26471C17.4425 1.89583 17.4726 2.5304 17.4692 3.16324C17.4649 3.78145 17.0594 4.20507 16.4853 4.19818C15.9292 4.19129 15.5376 3.76853 15.5342 3.16238C15.5307 2.52954 15.5626 1.89497 15.5247 1.26385C15.4894 0.665447 15.7054 0.2513 16.2443 -0.000976562H16.7599L16.759 -0.000115551Z" fill="black"/>
<path d="M7.94238 30.5836C8.00694 30.4053 8.04998 30.215 8.14122 30.0514C8.53631 29.3394 8.94173 28.6325 9.35059 27.9282C9.66305 27.3901 10.232 27.2187 10.7201 27.5063C11.1944 27.7853 11.3312 28.3553 11.0377 28.8796C10.6237 29.6184 10.2079 30.3562 9.77839 31.0864C9.5391 31.4936 9.10442 31.6547 8.67231 31.5298C8.24623 31.4075 7.97767 31.0468 7.94238 30.5844V30.5836Z" fill="black"/>
<path d="M25.0251 30.538C25.0182 31.0382 24.7609 31.3938 24.3718 31.5212C23.9552 31.6573 23.4981 31.529 23.2692 31.1467C22.7949 30.3563 22.3352 29.5564 21.9023 28.7436C21.6604 28.2907 21.8627 27.7405 22.3017 27.4952C22.726 27.2575 23.2993 27.3608 23.5584 27.7862C24.043 28.5817 24.4914 29.4006 24.9442 30.2159C25.0088 30.3322 25.0131 30.482 25.026 30.5388L25.0251 30.538Z" fill="black"/>
<path d="M10.231 5.62164C9.8678 5.62164 9.58288 5.46579 9.40212 5.15669C8.9528 4.38867 8.50607 3.61892 8.08085 2.83799C7.83037 2.3782 8.01801 1.80391 8.46131 1.55336C8.91579 1.29677 9.47959 1.4242 9.7559 1.88571C10.213 2.64856 10.6597 3.41917 11.078 4.20355C11.4318 4.86567 10.967 5.61733 10.231 5.62078V5.62164Z" fill="black"/>
<path d="M22.7801 5.6216C22.0553 5.62418 21.5716 4.89318 21.909 4.24398C22.3299 3.43635 22.7895 2.64852 23.2595 1.86845C23.535 1.41125 24.1134 1.29846 24.561 1.56451C24.9845 1.81593 25.1678 2.38247 24.9251 2.8302C24.4964 3.62147 24.0445 4.40154 23.5866 5.17646C23.4127 5.47178 23.1295 5.62074 22.7792 5.6216H22.7801Z" fill="black"/>
<path d="M15.5333 30.8786C15.5333 30.5144 15.5281 30.1494 15.5342 29.7852C15.5445 29.2152 15.9577 28.801 16.5051 28.8027C17.0526 28.8045 17.4631 29.2177 17.4683 29.792C17.4752 30.5317 17.4761 31.2721 17.4683 32.0117C17.4623 32.5791 17.0379 33.0019 16.4982 33.0002C15.9585 32.9985 15.5445 32.574 15.535 32.0048C15.529 31.6294 15.5342 31.254 15.5342 30.8786H15.5333Z" fill="black"/>
<path d="M33.0001 16.7587C32.352 17.4819 31.7554 18.262 31.0453 18.9189C28.2082 21.5433 24.9296 23.4048 21.1896 24.4105C17.5485 25.3895 13.9393 25.2086 10.387 23.9731C6.628 22.6661 3.37172 20.5747 0.671504 17.6369C0.548415 17.5026 0.43049 17.3631 0.313426 17.2228C-0.104045 16.7242 -0.104906 16.2765 0.313426 15.778C1.20776 14.7129 2.21572 13.7641 3.30975 12.9074C5.95402 10.8366 8.87804 9.32297 12.1464 8.51017C16.0026 7.55101 19.771 7.88766 23.4508 9.33244C26.9963 10.7247 30.077 12.7972 32.5964 15.6729C32.7488 15.8469 32.8667 16.0518 33.0001 16.2429V16.7587ZM23.0875 16.5159C23.0961 12.8807 20.173 9.93257 16.5414 9.91449C12.8892 9.8964 9.93419 12.8195 9.91612 16.4685C9.89804 20.1158 12.8324 23.0751 16.4777 23.0871C20.1256 23.0992 23.0789 20.1631 23.0875 16.5167V16.5159ZM23.3673 21.6286C26.1923 20.3792 28.5964 18.6632 30.7019 16.5159C29.2696 14.7818 24.803 11.6856 23.4112 11.4419C25.5941 14.8128 25.5915 18.1854 23.3673 21.6277V21.6286ZM9.63637 21.6286C7.40957 18.1871 7.40527 14.8093 9.63465 11.3739C6.81048 12.6215 4.4055 14.3366 2.2863 16.5021C4.41153 18.6796 6.8165 20.3844 9.63723 21.6277L9.63637 21.6286Z" fill="black"/>
<path d="M19.7942 16.4952C19.7959 18.3214 18.33 19.7921 16.5069 19.7946C14.683 19.7972 13.2102 18.3283 13.2085 16.5056C13.2068 14.6802 14.6727 13.2096 16.4966 13.207C18.3223 13.2045 19.7933 14.6716 19.7951 16.4952H19.7942ZM17.8558 16.4901C17.8515 15.7436 17.2463 15.1443 16.4983 15.146C15.7512 15.1469 15.1487 15.7487 15.1461 16.4952C15.1435 17.2564 15.7572 17.8642 16.5199 17.8565C17.2627 17.8487 17.8609 17.2374 17.8566 16.4901H17.8558Z" fill="black"/>
</g>
<defs>
<clipPath id="clip0_808_8831">
<rect width="33" height="33" fill="white"/>
</clipPath>
</defs>
</svg>
