<?xml version="1.0" standalone="no"?>
<!DOCTYPE svg PUBLIC "-//W3C//DTD SVG 20010904//EN"
 "http://www.w3.org/TR/2001/REC-SVG-20010904/DTD/svg10.dtd">
<svg version="1.0" xmlns="http://www.w3.org/2000/svg"
 width="344.000000pt" height="99.000000pt" viewBox="0 0 344.000000 99.000000"
 preserveAspectRatio="xMidYMid meet">

<g transform="translate(0.000000,99.000000) scale(0.100000,-0.100000)"
fill="#000000" stroke="none">
<path d="M395 785 c-86 -18 -139 -45 -143 -72 -5 -32 24 -135 54 -197 32 -66
101 -146 159 -186 84 -58 90 -26 9 44 -79 69 -56 84 27 17 69 -56 72 -57 88
-38 9 11 -2 24 -49 62 -57 46 -75 75 -47 75 8 0 24 -11 37 -25 35 -37 98 -78
109 -70 13 8 15 45 2 45 -5 0 -32 21 -60 46 -37 33 -49 50 -42 57 8 8 21 2 43
-19 58 -54 93 -75 106 -62 15 15 16 38 2 38 -5 0 -41 30 -80 66 -38 37 -70 62
-70 57 0 -6 -19 -31 -43 -57 -38 -40 -49 -46 -83 -46 -44 0 -84 22 -84 47 0 8
20 33 44 55 42 36 126 150 126 169 0 12 -32 10 -105 -6z"/>
<path d="M917 754 c-25 -25 8 -70 43 -59 32 10 24 59 -10 63 -14 2 -29 0 -33
-4z"/>
<path d="M2621 741 c-13 -24 8 -55 34 -50 23 5 40 32 32 53 -9 22 -54 20 -66
-3z"/>
<path d="M2460 675 c0 -31 -3 -35 -25 -35 -20 0 -25 -5 -25 -25 0 -18 5 -25
20 -25 18 0 20 -7 20 -67 0 -127 24 -163 105 -163 31 0 35 3 35 25 0 21 -5 25
-28 25 -44 0 -52 16 -52 102 l0 78 40 0 c36 0 40 3 40 25 0 23 -4 25 -40 25
-39 0 -40 1 -40 35 0 31 -3 35 -25 35 -22 0 -25 -4 -25 -35z"/>
<path d="M920 501 l0 -141 30 0 31 0 -3 138 -3 137 -27 3 -28 3 0 -140z"/>
<path d="M1020 500 l0 -140 30 0 30 0 0 86 c0 114 16 144 77 144 54 0 63 -19
63 -131 l0 -99 30 0 30 0 0 100 c0 143 -23 180 -108 180 -25 0 -49 -8 -66 -21
l-27 -21 -6 21 c-3 14 -13 21 -29 21 l-24 0 0 -140z"/>
<path d="M1320 500 l0 -140 30 0 30 0 0 93 c0 114 12 137 70 137 58 0 70 -23
70 -137 l0 -93 30 0 30 0 0 84 c0 108 -7 140 -38 171 -39 39 -124 32 -159 -14
-11 -14 -12 -12 -13 12 0 22 -4 27 -25 27 l-25 0 0 -140z"/>
<path d="M1684 630 c-82 -33 -104 -167 -38 -233 58 -58 148 -54 203 9 26 29
31 43 31 85 0 92 -50 149 -129 148 -25 0 -55 -4 -67 -9z m116 -60 c14 -14 20
-33 20 -68 0 -54 -18 -87 -54 -96 -83 -21 -139 101 -75 165 26 26 83 25 109
-1z"/>
<path d="M1880 633 c0 -5 22 -66 49 -138 l49 -130 37 0 37 0 43 118 c63 171
61 157 26 157 -28 0 -31 -4 -57 -82 -52 -158 -46 -156 -90 -29 -37 105 -40
111 -66 111 -16 0 -28 -3 -28 -7z"/>
<path d="M2184 606 c-19 -19 -34 -39 -34 -45 0 -19 51 -12 68 9 29 33 67 36
96 6 15 -14 26 -29 26 -34 0 -5 -30 -12 -67 -16 -107 -11 -147 -52 -119 -121
24 -56 112 -69 162 -23 21 19 21 19 27 -1 3 -15 13 -21 31 -21 26 0 26 0 26
83 0 152 -29 197 -127 197 -49 0 -59 -4 -89 -34z m148 -141 c-11 -62 -114 -92
-122 -35 -7 44 18 61 85 57 34 -2 39 -5 37 -22z"/>
<path d="M2627 633 c-4 -3 -7 -66 -7 -140 l0 -133 30 0 30 0 0 140 0 140 -23
0 c-13 0 -27 -3 -30 -7z"/>
<path d="M2783 620 c-77 -47 -85 -169 -15 -233 77 -70 212 -18 228 88 8 55
-21 122 -65 148 -39 23 -108 22 -148 -3z m127 -48 c26 -21 36 -87 18 -122 -20
-38 -62 -55 -99 -40 -37 16 -49 37 -49 88 0 78 73 120 130 74z"/>
</g>
</svg>
