<svg width="389" height="182" viewBox="0 0 389 182" fill="none" xmlns="http://www.w3.org/2000/svg">
<g clip-path="url(#clip0_2648_3061)">
<path d="M238.028 129.59L241.499 130.161C241.776 130.206 242.02 130.324 242.213 130.484C242.415 130.656 242.56 130.876 242.623 131.118C242.641 131.19 242.653 131.268 242.656 131.344C242.656 131.413 242.656 131.483 242.644 131.555L234.657 180.051C234.554 180.675 233.903 181.098 233.195 181.013C233.171 181.01 233.15 181.007 233.126 181.004L229.655 180.434C229.631 180.431 229.61 180.425 229.586 180.422C228.887 180.274 228.407 179.667 228.51 179.04L236.497 130.544C236.51 130.475 236.528 130.405 236.552 130.342C236.579 130.269 236.612 130.203 236.657 130.14C236.793 129.931 237.001 129.768 237.248 129.672C237.483 129.581 237.751 129.548 238.028 129.593V129.59Z" fill="#FFB92C"/>
<path d="M238.914 154.194L234.635 180.174C234.545 180.733 233.903 181.098 233.195 181.011C233.171 181.007 233.15 181.004 233.126 181.001L229.655 180.431C229.631 180.428 229.61 180.422 229.585 180.419C228.886 180.274 228.395 179.722 228.489 179.163L232.243 156.373C234.114 156.307 236.756 155.872 238.917 154.194H238.914Z" fill="#FFA400"/>
<path d="M235.733 135.28L235.643 135.831L241.79 136.848L241.881 136.297L235.733 135.28Z" fill="#FFA400"/>
<path d="M235.406 137.132L235.315 137.683L241.463 138.698L241.554 138.147L235.406 137.132Z" fill="#FFA400"/>
<path d="M235.044 139.371L234.953 139.922L241.101 140.939L241.192 140.388L235.044 139.371Z" fill="#FFA400"/>
<path d="M234.465 142.792L234.374 143.343L240.522 144.358L240.613 143.807L234.465 142.792Z" fill="#FFA400"/>
<path d="M233.877 146.425L233.786 146.976L239.934 147.991L240.025 147.44L233.877 146.425Z" fill="#FFA400"/>
<path d="M232.976 152L232.885 152.551L239.033 153.567L239.124 153.016L232.976 152Z" fill="#FFA400"/>
<path d="M232.122 157.206L232.031 157.757L238.179 158.774L238.27 158.223L232.122 157.206Z" fill="#FFA400"/>
<path d="M231.336 161.839L231.246 162.39L237.394 163.405L237.484 162.854L231.336 161.839Z" fill="#FFA400"/>
<path d="M236.021 133.503L235.93 134.054L242.078 135.068L242.169 134.517L236.021 133.503Z" fill="#FFA400"/>
<path d="M236.19 132.308L236.099 132.859L242.247 133.874L242.338 133.324L236.19 132.308Z" fill="#FFA400"/>
<path d="M236.377 131.176L236.286 131.727L242.434 132.742L242.525 132.191L236.377 131.176Z" fill="#FFA400"/>
<path d="M236.44 130.885L242.587 131.899L242.644 131.555C242.656 131.483 242.659 131.413 242.656 131.344L236.552 130.339C236.528 130.405 236.506 130.472 236.497 130.541L236.44 130.885Z" fill="#FFA400"/>
<path d="M236.657 130.137L242.626 131.121C242.563 130.879 242.418 130.659 242.216 130.487L237.251 129.669C237.003 129.766 236.796 129.929 236.66 130.137H236.657Z" fill="#FFA400"/>
<path d="M244.325 129.59L247.796 130.161C248.073 130.206 248.318 130.324 248.51 130.484C248.712 130.656 248.86 130.876 248.92 131.118C248.938 131.19 248.95 131.268 248.953 131.344C248.953 131.413 248.953 131.483 248.941 131.555L240.954 180.051C240.851 180.675 240.2 181.098 239.492 181.013C239.468 181.01 239.447 181.007 239.423 181.004L235.952 180.434C235.928 180.431 235.907 180.425 235.883 180.422C235.184 180.274 234.705 179.667 234.807 179.04L242.795 130.544C242.807 130.475 242.825 130.405 242.849 130.342C242.876 130.269 242.912 130.203 242.954 130.14C243.09 129.931 243.298 129.768 243.545 129.672C243.78 129.581 244.048 129.548 244.325 129.593V129.59Z" fill="#FFB92C"/>
<path d="M245.214 154.194L240.936 180.174C240.845 180.733 240.203 181.098 239.495 181.011C239.471 181.007 239.45 181.004 239.426 181.001L235.955 180.431C235.931 180.428 235.91 180.422 235.886 180.419C235.187 180.274 234.696 179.722 234.789 179.163L238.543 156.373C240.414 156.307 243.057 155.872 245.217 154.194H245.214Z" fill="#FFA400"/>
<path d="M242.005 135.259L241.914 135.81L248.061 136.828L248.152 136.277L242.005 135.259Z" fill="#FFA400"/>
<path d="M241.693 137.125L241.602 137.676L247.75 138.689L247.841 138.138L241.693 137.125Z" fill="#FFA400"/>
<path d="M241.33 139.364L241.24 139.915L247.388 140.93L247.478 140.379L241.33 139.364Z" fill="#FFA400"/>
<path d="M240.781 142.802L240.69 143.353L246.838 144.37L246.929 143.819L240.781 142.802Z" fill="#FFA400"/>
<path d="M240.192 146.442L240.101 146.993L246.249 148.01L246.34 147.46L240.192 146.442Z" fill="#FFA400"/>
<path d="M239.277 151.999L239.187 152.55L245.334 153.566L245.425 153.015L239.277 151.999Z" fill="#FFA400"/>
<path d="M238.408 157.193L238.317 157.744L244.465 158.759L244.556 158.208L238.408 157.193Z" fill="#FFA400"/>
<path d="M237.637 161.836L237.546 162.387L243.694 163.402L243.785 162.851L237.637 161.836Z" fill="#FFA400"/>
<path d="M242.312 133.497L242.221 134.048L248.369 135.065L248.459 134.514L242.312 133.497Z" fill="#FFA400"/>
<path d="M242.49 132.308L242.399 132.859L248.547 133.874L248.638 133.324L242.49 132.308Z" fill="#FFA400"/>
<path d="M242.702 131.194L242.611 131.745L248.759 132.759L248.85 132.208L242.702 131.194Z" fill="#FFA400"/>
<path d="M242.738 130.885L248.887 131.899L248.944 131.555C248.956 131.483 248.96 131.413 248.956 131.344L242.852 130.339C242.828 130.405 242.807 130.472 242.798 130.541L242.741 130.885H242.738Z" fill="#FFA400"/>
<path d="M242.954 130.137L248.923 131.121C248.86 130.879 248.715 130.659 248.513 130.487L243.548 129.669C243.301 129.766 243.093 129.929 242.957 130.137H242.954Z" fill="#FFA400"/>
<path d="M221.291 176.145L221.285 179.67C221.285 179.951 221.209 180.21 221.08 180.428C220.944 180.654 220.748 180.835 220.522 180.935C220.453 180.965 220.381 180.989 220.305 181.004C220.236 181.019 220.167 181.025 220.097 181.025L171.03 180.908C170.397 180.908 169.876 180.331 169.846 179.616C169.846 179.592 169.846 179.571 169.846 179.546L169.852 176.021C169.852 175.997 169.852 175.976 169.852 175.952C169.885 175.236 170.406 174.666 171.039 174.666L220.106 174.784C220.179 174.784 220.248 174.793 220.314 174.805C220.39 174.82 220.462 174.844 220.531 174.874C220.76 174.977 220.953 175.155 221.089 175.384C221.218 175.602 221.291 175.861 221.291 176.142V176.145Z" fill="#FFB92C"/>
<path d="M197.189 180.971L170.903 180.908C170.34 180.908 169.876 180.331 169.846 179.616C169.846 179.592 169.846 179.571 169.846 179.546L169.852 176.021C169.852 175.997 169.852 175.976 169.852 175.952C169.882 175.236 170.349 174.663 170.912 174.666L193.971 174.72C194.336 176.558 195.188 179.103 197.189 180.968V180.971Z" fill="#FFA400"/>
<path d="M214.771 174.773L214.755 181.015L215.313 181.016L215.329 174.775L214.771 174.773Z" fill="#FFA400"/>
<path d="M212.865 174.753L212.851 180.994L213.408 180.995L213.423 174.754L212.865 174.753Z" fill="#FFA400"/>
<path d="M210.612 174.76L210.595 181.002L211.153 181.003L211.169 174.762L210.612 174.76Z" fill="#FFA400"/>
<path d="M207.133 174.741L207.119 180.982L207.677 180.984L207.691 174.742L207.133 174.741Z" fill="#FFA400"/>
<path d="M203.464 174.732L203.45 180.974L204.008 180.975L204.022 174.733L203.464 174.732Z" fill="#FFA400"/>
<path d="M197.838 174.719L197.824 180.961L198.381 180.962L198.396 174.721L197.838 174.719Z" fill="#FFA400"/>
<path d="M192.572 174.708L192.557 180.949L193.115 180.95L193.129 174.709L192.572 174.708Z" fill="#FFA400"/>
<path d="M187.866 174.695L187.852 180.937L188.41 180.938L188.424 174.696L187.866 174.695Z" fill="#FFA400"/>
<path d="M216.55 174.762L216.535 181.004L217.093 181.005L217.107 174.764L216.55 174.762Z" fill="#FFA400"/>
<path d="M217.764 174.788L217.751 181.029L218.308 181.03L218.321 174.789L217.764 174.788Z" fill="#FFA400"/>
<path d="M218.884 174.768L218.87 181.01L219.427 181.011L219.441 174.77L218.884 174.768Z" fill="#FFA400"/>
<path d="M219.76 174.784L219.748 181.026H220.097C220.17 181.026 220.239 181.02 220.305 181.005L220.317 174.805C220.248 174.79 220.179 174.784 220.109 174.784H219.76Z" fill="#FFA400"/>
<path d="M220.534 174.878L220.522 180.935C220.751 180.836 220.944 180.658 221.08 180.428L221.089 175.388C220.953 175.159 220.76 174.981 220.531 174.878H220.534Z" fill="#FFA400"/>
<path d="M216.057 169.891L216.051 173.416C216.051 173.697 215.976 173.956 215.846 174.174C215.711 174.4 215.515 174.581 215.289 174.681C215.22 174.711 215.147 174.735 215.072 174.75C215.003 174.765 214.934 174.771 214.864 174.771L165.797 174.654C165.164 174.654 164.643 174.077 164.613 173.362C164.613 173.338 164.613 173.317 164.613 173.292L164.619 169.767C164.619 169.743 164.619 169.722 164.619 169.698C164.652 168.983 165.173 168.412 165.806 168.412L214.873 168.53C214.903 168.53 214.937 168.53 214.967 168.536C214.979 168.536 214.994 168.536 215.006 168.539C215.021 168.539 215.036 168.542 215.051 168.545C215.06 168.545 215.072 168.548 215.081 168.551C215.156 168.566 215.229 168.59 215.298 168.62C215.307 168.626 215.319 168.629 215.328 168.635C215.337 168.638 215.349 168.644 215.358 168.651C215.379 168.663 215.398 168.672 215.419 168.684C215.431 168.69 215.443 168.699 215.452 168.705C215.464 168.711 215.473 168.717 215.482 168.726C215.5 168.738 215.518 168.753 215.539 168.765C215.56 168.78 215.581 168.798 215.599 168.817C215.614 168.829 215.63 168.844 215.645 168.859C215.654 168.868 215.666 168.88 215.675 168.889C215.705 168.922 215.735 168.955 215.759 168.992C215.768 169.004 215.774 169.013 215.783 169.025C215.792 169.034 215.798 169.046 215.807 169.058C215.822 169.079 215.837 169.103 215.853 169.127C215.982 169.345 216.054 169.604 216.054 169.885L216.057 169.891Z" fill="#FFB92C"/>
<path d="M191.953 174.717L165.667 174.654C165.103 174.654 164.639 174.077 164.609 173.362C164.609 173.338 164.609 173.317 164.609 173.292L164.615 169.767C164.615 169.743 164.615 169.722 164.615 169.698C164.645 168.983 165.112 168.409 165.676 168.412L188.735 168.466C188.744 168.518 188.756 168.569 188.768 168.62C189.15 170.443 190.009 172.9 191.953 174.714V174.717Z" fill="#FFA400"/>
<path d="M209.516 168.506L209.502 174.747L210.059 174.748L210.073 168.507L209.516 168.506Z" fill="#FFA400"/>
<path d="M207.632 168.503L207.618 174.744L208.175 174.745L208.189 168.504L207.632 168.503Z" fill="#FFA400"/>
<path d="M205.367 168.497L205.353 174.738L205.91 174.74L205.924 168.498L205.367 168.497Z" fill="#FFA400"/>
<path d="M201.897 168.487L201.883 174.729L202.44 174.73L202.454 168.488L201.897 168.487Z" fill="#FFA400"/>
<path d="M198.247 168.494L198.234 174.735L198.791 174.737L198.804 168.495L198.247 168.494Z" fill="#FFA400"/>
<path d="M192.613 168.472L192.596 174.714L193.154 174.715L193.17 168.474L192.613 168.472Z" fill="#FFA400"/>
<path d="M187.338 168.451L187.324 174.692L187.881 174.694L187.896 168.452L187.338 168.451Z" fill="#FFA400"/>
<path d="M182.649 168.458L182.636 174.699L183.193 174.7L183.206 168.459L182.649 168.458Z" fill="#FFA400"/>
<path d="M211.316 168.511L211.302 174.753L211.859 174.754L211.874 168.513L211.316 168.511Z" fill="#FFA400"/>
<path d="M212.503 168.511L212.489 174.753L213.046 174.754L213.06 168.513L212.503 168.511Z" fill="#FFA400"/>
<path d="M213.647 168.514L213.633 174.756L214.191 174.757L214.205 168.516L213.647 168.514Z" fill="#FFA400"/>
<path d="M214.523 168.53L214.511 174.772H214.861C214.933 174.772 215.002 174.766 215.069 174.751L215.081 168.554C215.011 168.539 214.942 168.533 214.873 168.533H214.523V168.53Z" fill="#FFA400"/>
<path d="M215.298 168.623L215.286 174.68C215.515 174.581 215.707 174.403 215.843 174.173L215.852 169.133C215.717 168.904 215.524 168.726 215.295 168.623H215.298Z" fill="#FFA400"/>
<path d="M218.603 163.81L218.597 167.335C218.597 167.616 218.522 167.875 218.392 168.093C218.257 168.322 218.061 168.5 217.835 168.6C217.765 168.63 217.693 168.654 217.618 168.669C217.549 168.684 217.479 168.69 217.407 168.69L168.339 168.572C168.144 168.572 167.957 168.515 167.791 168.419C167.445 168.21 167.197 167.809 167.158 167.344C167.158 167.323 167.155 167.305 167.155 167.284C167.155 167.26 167.155 167.238 167.155 167.214L167.161 163.689C167.161 163.665 167.161 163.644 167.161 163.62C167.194 162.904 167.716 162.334 168.348 162.334L217.416 162.452C217.488 162.452 217.558 162.461 217.627 162.473C217.702 162.488 217.775 162.512 217.844 162.542C218.07 162.645 218.266 162.823 218.401 163.052C218.531 163.27 218.603 163.529 218.603 163.813V163.81Z" fill="#FFB92C"/>
<path d="M194.499 168.636L168.21 168.573C168.035 168.573 167.869 168.515 167.722 168.419C167.411 168.21 167.191 167.809 167.158 167.344C167.158 167.323 167.155 167.305 167.155 167.284C167.155 167.26 167.155 167.238 167.155 167.214L167.161 163.689C167.161 163.665 167.161 163.644 167.161 163.62C167.191 162.904 167.658 162.331 168.222 162.334L191.281 162.388C191.636 164.175 192.453 166.632 194.336 168.482C194.39 168.533 194.441 168.585 194.496 168.636H194.499Z" fill="#FFA400"/>
<path d="M219.79 157.571L219.784 161.096C219.784 161.377 219.709 161.636 219.579 161.853C219.444 162.083 219.248 162.261 219.022 162.36C218.952 162.391 218.88 162.415 218.805 162.43C218.735 162.445 218.666 162.451 218.597 162.451L169.529 162.333C168.897 162.333 168.375 161.757 168.345 161.042C168.345 161.017 168.345 160.996 168.345 160.972L168.351 157.447C168.351 157.423 168.351 157.402 168.351 157.378C168.381 156.717 168.83 156.176 169.4 156.101C169.445 156.095 169.493 156.092 169.541 156.092L218.609 156.21C218.681 156.21 218.751 156.219 218.817 156.231C218.892 156.246 218.964 156.27 219.034 156.3C219.26 156.403 219.456 156.581 219.591 156.81C219.721 157.027 219.793 157.287 219.793 157.568L219.79 157.571Z" fill="#FFB92C"/>
<path d="M195.686 162.397L169.397 162.333C168.833 162.333 168.369 161.757 168.339 161.042C168.339 161.017 168.339 160.996 168.339 160.972L168.345 157.447C168.345 157.423 168.345 157.402 168.345 157.378C168.372 156.717 168.773 156.176 169.282 156.101C169.322 156.095 169.364 156.092 169.409 156.092L192.468 156.146C192.468 156.146 192.468 156.152 192.468 156.155C192.835 157.993 193.688 160.528 195.683 162.394L195.686 162.397Z" fill="#FFA400"/>
<path d="M216.192 151.333L216.186 154.858C216.186 155.139 216.111 155.398 215.982 155.616C215.846 155.845 215.65 156.023 215.424 156.123C215.355 156.153 215.283 156.177 215.207 156.192C215.183 156.195 215.162 156.201 215.138 156.204C215.126 156.204 215.111 156.204 215.099 156.207C215.087 156.207 215.072 156.207 215.06 156.21C215.038 156.21 215.017 156.21 214.996 156.21L165.929 156.092C165.296 156.092 164.775 155.516 164.745 154.801C164.745 154.777 164.745 154.755 164.745 154.731L164.751 151.206C164.751 151.182 164.751 151.161 164.751 151.137C164.751 151.119 164.751 151.097 164.754 151.079C164.802 150.503 165.166 150.032 165.646 149.893C165.658 149.89 165.67 149.887 165.682 149.884C165.763 149.863 165.85 149.851 165.938 149.854L215.005 149.972C215.041 149.972 215.078 149.972 215.111 149.978C215.126 149.978 215.144 149.981 215.159 149.984C215.177 149.984 215.195 149.99 215.213 149.996C215.289 150.011 215.361 150.035 215.43 150.065C215.656 150.168 215.852 150.346 215.988 150.575C216.117 150.793 216.189 151.052 216.189 151.333H216.192Z" fill="#FFB92C"/>
<path d="M192.091 156.155L165.802 156.092C165.239 156.092 164.775 155.516 164.745 154.8C164.745 154.776 164.745 154.755 164.745 154.731L164.751 151.206C164.751 151.182 164.751 151.16 164.751 151.136C164.751 151.118 164.751 151.097 164.754 151.079C164.799 150.49 165.136 150.011 165.579 149.884C165.594 149.878 165.609 149.875 165.624 149.872C165.685 149.857 165.748 149.851 165.811 149.851L188.87 149.905C188.87 149.905 188.876 149.935 188.879 149.95C189.247 151.782 190.102 154.293 192.076 156.146C192.079 156.146 192.082 156.152 192.085 156.155H192.091Z" fill="#FFA400"/>
<path d="M216.102 145.133L216.096 148.658C216.096 148.939 216.021 149.199 215.891 149.416C215.756 149.645 215.56 149.823 215.334 149.923C215.28 149.947 215.222 149.968 215.165 149.98C215.15 149.983 215.135 149.989 215.12 149.992C215.051 150.007 214.981 150.014 214.912 150.014L165.845 149.896C165.793 149.896 165.742 149.893 165.691 149.884C165.67 149.884 165.652 149.878 165.634 149.872C165.1 149.76 164.691 149.238 164.66 148.604C164.66 148.58 164.66 148.559 164.66 148.535L164.666 145.009C164.666 144.985 164.666 144.964 164.666 144.94C164.7 144.225 165.221 143.651 165.854 143.654L214.921 143.772C214.951 143.772 214.984 143.772 215.015 143.778C215.027 143.778 215.042 143.781 215.054 143.784C215.069 143.784 215.084 143.787 215.099 143.79C215.108 143.79 215.12 143.793 215.129 143.796C215.204 143.811 215.277 143.835 215.346 143.866C215.355 143.872 215.367 143.875 215.376 143.881C215.385 143.884 215.397 143.89 215.406 143.896C215.427 143.908 215.445 143.917 215.466 143.929C215.488 143.941 215.509 143.956 215.53 143.971C215.548 143.983 215.566 143.998 215.587 144.01C215.608 144.026 215.629 144.044 215.647 144.062C215.662 144.074 215.677 144.089 215.692 144.104C215.701 144.113 215.714 144.125 215.723 144.134C215.753 144.167 215.78 144.201 215.807 144.237C215.816 144.246 215.822 144.258 215.831 144.267C215.84 144.279 215.846 144.288 215.855 144.3C215.87 144.321 215.885 144.345 215.9 144.37C216.03 144.587 216.102 144.846 216.102 145.127V145.133Z" fill="#FFB92C"/>
<path d="M191.998 149.959L165.709 149.896C165.688 149.896 165.667 149.896 165.646 149.896C165.621 149.896 165.6 149.89 165.579 149.887C165.073 149.805 164.678 149.265 164.654 148.607C164.654 148.583 164.654 148.562 164.654 148.538L164.66 145.012C164.66 144.988 164.66 144.967 164.66 144.943C164.69 144.228 165.157 143.654 165.721 143.657L188.78 143.712C188.789 143.763 188.801 143.814 188.813 143.865C189.193 145.673 190.042 148.103 191.953 149.917C191.968 149.932 191.983 149.947 192.001 149.962L191.998 149.959Z" fill="#FFA400"/>
<path d="M218.648 139.052L218.642 142.577C218.642 142.858 218.567 143.117 218.437 143.335C218.302 143.561 218.106 143.742 217.88 143.842C217.811 143.872 217.738 143.896 217.663 143.911C217.594 143.926 217.524 143.932 217.455 143.932L168.387 143.815C168.192 143.815 168.005 143.757 167.839 143.661C167.493 143.453 167.246 143.051 167.206 142.586C167.206 142.565 167.203 142.547 167.203 142.526C167.203 142.502 167.203 142.481 167.203 142.457L167.209 138.931C167.209 138.907 167.209 138.886 167.209 138.862C167.243 138.147 167.764 137.573 168.397 137.576L217.464 137.694C217.536 137.694 217.606 137.703 217.675 137.715C217.75 137.73 217.823 137.754 217.892 137.784C218.118 137.887 218.314 138.065 218.449 138.295C218.579 138.512 218.651 138.771 218.651 139.052H218.648Z" fill="#FFB92C"/>
<path d="M194.544 143.878L168.255 143.815C168.08 143.815 167.915 143.757 167.767 143.658C167.457 143.45 167.237 143.048 167.203 142.583C167.203 142.562 167.2 142.544 167.2 142.523C167.2 142.499 167.2 142.478 167.2 142.454L167.206 138.928C167.206 138.904 167.206 138.883 167.206 138.859C167.237 138.144 167.704 137.57 168.267 137.573L191.326 137.628C191.681 139.414 192.498 141.871 194.381 143.721C194.435 143.773 194.487 143.824 194.544 143.875V143.878Z" fill="#FFA400"/>
<path d="M222.671 132.823L222.664 136.348C222.664 136.629 222.589 136.888 222.46 137.105C222.324 137.332 222.128 137.513 221.902 137.612C221.833 137.643 221.761 137.667 221.685 137.682C221.616 137.697 221.547 137.703 221.474 137.703L172.407 137.585C171.774 137.585 171.253 137.009 171.223 136.294C171.223 136.269 171.223 136.248 171.223 136.224L171.229 132.699C171.229 132.675 171.229 132.654 171.229 132.629C171.259 131.969 171.708 131.428 172.277 131.353C172.322 131.347 172.371 131.344 172.419 131.344L221.486 131.461C221.559 131.461 221.628 131.471 221.694 131.483C221.77 131.498 221.842 131.522 221.911 131.552C222.14 131.655 222.333 131.833 222.469 132.062C222.598 132.279 222.671 132.539 222.671 132.82V132.823Z" fill="#FFB92C"/>
<path d="M198.566 137.646L172.277 137.582C171.714 137.582 171.25 137.006 171.22 136.291C171.22 136.266 171.22 136.245 171.22 136.221L171.226 132.696C171.226 132.672 171.226 132.651 171.226 132.627C171.253 131.966 171.654 131.425 172.163 131.35C172.205 131.344 172.244 131.341 172.289 131.341L195.348 131.395C195.348 131.395 195.348 131.401 195.348 131.404C195.713 133.242 196.569 135.777 198.563 137.643L198.566 137.646Z" fill="#FFA400"/>
<path d="M216.238 126.575L216.232 130.1C216.232 130.381 216.156 130.64 216.027 130.857C215.891 131.084 215.695 131.265 215.469 131.364C215.4 131.395 215.328 131.419 215.253 131.434C215.228 131.437 215.207 131.443 215.183 131.446C215.165 131.449 215.147 131.449 215.129 131.452C215.12 131.452 215.111 131.452 215.102 131.452C215.084 131.452 215.063 131.452 215.045 131.452L165.977 131.334C165.344 131.334 164.823 130.758 164.793 130.043C164.793 130.018 164.793 129.997 164.793 129.973L164.799 126.448C164.799 126.424 164.799 126.403 164.799 126.379C164.832 125.663 165.353 125.093 165.986 125.093L215.054 125.21C215.075 125.21 215.096 125.21 215.117 125.21C215.168 125.213 215.216 125.22 215.265 125.232C215.34 125.247 215.412 125.271 215.482 125.301C215.518 125.316 215.551 125.334 215.584 125.352C215.605 125.364 215.626 125.376 215.644 125.392C215.644 125.392 215.65 125.392 215.65 125.395C215.671 125.41 215.689 125.422 215.711 125.437C215.714 125.437 215.717 125.443 215.72 125.443C215.738 125.455 215.756 125.473 215.774 125.488C215.816 125.524 215.855 125.564 215.891 125.606C215.903 125.618 215.915 125.633 215.924 125.645C215.924 125.645 215.927 125.648 215.93 125.651C215.937 125.66 215.946 125.666 215.952 125.678C215.952 125.678 215.952 125.681 215.955 125.684C215.967 125.699 215.979 125.718 215.991 125.733C216.006 125.757 216.024 125.781 216.039 125.805C216.169 126.022 216.241 126.282 216.241 126.563L216.238 126.575Z" fill="#FFB92C"/>
<path d="M192.136 131.401L165.847 131.337C165.284 131.337 164.82 130.761 164.79 130.045C164.79 130.021 164.79 130 164.79 129.976L164.796 126.451C164.796 126.427 164.796 126.406 164.796 126.381C164.826 125.666 165.293 125.093 165.856 125.096L188.915 125.15C188.924 125.198 188.933 125.247 188.945 125.295C189.325 127.118 190.184 129.572 192.121 131.389C192.124 131.389 192.127 131.395 192.13 131.398L192.136 131.401Z" fill="#FFA400"/>
<path d="M219.856 120.487L219.85 124.012C219.85 124.292 219.775 124.552 219.646 124.769C219.51 124.996 219.314 125.177 219.088 125.276C219.019 125.307 218.947 125.331 218.871 125.346C218.802 125.361 218.733 125.367 218.66 125.367L169.593 125.249C169.403 125.249 169.222 125.198 169.062 125.104C168.704 124.899 168.451 124.489 168.412 124.015C168.412 123.997 168.412 123.979 168.412 123.96C168.412 123.936 168.412 123.915 168.412 123.891L168.418 120.366C168.418 120.342 168.418 120.321 168.418 120.296C168.448 119.635 168.897 119.095 169.466 119.02C169.511 119.014 169.56 119.011 169.608 119.011L218.675 119.128C218.748 119.128 218.817 119.138 218.883 119.15C218.959 119.165 219.031 119.189 219.1 119.219C219.326 119.322 219.522 119.5 219.658 119.729C219.787 119.946 219.859 120.206 219.859 120.487H219.856Z" fill="#FFB92C"/>
<path d="M195.755 125.31L169.466 125.246C169.297 125.246 169.135 125.195 168.993 125.101C168.674 124.896 168.448 124.489 168.412 124.012C168.412 123.994 168.412 123.976 168.412 123.958C168.412 123.933 168.412 123.912 168.412 123.888L168.418 120.363C168.418 120.339 168.418 120.318 168.418 120.294C168.445 119.633 168.846 119.092 169.355 119.017C169.394 119.011 169.436 119.008 169.481 119.008L192.54 119.062C192.54 119.062 192.54 119.068 192.54 119.071C192.896 120.861 193.718 123.318 195.604 125.165C195.653 125.213 195.704 125.261 195.755 125.31Z" fill="#FFA400"/>
<path d="M216.262 114.246L216.256 117.771C216.256 118.051 216.18 118.311 216.051 118.528C215.915 118.758 215.719 118.936 215.493 119.035C215.424 119.066 215.352 119.09 215.277 119.105C215.252 119.108 215.231 119.114 215.207 119.117C215.195 119.117 215.183 119.117 215.168 119.12C215.156 119.12 215.144 119.12 215.129 119.123C215.108 119.123 215.087 119.123 215.066 119.123L165.998 119.005C165.365 119.005 164.844 118.429 164.814 117.713C164.814 117.689 164.814 117.668 164.814 117.644L164.82 114.119C164.82 114.095 164.82 114.074 164.82 114.049C164.853 113.334 165.374 112.764 166.007 112.764L215.075 112.881C215.147 112.881 215.216 112.89 215.283 112.903C215.358 112.918 215.43 112.942 215.5 112.972C215.725 113.075 215.921 113.253 216.057 113.482C216.186 113.699 216.259 113.959 216.259 114.24L216.262 114.246Z" fill="#FFB92C"/>
<path d="M192.157 119.071L165.869 119.008C165.305 119.008 164.841 118.432 164.811 117.716C164.811 117.692 164.811 117.671 164.811 117.647L164.817 114.122C164.817 114.098 164.817 114.076 164.817 114.052C164.847 113.337 165.314 112.767 165.878 112.767L188.937 112.821C189.301 114.656 190.151 117.194 192.142 119.059C192.145 119.059 192.148 119.065 192.154 119.068L192.157 119.071Z" fill="#FFA400"/>
<path d="M212.065 162.425L212.051 168.667L212.608 168.668L212.623 162.427L212.065 162.425Z" fill="#FFA400"/>
<path d="M210.195 162.436L210.182 168.678L210.739 168.679L210.752 162.437L210.195 162.436Z" fill="#FFA400"/>
<path d="M207.913 162.417L207.899 168.658L208.456 168.659L208.47 162.418L207.913 162.417Z" fill="#FFA400"/>
<path d="M204.446 162.408L204.432 168.649L204.989 168.651L205.003 162.409L204.446 162.408Z" fill="#FFA400"/>
<path d="M200.777 162.398L200.762 168.64L201.32 168.641L201.334 162.399L200.777 162.398Z" fill="#FFA400"/>
<path d="M195.165 162.396L195.149 168.638L195.707 168.639L195.723 162.398L195.165 162.396Z" fill="#FFA400"/>
<path d="M189.901 162.387L189.888 168.629L190.446 168.63L190.459 162.389L189.901 162.387Z" fill="#FFA400"/>
<path d="M185.179 162.359L185.165 168.601L185.722 168.602L185.736 162.36L185.179 162.359Z" fill="#FFA400"/>
<path d="M213.862 162.428L213.848 168.67L214.405 168.671L214.419 162.43L213.862 162.428Z" fill="#FFA400"/>
<path d="M215.074 162.454L215.061 168.695L215.618 168.696L215.631 162.455L215.074 162.454Z" fill="#FFA400"/>
<path d="M216.193 162.435L216.179 168.677L216.737 168.678L216.751 162.437L216.193 162.435Z" fill="#FFA400"/>
<path d="M217.069 162.448L217.057 168.69H217.407C217.479 168.69 217.548 168.684 217.615 168.669L217.627 162.469C217.558 162.454 217.488 162.448 217.419 162.448H217.069Z" fill="#FFA400"/>
<path d="M217.844 162.542L217.832 168.599C218.061 168.5 218.254 168.322 218.389 168.092L218.398 163.052C218.263 162.823 218.07 162.645 217.841 162.542H217.844Z" fill="#FFA400"/>
<path d="M196.334 156.146L196.32 162.388L196.878 162.389L196.892 156.147L196.334 156.146Z" fill="#FFA400"/>
<path d="M191.071 156.134L191.057 162.375L191.614 162.376L191.628 156.135L191.071 156.134Z" fill="#FFA400"/>
<path d="M186.366 156.122L186.352 162.363L186.909 162.365L186.923 156.123L186.366 156.122Z" fill="#FFA400"/>
<path d="M215.608 162.445L215.62 156.204H215.132C215.159 156.198 215.183 156.195 215.21 156.192L215.222 149.992C215.189 149.986 215.153 149.98 215.12 149.977L215.132 143.929H215.349L215.337 149.926C215.566 149.826 215.759 149.645 215.894 149.419L215.903 144.379C215.792 144.188 215.638 144.038 215.46 143.932H215.656L215.668 137.69H215.111L215.099 143.793C215.042 143.784 214.981 143.775 214.921 143.775H214.572L214.56 150.017H214.662L214.65 156.213H214.999C215.021 156.213 215.042 156.213 215.063 156.213L215.051 162.448H215.608V162.445Z" fill="#FFA400"/>
<path d="M216.236 156.194L216.221 162.436L216.779 162.437L216.793 156.195L216.236 156.194Z" fill="#FFA400"/>
<path d="M217.394 156.202L217.377 162.443L217.935 162.445L217.951 156.203L217.394 156.202Z" fill="#FFA400"/>
<path d="M218.257 156.21L218.245 162.451H218.594C218.666 162.451 218.736 162.445 218.802 162.43L218.814 156.234C218.745 156.219 218.675 156.213 218.606 156.213H218.257V156.21Z" fill="#FFA400"/>
<path d="M219.031 156.304L219.019 162.361C219.248 162.262 219.441 162.083 219.576 161.854L219.585 156.814C219.45 156.584 219.257 156.406 219.028 156.304H219.031Z" fill="#FFA400"/>
<path d="M210.215 156.202L210.227 149.96H210.121L210.133 143.764L209.576 143.761L209.564 150.002H209.666L209.657 156.189H209.112L209.1 162.431H209.66L209.669 156.199L210.215 156.202Z" fill="#FFA400"/>
<path d="M206.075 149.95L205.972 149.947L205.981 143.751H205.424L205.412 149.992H205.517L205.505 156.189H205.644L205.632 162.421H206.189L206.201 156.18H206.063L206.075 149.95Z" fill="#FFA400"/>
<path d="M215.436 150.062L215.424 156.12C215.653 156.02 215.846 155.839 215.982 155.613L215.991 150.573C215.855 150.343 215.662 150.165 215.433 150.062H215.436Z" fill="#FFA400"/>
<path d="M202.513 143.745L201.956 143.742L201.944 149.984H202.046L202.034 156.171H201.974L201.962 162.412H202.519L202.531 156.183H202.592L202.604 149.941H202.501L202.513 143.745Z" fill="#FFA400"/>
<path d="M198.843 143.736L198.286 143.733L198.274 149.975H198.376L198.367 156.171L198.925 156.174L198.934 149.933H198.831L198.843 143.736Z" fill="#FFA400"/>
<path d="M193.218 143.721H192.661L192.649 149.962H192.751L192.742 156.158H193.299L193.309 149.917H193.206L193.218 143.721Z" fill="#FFA400"/>
<path d="M187.951 143.709H187.394L187.382 149.951H187.484L187.475 156.147H188.033L188.042 149.905H187.939L187.951 143.709Z" fill="#FFA400"/>
<path d="M183.248 143.697H182.691L182.678 149.939H182.781L182.772 156.135L183.329 156.138L183.341 149.897H183.236L183.248 143.697Z" fill="#FFA400"/>
<path d="M211.932 143.767H211.372L211.363 150.005L211.465 150.008L211.453 156.192H211.375L211.366 162.434L211.923 162.437L211.935 156.204H212.011L212.023 149.963H211.92L211.932 143.767Z" fill="#FFA400"/>
<path d="M213.116 143.769H212.67L212.679 137.682L212.122 137.679L212.11 143.92L212.559 143.923L212.55 150.008L212.652 150.011L212.64 156.207H213.198L213.21 149.966H213.107L213.116 143.769Z" fill="#FFA400"/>
<path d="M210.251 137.688L210.236 143.93L210.793 143.931L210.809 137.69L210.251 137.688Z" fill="#FFA400"/>
<path d="M207.961 143.758H207.687L207.678 149.999H207.78L207.768 156.195H208.326L208.338 149.954H208.235L208.244 143.911H208.518L208.527 137.67H207.97L207.961 143.758Z" fill="#FFA400"/>
<path d="M204.5 137.661L204.484 143.902L205.042 143.904L205.058 137.662L204.5 137.661Z" fill="#FFA400"/>
<path d="M200.83 137.649L200.814 143.891L201.371 143.892L201.387 137.651L200.83 137.649Z" fill="#FFA400"/>
<path d="M195.224 137.648L195.209 143.89L195.767 143.891L195.782 137.65L195.224 137.648Z" fill="#FFA400"/>
<path d="M189.95 137.633L189.937 143.874L190.494 143.875L190.507 137.634L189.95 137.633Z" fill="#FFA400"/>
<path d="M185.254 137.628L185.239 143.869L185.796 143.871L185.812 137.629L185.254 137.628Z" fill="#FFA400"/>
<path d="M213.909 143.772L213.707 143.769L213.695 150.011H213.797L213.788 156.198H213.264L213.252 162.439H213.809L213.821 156.21H214.346L214.355 149.968H214.252L214.264 143.926H214.466L214.478 137.685H213.921L213.909 143.772Z" fill="#FFA400"/>
<path d="M216.239 137.678L216.225 143.92L216.782 143.921L216.796 137.68L216.239 137.678Z" fill="#FFA400"/>
<path d="M217.66 143.912L217.672 137.715C217.603 137.7 217.533 137.694 217.464 137.694H217.115L217.103 143.936H217.452C217.524 143.936 217.594 143.93 217.66 143.915V143.912Z" fill="#FFA400"/>
<path d="M218.437 143.335L218.446 138.294C218.311 138.065 218.118 137.887 217.889 137.784L217.877 143.842C218.106 143.742 218.299 143.564 218.434 143.335H218.437Z" fill="#FFA400"/>
<path d="M216.13 131.441L216.116 137.683L216.673 137.684L216.687 131.442L216.13 131.441Z" fill="#FFA400"/>
<path d="M208.511 131.42L208.497 137.661L209.054 137.662L209.068 131.421L208.511 131.42Z" fill="#FFA400"/>
<path d="M204.842 131.414L204.827 137.655L205.385 137.657L205.399 131.415L204.842 131.414Z" fill="#FFA400"/>
<path d="M199.245 131.419L199.229 137.66L199.787 137.662L199.802 131.42L199.245 131.419Z" fill="#FFA400"/>
<path d="M193.952 131.386L193.938 137.628L194.495 137.629L194.509 131.388L193.952 131.386Z" fill="#FFA400"/>
<path d="M189.265 131.389L189.251 137.631L189.809 137.632L189.822 131.391L189.265 131.389Z" fill="#FFA400"/>
<path d="M217.927 131.441L217.913 137.683L218.47 137.684L218.484 131.442L217.927 131.441Z" fill="#FFA400"/>
<path d="M219.114 131.444L219.1 137.686L219.657 137.687L219.671 131.445L219.114 131.444Z" fill="#FFA400"/>
<path d="M220.258 131.45L220.244 137.691L220.802 137.693L220.816 131.451L220.258 131.45Z" fill="#FFA400"/>
<path d="M221.137 131.458L221.125 137.7H221.475C221.547 137.7 221.616 137.693 221.685 137.678L221.697 131.479C221.628 131.464 221.559 131.458 221.49 131.458H221.14H221.137Z" fill="#FFA400"/>
<path d="M221.911 131.552L221.899 137.609C222.128 137.51 222.321 137.328 222.457 137.102L222.466 132.062C222.33 131.832 222.137 131.654 221.908 131.552H221.911Z" fill="#FFA400"/>
<path d="M209.702 131.444H210.26L210.272 125.202H209.727L209.739 119.115H210.281L210.293 112.873H209.736L209.724 119.102H209.181L209.169 125.344H209.712L209.702 131.444Z" fill="#FFA400"/>
<path d="M207.823 125.194L207.807 131.436L208.365 131.437L208.381 125.196L207.823 125.194Z" fill="#FFA400"/>
<path d="M198.409 125.164L198.395 131.405L198.952 131.407L198.967 125.165L198.409 125.164Z" fill="#FFA400"/>
<path d="M192.797 125.157L192.781 131.398L193.338 131.4L193.355 125.158L192.797 125.157Z" fill="#FFA400"/>
<path d="M187.52 125.139L187.505 131.381L188.063 131.382L188.077 125.141L187.52 125.139Z" fill="#FFA400"/>
<path d="M182.817 125.128L182.803 131.369L183.361 131.37L183.375 125.129L182.817 125.128Z" fill="#FFA400"/>
<path d="M211.498 131.447H211.993L211.981 137.679L212.538 137.682L212.55 131.441L212.056 131.438L212.068 125.208H211.99L212.002 119.121H212.08L212.089 112.879L211.532 112.876L211.52 119.108H211.444L211.432 125.35H211.51L211.498 131.447Z" fill="#FFA400"/>
<path d="M212.717 125.218L212.705 131.46L213.263 131.461L213.275 125.22L212.717 125.218Z" fill="#FFA400"/>
<path d="M215.575 125.359H215.674L215.687 119.117H215.198C215.226 119.111 215.25 119.108 215.277 119.105L215.289 112.906C215.22 112.891 215.15 112.885 215.081 112.885H214.731L214.719 119.126H215.069C215.09 119.126 215.111 119.126 215.132 119.126L215.12 125.22C215.099 125.22 215.078 125.217 215.057 125.217H214.707L214.695 131.449H214.391L214.403 125.217H213.879L213.891 119.129H214.415L214.427 112.891H213.87L213.858 119.12H213.333L213.321 125.359H213.846L213.834 131.458H214.258L214.246 137.691H214.804L214.816 131.461H215.045C215.117 131.461 215.186 131.455 215.256 131.44L215.268 125.365H215.485L215.473 131.371C215.702 131.271 215.894 131.09 216.03 130.864L216.039 125.824C215.925 125.627 215.765 125.473 215.578 125.368L215.575 125.359Z" fill="#FFA400"/>
<path d="M196.404 119.062L196.39 125.304L196.947 125.305L196.961 119.063L196.404 119.062Z" fill="#FFA400"/>
<path d="M191.134 119.05L191.12 125.292L191.678 125.293L191.692 119.052L191.134 119.05Z" fill="#FFA400"/>
<path d="M186.435 119.041L186.421 125.282L186.979 125.283L186.993 119.042L186.435 119.041Z" fill="#FFA400"/>
<path d="M216.302 119.111L216.288 125.353L216.846 125.354L216.86 119.112L216.302 119.111Z" fill="#FFA400"/>
<path d="M217.447 119.114L217.433 125.355L217.99 125.357L218.004 119.115L217.447 119.114Z" fill="#FFA400"/>
<path d="M218.323 119.123L218.311 125.365H218.66C218.733 125.365 218.802 125.359 218.868 125.343L218.88 119.147C218.811 119.132 218.742 119.126 218.672 119.126H218.323V119.123Z" fill="#FFA400"/>
<path d="M219.646 124.767L219.655 119.727C219.519 119.497 219.326 119.319 219.097 119.217L219.085 125.274C219.314 125.175 219.507 124.997 219.643 124.767H219.646Z" fill="#FFA400"/>
<path d="M207.834 112.861L207.82 119.103L208.378 119.104L208.392 112.862L207.834 112.861Z" fill="#FFA400"/>
<path d="M206.141 112.863H205.584L205.572 119.102L205.71 119.105L205.698 125.189H205.563L205.551 131.431L206.108 131.434L206.12 125.337H206.256L206.268 119.096H206.129L206.141 112.863Z" fill="#FFA400"/>
<path d="M202.104 119.084H202.04L202.028 125.325H202.092L202.08 131.425H202.637L202.649 125.184H202.589L202.598 119.096H202.661L202.67 112.854H202.113L202.104 119.084Z" fill="#FFA400"/>
<path d="M198.433 112.837L198.419 119.078L198.977 119.079L198.991 112.838L198.433 112.837Z" fill="#FFA400"/>
<path d="M192.807 112.825L192.793 119.066L193.351 119.068L193.365 112.826L192.807 112.825Z" fill="#FFA400"/>
<path d="M187.553 112.817L187.537 119.059L188.094 119.06L188.11 112.819L187.553 112.817Z" fill="#FFA400"/>
<path d="M182.86 112.813L182.847 119.055L183.405 119.056L183.418 112.814L182.86 112.813Z" fill="#FFA400"/>
<path d="M212.717 112.878L212.701 119.119L213.259 119.121L213.275 112.879L212.717 112.878Z" fill="#FFA400"/>
<path d="M215.503 112.979L215.491 119.036C215.72 118.936 215.913 118.758 216.048 118.529L216.057 113.489C215.922 113.259 215.729 113.081 215.5 112.979H215.503Z" fill="#FFA400"/>
<path d="M231.851 129.617L235.316 130.233C235.594 130.281 235.835 130.402 236.024 130.565C236.226 130.737 236.368 130.96 236.428 131.201C236.446 131.277 236.458 131.352 236.458 131.428C236.458 131.497 236.458 131.567 236.443 131.639L227.835 180.029C227.723 180.654 227.07 181.067 226.362 180.974C226.337 180.971 226.316 180.968 226.292 180.961L222.827 180.346C222.803 180.343 222.782 180.337 222.758 180.334C222.062 180.177 221.589 179.564 221.7 178.939L230.309 130.549C230.315 130.519 230.321 130.489 230.33 130.459C230.333 130.447 230.336 130.432 230.342 130.42C230.345 130.405 230.351 130.393 230.357 130.377C230.36 130.368 230.363 130.356 230.369 130.347C230.396 130.275 230.432 130.208 230.474 130.145C230.48 130.136 230.486 130.127 230.492 130.118C230.498 130.109 230.504 130.1 230.514 130.091C230.529 130.073 230.541 130.054 230.556 130.036C230.565 130.027 230.574 130.015 230.583 130.006C230.592 129.997 230.598 129.988 230.607 129.979C230.622 129.961 230.64 129.946 230.655 129.931C230.676 129.913 230.694 129.895 230.715 129.879C230.73 129.867 230.749 129.852 230.767 129.84C230.767 129.84 230.767 129.84 230.77 129.84C230.782 129.831 230.794 129.825 230.806 129.816C230.842 129.792 230.881 129.768 230.92 129.75C230.932 129.744 230.944 129.738 230.956 129.732C230.969 129.725 230.981 129.719 230.993 129.713C231.017 129.701 231.044 129.692 231.068 129.683C231.303 129.596 231.574 129.566 231.848 129.617H231.851Z" fill="#FFB92C"/>
<path d="M232.424 154.233L227.814 180.155C227.714 180.714 227.07 181.07 226.362 180.973C226.338 180.97 226.316 180.967 226.292 180.961L222.827 180.345C222.803 180.342 222.782 180.336 222.758 180.333C222.059 180.179 221.577 179.621 221.676 179.063L225.72 156.324C225.771 156.324 225.825 156.324 225.877 156.318C227.736 156.258 230.3 155.832 232.421 154.229L232.424 154.233Z" fill="#FFA400"/>
<path d="M229.485 135.277L229.387 135.826L235.521 136.924L235.619 136.374L229.485 135.277Z" fill="#FFA400"/>
<path d="M229.136 137.122L229.039 137.672L235.173 138.768L235.271 138.218L229.136 137.122Z" fill="#FFA400"/>
<path d="M228.732 139.351L228.634 139.9L234.769 140.994L234.866 140.444L228.732 139.351Z" fill="#FFA400"/>
<path d="M228.134 142.783L228.036 143.333L234.17 144.429L234.268 143.879L228.134 142.783Z" fill="#FFA400"/>
<path d="M227.498 146.413L227.401 146.963L233.535 148.057L233.633 147.508L227.498 146.413Z" fill="#FFA400"/>
<path d="M226.488 151.934L226.39 152.483L232.525 153.579L232.622 153.029L226.488 151.934Z" fill="#FFA400"/>
<path d="M225.587 157.151L225.49 157.701L231.625 158.794L231.722 158.244L225.587 157.151Z" fill="#FFA400"/>
<path d="M224.743 161.771L224.645 162.32L230.779 163.417L230.877 162.867L224.743 161.771Z" fill="#FFA400"/>
<path d="M229.788 133.497L229.69 134.047L235.824 135.143L235.922 134.593L229.788 133.497Z" fill="#FFA400"/>
<path d="M229.978 132.313L229.881 132.862L236.015 133.956L236.113 133.406L229.978 132.313Z" fill="#FFA400"/>
<path d="M230.194 131.195L230.096 131.745L236.23 132.841L236.328 132.291L230.194 131.195Z" fill="#FFA400"/>
<path d="M230.245 130.894L236.38 131.987L236.44 131.642C236.452 131.573 236.458 131.501 236.455 131.431L230.363 130.348C230.336 130.414 230.318 130.48 230.306 130.55L230.245 130.894Z" fill="#FFA400"/>
<path d="M230.471 130.145L236.425 131.205C236.365 130.963 236.223 130.74 236.025 130.565L231.068 129.684C230.821 129.777 230.61 129.937 230.471 130.145Z" fill="#FFA400"/>
<path d="M348.797 180.968H327.712C326.582 180.008 328.495 177.829 330.49 177.681C331.357 177.615 332.454 177.796 333.707 178.061C333.997 174.201 335.654 156.847 341.9 157.544C348.923 158.326 341.9 165.186 339.914 169.248C338.444 172.257 336.892 176.573 336.184 178.607C336.754 178.731 337.344 178.852 337.947 178.964C338.878 176.102 342.34 166.472 346.745 167.033C351.915 167.691 349.836 171.551 346.172 173.842C343.485 175.526 340.183 177.922 338.613 179.078C339.941 179.296 341.327 179.444 342.738 179.41C346.35 179.326 348.113 180.391 348.797 180.965V180.968Z" fill="#67B375"/>
<path d="M73.8618 180.268C73.0242 178.949 70.5053 175.529 67.1457 175.982C63.4879 176.474 71.1862 178.891 73.5424 180.277C73.0182 180.283 72.5692 180.243 72.2378 180.123C70.662 179.561 67.9653 180.639 67.1005 181.016H82.0995C81.9971 180.657 81.7259 180.068 81.0269 179.643C80.7798 179.492 80.2857 179.471 79.6469 179.519C80.5388 178.466 81.1564 175.104 78.6767 175.967C76.8628 176.601 76.8689 178.656 77.0466 179.869C76.661 179.93 76.2693 179.99 75.8836 180.047C75.1364 176.235 72.4969 165.062 67.1427 164.766C61.7162 164.465 71.7437 176.353 75.0821 180.156C74.6543 180.207 74.2415 180.246 73.8618 180.265V180.268Z" fill="#67B375"/>
<path d="M222.577 85.3806C231.011 76.932 231.011 63.2341 222.577 54.7854C214.142 46.3368 200.468 46.3368 192.033 54.7854C183.599 63.2341 183.599 76.932 192.033 85.3806C200.468 93.8292 214.142 93.8292 222.577 85.3806Z" fill="#FC8100"/>
<path d="M224.569 60.5474C218.811 50.0835 205.674 46.2777 195.228 52.0453C184.781 57.813 180.982 70.9721 186.74 81.436C192.498 91.8999 205.635 95.7058 216.081 89.9381C226.527 84.1704 230.327 71.0113 224.569 60.5474Z" fill="#FFB92C"/>
<path d="M205.812 90.9243C198.867 90.9243 192.127 87.2421 188.545 80.732C186.008 76.1203 185.414 70.7963 186.875 65.7379C188.337 60.6795 191.675 56.4963 196.279 53.952C200.883 51.4107 206.198 50.8162 211.248 52.28C216.298 53.7438 220.474 57.0879 223.014 61.6996C228.251 71.2188 224.783 83.231 215.279 88.4765C212.275 90.1365 209.021 90.9212 205.812 90.9212V90.9243ZM205.752 52.6723C202.67 52.6723 199.621 53.451 196.846 54.9842C192.516 57.3746 189.376 61.3102 188.002 66.0668C186.628 70.8234 187.186 75.8305 189.572 80.1646C192.941 86.2854 199.28 89.7472 205.809 89.7502C208.828 89.7502 211.887 89.0108 214.71 87.4504C223.647 82.5157 226.907 71.2218 221.98 62.27C219.594 57.9329 215.665 54.788 210.916 53.4118C209.211 52.9168 207.476 52.6723 205.749 52.6723H205.752Z" fill="#FFA400"/>
<path d="M210.908 74.916C210.748 74.5207 210.549 74.1917 210.314 73.9351C210.079 73.6786 209.787 73.4794 209.434 73.3376C209.082 73.1957 208.663 73.1021 208.178 73.0569C207.693 73.0116 207.12 73.0086 206.463 73.0448C205.327 73.0991 204.276 73.1021 203.309 73.0478C202.341 72.9965 201.468 72.8365 200.687 72.5709C199.907 72.3053 199.22 71.9039 198.629 71.3637C198.039 70.8234 197.554 70.09 197.18 69.1635C196.855 68.3606 196.701 67.5699 196.716 66.7942C196.731 66.0186 196.906 65.2761 197.234 64.5699C197.563 63.8636 198.033 63.2087 198.644 62.602C199.256 61.9954 200 61.4642 200.88 61.0084L199.651 57.9782L202.085 56.9883L203.333 60.0607C204.252 59.8193 205.138 59.7288 205.99 59.7891C206.843 59.8495 207.629 60.0577 208.352 60.4109C209.076 60.767 209.726 61.268 210.302 61.9199C210.877 62.5718 211.36 63.3686 211.742 64.3133L207.343 66.1031C206.885 64.9713 206.289 64.2258 205.559 63.8666C204.83 63.5105 204.044 63.5014 203.2 63.8455C202.742 64.0326 202.375 64.256 202.097 64.5155C201.82 64.7781 201.618 65.0618 201.495 65.3697C201.371 65.6775 201.32 66.0035 201.341 66.3475C201.362 66.6916 201.444 67.0387 201.585 67.3858C201.727 67.7359 201.905 68.0317 202.122 68.2731C202.338 68.5146 202.619 68.7047 202.965 68.8466C203.312 68.9854 203.733 69.079 204.231 69.1242C204.728 69.1695 205.327 69.1816 206.026 69.1604C207.159 69.1272 208.208 69.1423 209.172 69.1997C210.136 69.26 211.01 69.423 211.793 69.6916C212.577 69.9603 213.264 70.3677 213.854 70.908C214.445 71.4482 214.927 72.1756 215.298 73.0931C215.635 73.9231 215.792 74.7289 215.771 75.5076C215.75 76.2863 215.572 77.0227 215.24 77.7199C214.909 78.4171 214.427 79.063 213.8 79.6575C213.173 80.2551 212.42 80.7803 211.54 81.236L212.682 84.055L210.263 85.0389L209.127 82.235C208.25 82.4916 207.361 82.6395 206.46 82.6757C205.559 82.7119 204.695 82.5882 203.869 82.3014C203.044 82.0147 202.284 81.5409 201.588 80.8769C200.892 80.2129 200.317 79.3165 199.859 78.1817L204.258 76.3919C204.529 77.0619 204.851 77.5841 205.219 77.9553C205.59 78.3265 205.984 78.5831 206.409 78.7249C206.834 78.8668 207.268 78.909 207.711 78.8547C208.157 78.8004 208.584 78.6887 209.003 78.5197C209.479 78.3265 209.874 78.0941 210.184 77.8255C210.495 77.5569 210.727 77.2642 210.883 76.9473C211.04 76.6303 211.118 76.2983 211.118 75.9513C211.118 75.6042 211.049 75.2571 210.908 74.907V74.916Z" fill="#FFA400"/>
<path d="M227.148 58.4376C226.244 57.7978 224.195 56.3913 224.09 56.7052C224.011 56.9316 224.123 57.3119 224.367 57.7103C223.128 57.2455 221.869 56.9436 218.892 57.5141C218.296 57.6288 217.756 57.9668 217.428 58.4799C217.123 58.9537 217.012 59.5453 217.771 60.0191C219.29 60.9638 218.85 60.3994 220.959 61.7757C223.068 63.152 225.653 63.5051 227.196 62.5393L229.269 62.1922L229.525 58.7787C229.525 58.7787 228.344 58.6368 227.145 58.4376H227.148Z" fill="#FFB27B"/>
<path d="M281.437 29.8078C281.437 29.8078 276.553 35.6116 270.334 33.1851C270.334 33.1851 268.996 29.9436 268.978 27.5532C268.978 27.2604 268.972 26.9737 268.969 26.7021C268.936 24.0099 268.845 22.5008 268.845 22.5008C268.845 22.5008 268.845 22.5008 268.851 22.5008C269.135 22.3831 278.361 18.5893 278.352 18.9032C278.195 26.18 281.44 29.8078 281.44 29.8078H281.437Z" fill="#FFB27B"/>
<path d="M277.424 20.6382C276.535 22.2891 273.483 25.5216 268.966 26.7017C268.933 24.0095 268.843 22.5004 268.843 22.5004C268.843 22.5004 268.843 22.5004 268.849 22.5004C269.105 22.431 277.689 20.1523 277.424 20.6382Z" fill="#FF9759"/>
<path d="M266.911 22.2203C266.911 22.2203 277.285 24.6649 278.707 18.1669C280.126 11.6718 282.422 7.61245 275.857 5.77742C269.291 3.94239 267.459 6.13658 266.459 8.19193C265.459 10.2443 264.251 21.4174 266.911 22.2203Z" fill="#FFB27B"/>
<path d="M278.349 19.9383C278.49 20.0289 280.723 20.717 284.95 12.2783C285.613 10.9533 286.065 8.08909 284.519 5.55687C282.974 3.02465 277.487 1.03569 272.928 0.169485C268.369 -0.696722 267.276 1.87172 266.203 4.45525C265.076 7.16554 261.822 9.39594 261.822 9.39594C265.751 11.5962 270.485 8.44825 272.127 8.96737C273.766 9.48347 274.347 12.073 274.468 12.903C274.591 13.733 274.781 14.4212 276.842 13.6817C278.903 12.9392 277.773 16.6093 277.445 17.3095C277.445 17.3095 277.164 19.1777 278.349 19.9383Z" fill="#C2433A"/>
<path d="M305.077 181.919H311.36C312.676 181.919 314.141 180.597 314.505 178.18C314.873 175.759 317.579 174.44 318.166 172.461C318.754 170.481 315.75 167.695 315.75 167.695L315.247 167.049L314.725 166.376L309.748 167.547C309.748 167.547 309.624 168.733 309.549 170.245C309.495 171.338 309.467 172.599 309.528 173.704C309.675 176.345 308.79 179.185 306.448 179.701C304.107 180.214 305.074 181.916 305.074 181.916L305.077 181.919Z" fill="#1F3765"/>
<path d="M261.343 181.919H277.996C278.156 181.889 278.276 181.853 278.349 181.817C279.46 181.258 279.111 176.994 278.978 175.678C278.951 175.433 278.933 175.291 278.933 175.291C278.933 175.291 273.079 170.601 272.271 174.193C272.244 174.304 272.217 174.416 272.184 174.522C271.169 177.884 266.622 179.411 263.997 179.837C261.991 180.163 261.473 181.334 261.337 181.919H261.343Z" fill="#1F3765"/>
<path d="M264.699 85.7277C264.699 85.7277 265.588 96.8405 266.634 110.202C268.053 128.35 269.764 150.642 269.933 154.864C270.225 162.198 271.397 173.927 271.397 173.927C271.397 173.927 274.179 176.713 279.741 175.539C279.741 175.539 284.697 158.794 286.116 141.077C286.137 140.788 286.161 140.495 286.183 140.202C287.499 122.166 289.548 84.1885 289.548 84.1885L264.699 85.7277Z" fill="#0D458D"/>
<path d="M264.699 85.7277C264.699 85.7277 265.588 96.8405 266.634 110.202L286.116 141.077C286.137 140.788 286.161 140.495 286.183 140.202C287.499 122.166 289.548 84.1885 289.548 84.1885L264.699 85.7277Z" fill="#0C3563"/>
<path d="M268.761 87.0467C268.761 87.0467 284.79 127.297 295.33 146.214C305.87 165.129 309.163 170.408 309.163 170.408C309.163 170.408 315.201 167.987 315.75 166.339C315.75 166.339 311.718 129.823 304.662 120.919C300.672 115.888 295.987 100.794 295.77 95.5156C295.55 90.2369 294.342 79.7881 294.342 79.7881L268.761 87.0467Z" fill="#0D458D"/>
<path d="M305.316 79.7338L305.484 82.3234C305.484 82.3234 303.779 86.923 308.555 89.2802C308.555 89.2802 310.597 90.1072 310.682 88.5106C310.766 86.917 310.504 87.5176 310.67 85.2721C310.835 83.0266 309.956 80.9049 308.473 80.1926L307.256 78.7861L305.316 79.7338Z" fill="#FFB27B"/>
<path d="M307.181 81.6198C305.406 82.1902 305.123 82.0604 305.123 82.0604C305.123 82.0604 296.487 66.3118 295.613 64.8691C294.74 63.4264 277.279 47.2099 277.279 47.2099L281.765 30.4502C281.765 30.4502 301.625 56.21 303.77 59.9042C307.313 66.013 309.389 80.1982 309.389 80.1982C309.389 80.1982 308.576 81.1701 307.184 81.6168L307.181 81.6198Z" fill="#003B72"/>
<path d="M261.316 53.7896C261.379 57.2302 261.578 61.0995 261.846 65.0291C261.864 65.2615 261.879 65.4939 261.894 65.7293C262.066 68.165 262.253 70.6036 262.467 72.9849C262.554 73.9387 262.645 74.8834 262.741 75.8099L262.756 75.9337C262.762 76.2808 262.804 76.658 262.843 76.9991C263.72 85.9116 264.636 92.953 264.808 93.0616C265.01 93.1974 265.239 93.2638 265.492 93.2367C267.824 92.9439 274.787 93.4721 280.488 92.2316C285.297 91.2145 289.44 89.289 293.827 86.6903C294.408 86.3463 295.737 85.4318 295.628 84.7497C295.523 83.9981 295.327 82.9146 295.077 81.5534C294.212 76.8119 292.721 68.6569 292.212 59.1136C292.112 57.3359 291.968 55.5793 291.781 53.8529C291.293 49.3559 290.506 45.0852 289.458 41.2914C287.502 34.2441 284.631 28.8446 281.03 26.7349C280.56 26.4693 278.026 28.084 275.7 29.581C273.552 30.9603 271.289 31.3436 269.089 31.1505L267.152 33.2964C264.808 36.0248 262.31 39.6616 261.629 44.8287C261.578 45.209 261.533 45.6164 261.497 46.048C261.307 48.1517 261.262 50.8167 261.316 53.7986V53.7896Z" fill="#004D99"/>
<path d="M261.316 53.7895C261.379 57.2302 261.578 61.0994 261.846 65.0291C261.864 65.2615 261.879 65.4938 261.894 65.7293C275.224 57.372 277.276 42.0791 277.276 42.0791C270.72 42.3658 265.51 43.8779 261.497 46.0359C261.307 48.1395 261.262 50.8046 261.316 53.7865V53.7895Z" fill="#003B72"/>
<path d="M227.639 60.3723C227.501 58.3924 228.525 58.0634 228.525 58.0634C228.525 58.0634 248.619 54.4145 250.327 53.8773C252.036 53.34 266.643 38.1165 266.643 38.1165C266.643 38.1165 272.241 31.7905 276.827 33.1879C280.81 34.4012 282.368 37.5129 282.898 40.4797C283.531 44.014 281.904 47.5693 278.849 49.4466C271.991 53.66 258.261 61.9629 255.028 62.9106C247.83 65.0233 228.495 63.0796 228.495 63.0796C228.495 63.0796 227.745 61.9267 227.636 60.3693L227.639 60.3723Z" fill="#004D99"/>
<path opacity="0.2" d="M251.285 99.0377V173.86C251.285 178.225 247.721 181.795 243.364 181.795H166.582C165.917 181.795 165.269 181.714 164.648 181.56C163.319 181.231 162.114 180.57 161.132 179.67C160.43 179.027 159.839 178.264 159.396 177.413C159.372 177.368 159.351 177.322 159.327 177.274C158.866 176.347 158.58 175.324 158.504 174.244C158.489 174.06 158.483 173.872 158.483 173.685V99.5176C158.483 95.3193 160.65 91.441 164.181 89.1804C164.181 89.1804 164.181 89.1804 164.19 89.1744C167.131 87.288 169.083 83.9862 169.083 80.2256C169.083 79.1119 168.912 78.0374 168.595 77.0264H241.18C240.86 78.0374 240.691 79.1089 240.691 80.2256C240.691 83.8293 242.484 87.0134 245.223 88.9329C245.407 89.0597 245.594 89.1834 245.784 89.2981C249.185 91.3746 251.285 95.0477 251.285 99.0347V99.0377Z" fill="#FF9F41"/>
<path opacity="0.2" d="M251.285 99.0377V173.86C251.285 178.038 248.022 181.487 243.922 181.777C243.738 181.792 243.551 181.798 243.364 181.798H209.555C205.101 181.798 201.456 178.149 201.456 173.685V99.5176C201.456 95.3193 203.622 91.441 207.153 89.1804C210.1 87.2971 212.055 83.9892 212.055 80.2256C212.055 79.1119 211.884 78.0374 211.567 77.0264H241.177C240.857 78.0374 240.689 79.1089 240.689 80.2256C240.689 83.1804 241.894 85.8514 243.834 87.774C244.422 88.3565 245.076 88.8696 245.784 89.3012C249.185 91.3746 251.285 95.0507 251.285 99.0377Z" fill="#FF9F41"/>
<path opacity="0.6" d="M245.22 88.9329C242.849 87.5114 232.577 82.4711 206.46 82.6854C176.544 82.9298 164.558 88.9873 164.19 89.1744C167.131 87.288 169.083 83.9862 169.083 80.2256C169.083 79.1119 168.912 78.0374 168.595 77.0264H241.18C240.86 78.0374 240.692 79.1089 240.692 80.2256C240.692 83.8293 242.484 87.0134 245.223 88.9329H245.22Z" fill="#FF9F41"/>
<path d="M242.819 76.5041V79.8965C242.819 80.2315 242.548 80.5031 242.213 80.5031H167.553C167.218 80.5031 166.947 80.2315 166.947 79.8965V76.5041C166.947 76.1691 167.218 75.8975 167.553 75.8975H242.213C242.548 75.8975 242.819 76.1721 242.819 76.5041Z" fill="#0D458D"/>
<path d="M242.819 76.5041V79.8965C242.819 80.2315 242.548 80.5031 242.213 80.5031H213.954C213.619 80.5031 213.348 80.2315 213.348 79.8965V76.5041C213.348 76.1691 213.622 75.8975 213.954 75.8975H242.213C242.548 75.8975 242.819 76.1721 242.819 76.5041Z" fill="#0C3563"/>
<path d="M193.007 93.3061C193.007 93.3061 191.082 96.0194 189.319 96.0586C187.556 96.0948 184.872 94.8001 184.872 94.8001C184.872 94.8001 183.251 91.1843 184.351 89.7688C184.351 89.7688 185.453 89.2859 186.604 90.14C186.803 90.2879 187.002 90.472 187.201 90.7135C187.481 91.0485 187.794 91.2417 188.126 91.3413C189.385 91.7246 190.88 90.8221 191.437 91.6944C191.763 92.2014 192.118 92.5817 192.411 92.8473C192.757 93.1552 193.007 93.3061 193.007 93.3061Z" fill="#FFDDBE"/>
<path d="M167.92 112.882C167.92 112.882 174.721 96.3725 186.966 96.0586C186.966 96.0586 198.268 97.3172 198.895 112.882H167.92Z" fill="#FFDDBE"/>
<path d="M183.612 96.5631C183.612 96.5631 188.521 97.6556 190.033 97.0128C190.033 97.0128 190.262 94.9574 188.195 95.2472C186.782 95.4433 185.86 94.7643 185.318 94.4866C184.549 94.0972 183.407 95.7029 183.612 96.5631Z" fill="#FFA447"/>
<path d="M187.882 93.4655C187.568 93.701 186.604 90.1426 186.604 90.1426C186.803 90.2905 187.002 90.4746 187.201 90.716C187.481 91.051 187.794 91.2442 188.126 91.3438C188.129 91.4464 188.186 93.2362 187.882 93.4655Z" fill="#F1C1A0"/>
<path d="M192.411 92.8473C192.341 92.8895 190.072 94.2507 189.765 94.2507C189.458 94.2507 191.437 91.6943 191.437 91.6943C191.763 92.2014 192.118 92.5817 192.411 92.8473Z" fill="#F1C1A0"/>
<path d="M174.564 108.27C174.438 108.161 179.379 100.984 180.738 100.933C182.097 100.882 185.155 102.505 187.367 102.714C189.578 102.922 191.723 102.294 192.142 103.604C192.561 104.914 193.712 109.559 193.007 110.301C192.302 111.044 177.279 110.591 174.564 108.267V108.27Z" fill="#F1C1A0"/>
<path opacity="0.5" d="M169.065 176.142C168.671 176.35 168.276 176.546 167.875 176.733C167.496 176.954 167.11 177.168 166.715 177.376C164.901 178.333 163.03 179.094 161.126 179.667C160.424 179.024 159.833 178.261 159.39 177.409C159.086 177.572 158.785 177.726 158.48 177.877V121.423C159.879 121.61 161.265 121.891 162.62 122.256C170.234 124.317 177.014 129.17 181.139 136.308C189.331 150.488 183.923 168.322 169.062 176.139L169.065 176.142Z" fill="#FC8100"/>
<path d="M174.215 134.087C166.022 119.201 147.335 113.787 132.475 121.99C117.615 130.197 112.209 148.915 120.399 163.801C128.591 178.686 147.278 184.101 162.138 175.897C176.999 167.691 182.404 148.972 174.215 134.087Z" fill="#FC8100"/>
<path d="M160.945 176.525C160.566 176.757 160.183 176.981 159.791 177.195C159.659 177.268 159.526 177.34 159.393 177.409C159.089 177.572 158.788 177.726 158.484 177.877C143.852 185.075 126.006 179.552 118.051 165.098C110.465 151.312 114.541 134.238 126.991 125.271C127.985 124.556 129.028 123.892 130.128 123.285C130.522 123.068 130.92 122.86 131.318 122.663C131.707 122.47 132.095 122.286 132.49 122.111C133.692 121.574 134.915 121.121 136.148 120.75C137.983 120.197 139.845 119.823 141.71 119.627C147.498 119.011 153.322 120.071 158.484 122.603C163.961 125.286 168.698 129.626 171.867 135.382C179.843 149.878 174.929 168.005 160.948 176.522L160.945 176.525Z" fill="#FFB92C"/>
<path d="M145.175 178.614C142.563 178.614 139.935 178.242 137.356 177.497C130.173 175.414 124.228 170.658 120.619 164.096C117.009 157.538 116.165 149.962 118.244 142.767C120.323 135.572 125.072 129.617 131.622 126.001C138.17 122.386 145.732 121.541 152.915 123.623C160.099 125.706 166.043 130.462 169.653 137.024C173.263 143.582 174.106 151.158 172.027 158.353C169.948 165.548 165.2 171.503 158.649 175.119C154.452 177.437 149.839 178.617 145.175 178.617V178.614ZM122.08 163.291C125.476 169.46 131.065 173.932 137.817 175.891C144.572 177.85 151.683 177.053 157.842 173.655C164 170.253 168.466 164.655 170.421 157.891C172.374 151.124 171.581 144.002 168.189 137.832C164.793 131.663 159.204 127.191 152.451 125.232C145.696 123.276 138.585 124.07 132.427 127.468C126.268 130.87 121.803 136.468 119.847 143.232C117.895 149.999 118.687 157.121 122.08 163.291Z" fill="#FFA400"/>
<path d="M158.673 153.24C158.613 153.089 158.55 152.941 158.483 152.797C157.986 151.698 157.363 150.811 156.618 150.128C155.778 149.359 154.798 148.782 153.684 148.399C152.569 148.016 151.327 147.78 149.956 147.699C148.586 147.614 147.091 147.596 145.479 147.642C144.482 147.672 143.629 147.654 142.924 147.59C142.216 147.527 141.616 147.394 141.125 147.195C140.631 146.996 140.23 146.724 139.923 146.38C139.616 146.036 139.363 145.616 139.161 145.118C138.959 144.62 138.844 144.128 138.814 143.639C138.784 143.151 138.856 142.689 139.034 142.248C139.209 141.81 139.495 141.403 139.89 141.032C140.285 140.658 140.809 140.341 141.457 140.075C142.656 139.586 143.774 139.598 144.813 140.105C145.853 140.615 146.696 141.675 147.35 143.286L153.611 140.742C153.066 139.399 152.385 138.264 151.562 137.338C150.743 136.411 149.818 135.696 148.787 135.192C147.76 134.688 146.639 134.392 145.425 134.304C144.214 134.22 142.954 134.347 141.646 134.691L139.875 130.317L136.41 131.727L138.157 136.04C136.907 136.689 135.846 137.446 134.976 138.306C134.105 139.17 133.436 140.102 132.972 141.107C132.505 142.112 132.258 143.166 132.234 144.27C132.21 145.375 132.43 146.498 132.894 147.639C133.427 148.954 134.114 149.999 134.958 150.768C135.798 151.538 136.777 152.111 137.886 152.489C138.998 152.866 140.239 153.092 141.616 153.165C142.99 153.24 144.488 153.237 146.106 153.159C147.043 153.104 147.856 153.11 148.546 153.174C149.236 153.237 149.833 153.37 150.336 153.572C150.839 153.774 151.255 154.058 151.59 154.423C151.924 154.788 152.204 155.253 152.433 155.818C152.635 156.316 152.735 156.811 152.732 157.306C152.732 157.801 152.62 158.271 152.397 158.721C152.177 159.171 151.846 159.587 151.403 159.971C150.96 160.354 150.399 160.683 149.721 160.958C149.131 161.199 148.519 161.356 147.884 161.434C147.251 161.513 146.633 161.45 146.03 161.247C145.428 161.045 144.864 160.68 144.337 160.152C143.81 159.624 143.355 158.881 142.969 157.927L136.711 160.472C137.365 162.083 138.184 163.363 139.173 164.305C140.161 165.249 141.243 165.925 142.415 166.33C143.59 166.737 144.816 166.915 146.1 166.861C147.38 166.81 148.646 166.601 149.896 166.233L151.511 170.223L154.955 168.823L153.331 164.815C154.582 164.166 155.651 163.414 156.546 162.566C157.372 161.782 158.019 160.936 158.486 160.031C158.526 159.959 158.562 159.883 158.595 159.811C159.068 158.821 159.318 157.773 159.348 156.663C159.378 155.555 159.152 154.411 158.673 153.228V153.24Z" fill="#FFA400"/>
<path d="M122.128 41.8884C122.221 41.5112 113.944 45.637 113.526 46.1018C109.645 50.4147 110.751 56.0435 112.971 56.0978C114.396 56.131 114.119 58.5063 114.119 58.5063L129.989 51.7819C129.989 51.7819 128.079 40.6208 122.128 41.8884Z" fill="#1F3765"/>
<path d="M124.083 42.7577C124.083 42.7577 124.65 36.5645 117.744 36.5645C117.744 36.5645 119.838 37.1319 120.92 38.2697C120.92 38.2697 116.515 35.6771 111.718 39.6611C106.924 43.642 109.901 53.629 108.446 55.5244C106.987 57.4198 101.311 57.8001 102.004 63.9299C102.697 70.0598 120.025 77.7379 118.913 82.8084C118.913 82.8084 125.704 72.8093 120.847 68.2459C120.847 68.2459 123.213 70.4793 123.454 73.1323C123.454 73.1323 124.095 67.9501 120.805 66.2931C117.892 64.8263 115.505 59.4631 115.758 58.5033C116.011 57.5436 124.086 42.7577 124.086 42.7577H124.083Z" fill="#1F3765"/>
<path d="M117.81 71.8945C116.744 66.7576 110.094 65.164 106.948 69.3592C106.382 70.1138 105.984 71.0041 105.855 72.0575C105.137 77.8885 114.445 101.647 115.78 103.796C118.208 107.714 132.499 121.135 132.499 121.135L135.132 119.536C135.132 119.536 124.993 102.345 123.424 100.736C121.61 98.8767 119.832 81.6491 117.81 71.8915V71.8945Z" fill="#FF985B"/>
<path d="M131.496 119.549C131.496 119.549 135.34 117.019 136.796 117.182C138.251 117.345 142.463 118.559 142.514 119.18C142.566 119.802 137.82 120.188 137.504 120.526C137.184 120.864 133.963 123.019 132.794 122.343C131.625 121.667 131.496 119.549 131.496 119.549Z" fill="#FF985B"/>
<path d="M104.679 176.672L101.244 176.165C101.244 176.165 89.6954 166.972 87.978 149.82C87.8032 148.076 87.7671 146.304 87.8966 144.517C87.9117 144.312 87.8876 144.104 87.7761 143.932C87.7761 143.932 87.7761 143.932 87.7731 143.926C87.4025 143.358 86.4835 141.937 85.2391 139.915C84.0128 137.923 81.9097 134.156 79.5987 129.931C75.4346 122.319 70.5866 113.216 68.9234 110.316C63.6265 101.074 66.1785 94.8627 66.1785 94.8627C66.1785 94.8627 80.9606 93.3989 85.0101 89.8496L86.4684 92.1011C86.4684 92.1011 89.6713 106.301 89.5206 106.368C89.6773 106.851 89.837 107.343 89.9997 107.844C92.5277 115.658 95.4353 125.424 97.0201 133.377C97.912 137.853 98.382 141.753 98.1289 144.409C98.0416 145.32 98.147 146.72 98.3911 148.45C99.8223 158.642 104.682 176.669 104.682 176.669L104.679 176.672Z" fill="#0D458D"/>
<path d="M111.883 181.025H97.5534C97.5534 181.025 97.2099 178.837 97.9572 177.177C98.6743 175.583 99.6957 175.535 98.0867 173.036C98.9967 173.975 101.925 174.364 103.995 174.083C104.248 174.497 105.631 177.262 106.478 177.871C107.415 178.544 111.591 178.306 111.877 181.022L111.883 181.025Z" fill="#0C3563"/>
<path d="M89.9997 107.844C88.7493 114.758 85.7905 126.267 79.5987 129.931C75.4346 122.319 70.5866 113.216 68.9234 110.316C63.6265 101.074 66.1785 94.8627 66.1785 94.8627C66.1785 94.8627 80.9606 93.3989 85.0101 89.8496L86.4684 92.1011C86.4684 92.1011 89.6713 106.301 89.5206 106.368C89.6773 106.851 89.837 107.343 89.9997 107.844Z" fill="#0C3563"/>
<path d="M116.277 68.708C116.277 68.708 118.301 70.8177 119.226 73.3469C119.226 73.3469 115.993 82.6428 108.443 83.8078C108.443 83.8078 114.418 68.702 116.277 68.708Z" fill="#FF7E1C"/>
<path d="M79.9483 95.9311L79.9965 93.245C74.6574 93.921 61.5867 86.8525 61.5867 86.8525C61.5867 86.8525 56.0005 90.5739 55.2352 101.204C54.8616 106.392 52.4994 128.331 52.2403 134.88C52.1438 137.256 52.1137 138.949 52.1017 139.625C52.1017 139.628 52.1017 139.631 52.1017 139.631C52.0986 139.836 52.0022 140.02 51.8757 140.183C50.7699 141.59 49.8117 143.081 48.9831 144.626C40.8359 159.81 45.0963 180.445 45.0963 180.445L46.9885 179.962C46.9885 179.962 53.8763 158.573 58.3808 149.322C59.1462 147.753 59.8392 146.533 60.4207 145.824C62.114 143.766 63.8977 140.268 65.6574 136.057C68.9838 128.098 72.2138 117.595 74.5157 109.464C74.6784 109.495 79.9483 95.9281 79.9483 95.9281V95.9311Z" fill="#0D458D"/>
<path d="M111.197 78.016C102.468 76.0089 108.045 63.7221 108.551 63.9394C109.759 63.6919 112.417 61.5641 114.794 57.4111L115.117 57.6888L120.477 62.3971C120.477 62.3971 119.238 64.2291 118.196 66.0219C117.382 67.4253 116.689 68.8107 116.798 69.2845C117.229 69.6256 113.529 78.5502 111.2 78.016H111.197Z" fill="#FFB27B"/>
<path d="M120.474 62.3968C120.474 62.3968 119.232 64.2258 118.193 66.0216C114.861 63.9632 114.858 59.8283 115.114 57.6885L120.477 62.3968H120.474Z" fill="#FF985B"/>
<path d="M120.622 64.7566C120.622 64.7566 112.528 60.2445 115.409 55.2404C118.292 50.2363 119.187 46.2826 124.475 48.9506C129.763 51.6187 129.661 54.1056 129.103 56.0101C128.546 57.9145 122.797 65.8009 120.619 64.7566H120.622Z" fill="#FFB27B"/>
<path d="M130.474 53.0891C130.103 50.8677 128.977 50.6534 128.19 50.8044C125.201 45.8546 120.317 47.7862 120.317 47.7862C117.708 51.0639 113.938 51.6253 113.938 51.6253C113.938 51.6253 114.879 53.3758 118.747 54.4593C119.928 54.7913 121.272 54.5891 122.565 54.1545C119.88 55.6545 117.072 56.228 117.072 56.228C122.17 56.6958 127.024 52.0267 127.527 51.5257C127.762 52.25 128.175 53.7651 127.928 54.8728C127.594 56.3789 126.259 59.1042 127.072 59.4574C127.072 59.4574 131.029 56.4271 130.474 53.0921V53.0891Z" fill="#1F3765"/>
<path d="M56.4916 181.025H42.1616C42.1616 181.025 41.8181 178.837 42.5653 177.177C43.2824 175.584 44.4063 174.862 44.1381 172.934C45.0481 173.872 46.5335 174.926 48.6035 174.645C48.8566 175.058 50.2426 177.262 51.0892 177.874C52.0263 178.547 56.2024 178.309 56.4886 181.025H56.4916Z" fill="#0C3563"/>
<path d="M112.224 87.7549C110.38 88.4008 107.792 88.7509 105.147 89.0407C101.38 89.4541 97.4873 89.7348 95.4505 90.5497C94.7063 90.8455 94.2091 91.2137 94.0555 91.6815C93.1726 94.3435 89.2798 98.4482 89.2798 98.4482C64.3287 97.3104 61.5898 86.8555 61.5898 86.8555C78.3756 67.304 106.801 61.642 106.801 61.642C106.801 61.642 108.831 60.7788 113.945 64.8502C117.355 67.5666 116.906 68.6109 116.906 68.6109C116.906 68.6109 117.651 85.8595 112.227 87.7549H112.224Z" fill="#FF973D"/>
<path d="M105.143 89.0411C101.377 89.4546 97.4842 89.7353 95.4474 90.5502C94.6158 78.0853 100.488 68.7109 100.488 68.7109C100.488 68.7109 104.318 84.3268 105.143 89.0442V89.0411Z" fill="#FF7E1C"/>
<path d="M109.021 66.2959C109.021 66.2959 99.5783 67.2315 98.822 73.3765C98.0658 79.5214 107.876 104.557 109.28 106.824C111.838 110.949 126.901 125.095 126.901 125.095L129.676 123.411C129.676 123.411 118.991 105.296 117.337 103.6C114.74 100.938 112.218 68.4267 109.021 66.2959Z" fill="#FFB27B"/>
<path d="M99.0933 77.0744C99.1174 77.2132 107.807 79.9175 113.402 77.0744C113.402 77.0744 114.598 64.1477 107.922 64.8509C101.245 65.5511 97.2915 67.6578 97.1228 70.86C96.954 74.0623 99.0933 77.0744 99.0933 77.0744Z" fill="#FF973D"/>
<path d="M126.042 123.3C126.042 123.3 129.429 120.185 130.893 120.11C132.354 120.034 136.708 120.554 136.859 121.157C137.009 121.761 132.387 122.908 132.128 123.294C131.869 123.68 129.037 126.327 127.774 125.847C126.512 125.37 126.042 123.297 126.042 123.297V123.3Z" fill="#FFB27B"/>
<path d="M0.515232 180.968H388.482C388.768 180.968 388.997 181.2 388.997 181.484C388.997 181.771 388.765 182 388.482 182H0.515232C0.232005 182 0 181.771 0 181.484C0 181.2 0.232005 180.968 0.515232 180.968Z" fill="#263252"/>
</g>
<defs>
<clipPath id="clip0_2648_3061">
<rect width="389" height="182" fill="white"/>
</clipPath>
</defs>
</svg>
