<svg width="274" height="239" viewBox="0 0 274 239" fill="none" xmlns="http://www.w3.org/2000/svg">
<g clip-path="url(#clip0_2648_2881)">
<path d="M134.234 239C208.37 239 268.468 232.14 268.468 223.679C268.468 215.217 208.37 208.357 134.234 208.357C60.0986 208.357 0 215.217 0 223.679C0 232.14 60.0986 239 134.234 239Z" fill="#1D1D1C" fill-opacity="0.24"/>
<path d="M213.802 128.18C210.15 127.299 206.534 124.602 203.166 120.921C200.622 118.142 199.104 115.527 199.04 115.418L202.049 113.59L204.113 111.486C205.42 113.73 210.943 119.499 215.764 120.874C219.398 121.91 224.451 120.807 226.144 120.491L231.02 126.14C227.214 129.309 218.533 129.323 213.802 128.182V128.18Z" fill="#C97E67"/>
<path d="M201.171 116.755C201.171 116.755 194.616 116.694 193.023 115.179C191.429 113.666 190.643 110.378 191.724 111.255C192.783 112.113 193.528 113.564 193.528 113.564C193.528 113.564 191.929 110.284 192.578 110.033C193.514 109.667 195.02 112.625 195.02 112.625C195.02 112.625 192.982 108.555 193.982 108.573C194.982 108.59 196.505 111.609 196.505 111.609C196.505 111.609 194.631 107.85 195.789 107.897C196.949 107.944 197.771 110.937 198.733 110.641C199.695 110.349 202.852 110.389 203.694 111.393L201.171 116.755Z" fill="#C97E67"/>
<path d="M204.382 111.907C203.817 110.793 200.61 107.896 199.671 107.896C198.733 107.896 201.914 113.809 201.914 113.809L204.382 111.91V111.907Z" fill="#C97E67"/>
<path d="M200.51 112.048L200.358 111.993C200.627 111.241 200.133 110.477 200.127 110.469L200.262 110.381C200.285 110.416 200.806 111.223 200.51 112.048Z" fill="#B2604D"/>
<path d="M194.689 114.043C193.754 114.043 193.476 113.628 193.461 113.604L193.599 113.517C193.599 113.517 193.956 114.029 195.248 113.835L195.271 113.996C195.052 114.029 194.859 114.043 194.689 114.043Z" fill="#B2604D"/>
<path d="M196.186 112.815C194.829 112.815 194.464 111.814 194.461 111.803L194.613 111.75C194.631 111.8 195.072 112.988 196.917 112.563L196.952 112.721C196.665 112.789 196.411 112.815 196.183 112.815H196.186Z" fill="#B2604D"/>
<path d="M197.385 111.779C197.014 111.779 196.716 111.697 196.49 111.536C196.178 111.308 196.137 111.004 196.134 110.992L196.295 110.972C196.295 110.972 196.33 111.223 196.59 111.408C196.891 111.624 197.382 111.674 198.011 111.551L198.043 111.709C197.803 111.756 197.584 111.779 197.385 111.779Z" fill="#B2604D"/>
<path d="M220.863 125.933L220.682 125.854C221.427 124.11 223.41 122.08 223.43 122.06L223.57 122.197C223.55 122.218 221.594 124.224 220.863 125.933Z" fill="#33353B"/>
<path d="M225.945 216.464C225.945 216.464 225.828 218.719 224.284 219.313C222.74 219.907 218.305 220.364 219.916 221.859C220.843 222.716 225.322 222.3 226.585 222.333C227.845 222.368 229.015 222.95 229.977 222.128C231.032 221.227 230.126 216.572 230.126 216.572C230.126 216.572 229.021 217.11 228.044 217.058C226.635 216.982 225.945 216.458 225.945 216.458V216.464Z" fill="#33353B"/>
<path d="M214.825 158.823C215.106 163.603 215.667 169.948 216.755 177.809C218.72 191.975 221.106 206.26 222.278 213.112C222.699 215.564 224.699 217.401 227.123 217.562L228.427 217.65C231.049 217.825 233.239 215.628 233.119 212.939L231.067 166.757L230.894 160.227C230.894 160.227 214.401 151.67 214.822 158.823H214.825Z" fill="#44474F"/>
<path d="M240.394 216.854C240.394 216.854 240.277 219.109 238.733 219.703C237.189 220.297 232.754 220.753 234.365 222.248C235.292 223.105 239.774 222.69 241.034 222.722C242.294 222.757 243.464 223.339 244.426 222.517C245.481 221.616 244.575 216.962 244.575 216.962C244.575 216.962 243.47 217.5 242.493 217.447C241.084 217.371 240.394 216.848 240.394 216.848V216.854Z" fill="#33353B"/>
<path d="M229.064 148.401C229.064 148.401 228.485 158.576 231.207 178.198C233.172 192.364 235.558 206.649 236.73 213.501C237.151 215.952 239.151 217.79 241.575 217.95L242.879 218.038C245.502 218.214 247.692 216.017 247.572 213.328L245.519 167.145L245.116 151.953L229.061 148.401H229.064Z" fill="#44474F"/>
<path d="M246.446 160.867C246.25 162.081 238.824 161.564 229.76 160.039C220.696 158.515 213.594 156.265 213.79 155.051C213.986 153.837 221.409 154.121 230.473 155.642C239.537 157.164 246.645 159.653 246.446 160.864V160.867Z" fill="#33353B"/>
<path d="M248.908 126.088C248.908 126.088 248.166 119.485 236.301 117.803C219.188 115.377 218.632 131.339 213.793 155.051C213.793 155.051 230.988 154.96 246.499 160.568C246.499 160.568 251.303 136.345 248.911 126.085L248.908 126.088Z" fill="#FF973D"/>
<path d="M253.981 128.651L245.075 129.005C245.075 129.005 226.825 131.033 222.416 129.675C218.009 128.318 218.077 120.817 218.077 120.817C218.077 120.817 223.758 117.724 232.099 117.508C232.883 117.487 233.69 117.502 234.523 117.56C235.921 117.66 237.295 117.903 238.637 118.204C254.721 121.817 253.981 128.651 253.981 128.651Z" fill="#FF973D"/>
<path d="M238.131 116.565L237.628 113.549L237.482 112.671L236.622 107.508L235.751 112.411L235.227 115.354L235.061 116.284C234.95 116.916 234.824 117.463 234.277 117.952C234.055 118.151 232.368 118.876 233.672 119.678C235.295 120.679 238.593 119.889 240.025 118.54C240.017 118.537 238.292 117.545 238.131 116.568V116.565Z" fill="#C97E67"/>
<path d="M214.618 155.958C214.618 155.958 224.287 155.703 245.37 161.417L245.431 163.708L215.194 163.962L214.618 155.958Z" fill="#44474F"/>
<path d="M253.995 128.649C254.188 127.515 251.859 126.171 248.792 125.646C245.725 125.122 243.081 125.616 242.887 126.75C242.694 127.883 245.023 129.228 248.09 129.753C251.157 130.277 253.801 129.783 253.995 128.649Z" fill="#33353B"/>
<path d="M234.02 104.404C234.02 104.404 233.35 105.46 233.187 107.002C233.023 108.544 235.634 105.463 235.634 105.463L234.023 104.404H234.02Z" fill="#33353B"/>
<path d="M240.897 111.146C242.16 108.47 241.387 105.45 239.169 104.402C236.951 103.353 234.129 104.673 232.865 107.349C231.602 110.026 232.375 113.045 234.593 114.094C236.81 115.142 239.633 113.823 240.897 111.146Z" fill="#C97E67"/>
<path d="M241.484 109.734L239.505 108.863C239.069 108.672 238.736 108.298 238.616 107.836C238.409 107.043 238.011 106.545 236.078 106.001C233.631 105.314 232.497 103.36 232.643 102.008C232.792 100.63 234.309 100.153 235.327 101.16C236.344 102.166 236.306 100.487 237.526 100.703C239.803 101.104 239.672 102.921 241.476 103.439C243.841 104.12 247.466 107.251 244.151 110.738L241.484 109.731V109.734Z" fill="#33353B"/>
<path d="M236.739 108.977C236.722 108.956 236.713 108.927 236.722 108.898C236.733 108.848 236.78 108.819 236.83 108.831C236.859 108.837 237.535 108.927 237.637 109.711C237.643 109.761 237.611 109.808 237.561 109.814C237.511 109.822 237.476 109.784 237.458 109.738C237.277 109.272 236.812 109.012 236.789 109.006C236.768 109 236.754 108.992 236.739 108.977Z" fill="#33353B"/>
<path d="M236.76 110.197C236.643 110.378 236.441 110.455 236.309 110.37C236.178 110.285 236.169 110.068 236.286 109.89C236.403 109.708 236.605 109.632 236.736 109.717C236.868 109.802 236.877 110.019 236.76 110.197Z" fill="#33353B"/>
<path d="M233.652 107.704C233.634 107.695 233.62 107.675 233.62 107.646C233.62 107.599 233.649 107.552 233.69 107.54C233.713 107.535 234.272 107.306 234.532 107.921C234.549 107.959 234.532 108.011 234.494 108.041C234.456 108.07 234.421 108.055 234.394 108.023C234.146 107.713 233.716 107.701 233.696 107.707C233.678 107.713 233.663 107.71 233.649 107.704H233.652Z" fill="#33353B"/>
<path d="M234.152 108.833C234.111 109.044 233.956 109.193 233.801 109.164C233.649 109.134 233.555 108.941 233.596 108.728C233.637 108.517 233.792 108.368 233.947 108.397C234.099 108.426 234.192 108.62 234.152 108.833Z" fill="#33353B"/>
<path d="M244.154 110.741C244.154 110.741 241.759 113.339 239.683 112.918C239.683 112.918 242.052 111.113 239.09 108.597C239.09 108.597 242.385 109.112 244.154 110.741Z" fill="#33353B"/>
<path d="M240.786 111.519C240.268 111.654 239.753 111.39 239.634 110.928C239.514 110.466 239.832 109.983 240.35 109.849C240.867 109.714 241.382 109.977 241.502 110.44C241.622 110.902 241.303 111.385 240.786 111.519Z" fill="#C97E67"/>
<path d="M239.09 108.6C239.09 108.6 238.54 111.25 237.865 111.566C237.189 111.882 233.681 110.984 232.275 109.849C231.719 111.484 232.412 113.31 233.947 114.105C234.456 114.369 235.008 114.547 235.59 114.629C236.777 114.793 238.02 114.679 238.818 113.787C239.061 113.515 239.277 111.429 239.277 111.429C239.277 111.429 239.491 110.232 240.35 109.852C240.35 109.852 239.803 108.913 239.09 108.605V108.6Z" fill="#33353B"/>
<path d="M235.929 101.092C235.838 101.092 235.733 101.075 235.616 101.034L235.657 100.92C236.207 101.116 236.403 100.686 236.409 100.668L236.52 100.715C236.52 100.715 236.353 101.092 235.926 101.092H235.929Z" fill="#33353B"/>
<path d="M235.61 105.106C235.61 105.106 235.008 104.697 234.461 104.126C233.73 103.366 233.418 102.658 233.555 102.075C233.649 101.672 233.804 101.429 234.026 101.335C234.38 101.186 234.824 101.452 235.213 101.686C235.271 101.721 235.327 101.757 235.382 101.786L235.353 101.838C235.298 101.806 235.242 101.771 235.184 101.739C234.803 101.511 234.374 101.253 234.049 101.391C233.847 101.476 233.704 101.707 233.613 102.09C233.447 102.798 234.008 103.565 234.505 104.085C235.049 104.65 235.64 105.054 235.646 105.057L235.61 105.106Z" fill="white"/>
<path d="M242.33 104.243C240.944 103.997 240.084 103.377 239.61 102.903C239.093 102.388 238.909 101.937 238.9 101.92L238.955 101.896C238.964 101.914 239.719 103.716 242.338 104.184L242.327 104.243H242.33Z" fill="white"/>
<path d="M234.795 112.306C233.52 112.306 232.862 111.215 232.854 111.203C232.818 111.142 232.839 111.06 232.9 111.025C232.962 110.987 233.044 111.007 233.079 111.072C233.111 111.124 233.883 112.391 235.409 111.955C235.479 111.935 235.552 111.976 235.57 112.046C235.59 112.116 235.549 112.189 235.479 112.207C235.234 112.277 235.005 112.306 234.792 112.306H234.795Z" fill="#C97E67"/>
<path d="M231.649 182.192C231.637 182.107 230.526 173.784 229.69 170.8C228.862 167.848 225.023 165.279 224.982 165.253L225.091 165.089C225.129 165.115 229.032 167.722 229.877 170.747C230.716 173.743 231.83 182.08 231.842 182.165L231.646 182.192H231.649Z" fill="#33353B"/>
<path d="M226.225 135.833C229.377 137.735 234.725 139.361 236.815 138.536C240.71 137 241.716 132.501 242.87 128.993C243.461 127.197 244.593 126.164 247.127 126.272C248.18 126.316 249.928 126.117 252.001 127.276C253.004 127.835 252.867 128.961 252.636 129.897C252.273 131.363 251.934 133.46 250.861 135.941C248.312 141.833 247.148 144.399 242.654 146.798C237.137 149.744 227.573 147.576 221.351 141.28C220.696 140.616 225.489 135.385 226.228 135.833H226.225Z" fill="#C97E67"/>
<g opacity="0.5">
<path d="M239.733 145.338C239.464 145.338 239.21 145.294 238.985 145.209C238.637 145.075 238.385 144.843 238.257 144.542C237.906 143.723 238.561 142.655 239.748 142.114C240.452 141.792 241.21 141.731 241.774 141.95C242.122 142.085 242.373 142.316 242.502 142.617C242.853 143.436 242.198 144.504 241.011 145.045C240.587 145.238 240.139 145.338 239.73 145.338H239.733ZM241.025 142.249C240.677 142.249 240.294 142.336 239.926 142.503C238.985 142.933 238.403 143.787 238.651 144.372C238.757 144.615 238.976 144.744 239.14 144.808C239.599 144.987 240.233 144.928 240.835 144.653C241.777 144.223 242.359 143.369 242.11 142.784C242.005 142.541 241.786 142.412 241.622 142.348C241.446 142.281 241.245 142.246 241.028 142.246L241.025 142.249Z" fill="#B2604D"/>
</g>
<path d="M222.325 141.594C222.325 141.594 215.106 140.754 213.527 138.897C211.948 137.042 211.469 133.323 212.557 134.417C213.621 135.485 214.273 137.173 214.273 137.173C214.273 137.173 212.896 133.37 213.641 133.168C214.717 132.873 216.027 136.313 216.027 136.313C216.027 136.313 214.261 131.586 215.361 131.723C216.46 131.861 217.784 135.368 217.784 135.368C217.784 135.368 216.162 131.003 217.434 131.194C218.705 131.384 219.261 134.777 220.354 134.567C221.451 134.356 224.924 134.774 225.734 135.98L222.322 141.594H222.325Z" fill="#C97E67"/>
<path d="M215.562 138.511C214.77 138.394 214.217 137.262 214.194 137.215L214.355 137.136C214.355 137.136 214.89 138.227 215.588 138.332L215.562 138.511Z" fill="#B2604D"/>
<path d="M217.495 137.882C216.431 137.498 215.913 136.392 215.89 136.346L216.053 136.27C216.053 136.27 216.562 137.352 217.553 137.709L217.492 137.879L217.495 137.882Z" fill="#B2604D"/>
<path d="M219.167 136.793C218.311 136.74 217.662 135.4 217.635 135.345L217.796 135.266C217.796 135.266 218.428 136.565 219.179 136.611L219.167 136.79V136.793Z" fill="#B2604D"/>
<path d="M226.635 136.207C226.5 136.146 222.746 131.76 221.711 131.649C220.676 131.538 222.729 136.459 222.729 136.459L226.635 136.207Z" fill="#C97E67"/>
<path d="M143.687 175.316L139.854 182.455C139.33 183.432 139.579 184.643 140.447 185.333L146.748 190.339L138.892 185.989C138.292 185.658 137.541 185.793 137.097 186.314L134.114 189.801L135.81 185.617C136.123 184.845 135.95 183.958 135.369 183.362L132.433 180.337L136.199 182.39C136.828 182.733 137.608 182.583 138.064 182.036L143.684 175.319L143.687 175.316Z" fill="#FFF2E2"/>
<path d="M155.142 23.5414C155.142 23.5414 188.564 82.0934 193.207 70.2683C198.856 55.8805 157.063 10.8475 155.142 23.5414Z" fill="#33353B"/>
<path d="M193.698 68.0247C194.061 64.6955 192.754 60.6114 190.517 56.3108C185.701 47.0485 176.576 36.7769 170.562 30.8351C163.46 23.8197 156.335 21.5904 156.335 21.5904C156.335 21.5904 156.355 21.567 156.399 21.5231C156.817 21.0872 179.509 12.2082 195.353 4.84454C206.814 -0.47996 219.822 -1.46587 231.932 2.14133C245.309 6.12886 257.717 10.8653 257.796 10.9004C276.658 19.0744 279.684 36.8471 263.547 44.553C232.117 59.5582 192.26 71.8455 192.26 71.8455C192.432 71.6144 192.59 71.3745 192.73 71.1258C193.254 70.2101 193.566 69.195 193.692 68.092C193.695 68.0716 193.698 68.0481 193.698 68.0277V68.0247Z" fill="#FF973D"/>
<path d="M116.615 42.9707C116.615 42.9707 91.4794 43.3891 89.8479 45.7705C86.699 50.3606 99.359 50.3606 99.359 50.3606L116.615 42.9707Z" fill="#C97E67"/>
<path d="M156.332 24.9724C148.526 29.0887 142.827 31.5169 137.447 34.264C124.182 41.0366 101.116 58.3325 102.391 71.4009C103.666 84.4694 120.001 99.1264 124.822 95.3934C129.644 91.6604 119.609 73.4079 121.492 69.2097C123.375 65.0086 147.599 65.0642 148.385 68.3291C149.172 71.5969 131.883 85.1715 137.555 91.2537C137.555 91.2537 140.742 94.6766 150.224 86.8976C155.361 82.6848 165.744 78.9693 173.901 70.0376C177.111 66.524 181.892 61.5799 183.322 58.7011C185.772 53.7745 160.61 22.7168 156.332 24.9724Z" fill="#C97E67"/>
<path d="M133.029 36.7041C133.029 36.7041 104.332 45.3959 96.1692 55.8665C88.0089 66.337 84.0179 74.8621 88.6814 77.8929C93.3448 80.9267 111.291 63.6601 111.291 63.6601L133.029 36.7012V36.7041Z" fill="#C97E67"/>
<path d="M146.379 30.0684C135.71 33.3713 80.2666 56.6587 79.6058 60.5731C78.3252 68.1532 99.2361 60.8656 99.2361 60.8656L146.379 30.0713V30.0684Z" fill="#C97E67"/>
<path d="M122.518 92.8745C122.518 92.8745 112.399 83.3753 102.505 91.678C92.6106 99.9807 105.393 113.134 118.001 116.776C130.608 120.416 134.123 122.323 136.269 121.059C138.415 119.795 162.074 83.6444 146.136 71.3747C134.702 62.5717 121.828 72.6356 122.515 92.8745H122.518Z" fill="#E8A164"/>
<path d="M148.385 68.3261C148.385 68.3261 134.134 84.0187 135.377 90.3964C136.62 96.7741 149.136 87.7225 163.478 78.2495C177.819 68.7737 154.706 58.543 148.385 68.3261Z" fill="#C97E67"/>
<path d="M102.391 71.7868C102.221 71.7868 102.063 71.6756 102.016 71.503C101.952 71.2719 100.47 65.7747 103.356 60.7165C105.259 57.3813 108.604 55.0526 113.302 53.7946C113.51 53.739 113.723 53.8619 113.779 54.0696C113.834 54.2773 113.712 54.4909 113.504 54.5465C109.016 55.7489 105.832 57.9518 104.037 61.0939C101.309 65.8684 102.753 71.2397 102.768 71.2953C102.826 71.503 102.704 71.7165 102.499 71.775C102.464 71.7838 102.429 71.7897 102.394 71.7897L102.391 71.7868Z" fill="#B2604D"/>
<path d="M90.988 63.552C90.9178 63.552 90.8477 63.5344 90.7834 63.4935C90.5992 63.3823 90.5436 63.1424 90.6547 62.9581C90.8711 62.607 95.9701 54.3687 100.163 52.1657C104.297 49.992 111.642 47.9676 111.952 47.8827C112.159 47.8271 112.373 47.9471 112.428 48.1548C112.484 48.3625 112.364 48.5761 112.156 48.6317C112.08 48.6521 104.584 50.7205 100.522 52.8532C96.5198 54.9567 91.3652 63.2799 91.3155 63.3647C91.2424 63.4847 91.1137 63.549 90.9851 63.549L90.988 63.552Z" fill="#B2604D"/>
<path d="M107.665 105.823L102.616 97.453C101.926 96.3091 100.514 95.8234 99.2654 96.3003L90.1987 99.77L99.5402 94.2817C100.254 93.8633 100.572 93.0003 100.306 92.2162L98.5198 86.9736L101.821 91.3064C102.429 92.108 103.455 92.4707 104.432 92.2367L109.376 91.046L104.929 93.6965C104.189 94.1383 103.862 95.0394 104.148 95.8527L107.663 105.817L107.665 105.823Z" fill="white"/>
<g opacity="0.8">
<path d="M179.632 126.731C179.632 126.731 179.626 126.725 179.623 126.722C179.07 126.17 178.754 125.424 178.754 124.642V117.065C178.754 114.263 176.453 112.004 173.652 112.06L97.4761 113.578C94.8271 113.631 92.6226 115.626 92.3039 118.259C92.3039 118.259 93.4178 124.253 92.0027 125.491C79.8778 136.113 69.8696 153.061 69.8696 170.459C69.8696 194.025 82.4273 210.902 98.2275 222.35C98.2275 222.35 111.516 225.211 132.81 225.287C157.528 225.375 171.995 222.35 171.995 222.35C187.798 210.905 200.899 198.6 200.899 173.09C200.899 155.691 191.029 138.132 179.635 126.731H179.632Z" fill="#FFF2E2"/>
</g>
<g opacity="0.6">
<path d="M182.295 124.97C182.295 124.97 182.29 124.964 182.287 124.962C181.708 124.376 181.374 123.587 181.374 122.759V114.734C181.374 111.764 178.959 109.374 176.018 109.433L96.0465 111.039C93.266 111.094 90.9503 113.21 90.617 115.998C90.617 115.998 91.7836 122.343 90.3013 123.657C77.574 134.905 67.0659 152.854 67.0659 171.279C67.0659 190.903 75.2174 206.146 86.7664 217.661C92.5263 223.403 100.073 227.019 108.151 227.938C114.338 228.643 122.849 229.304 133.141 229.339C145.815 229.383 155.923 228.643 162.946 227.874C170.553 227.04 177.752 223.948 183.556 218.957C195.695 208.509 204.619 195.824 204.619 174.064C204.619 155.642 194.257 137.044 182.295 124.97Z" fill="#D8A87F"/>
</g>
<path d="M135.109 223.242C152.322 223.242 166.276 221.682 166.276 219.758C166.276 217.833 152.322 216.273 135.109 216.273C117.895 216.273 103.941 217.833 103.941 219.758C103.941 221.682 117.895 223.242 135.109 223.242Z" fill="#33353B"/>
<path d="M111.572 122.098C104.87 122.098 98.4263 121.928 92.6548 121.516L92.687 121.05C124.863 123.35 178.193 118.081 178.728 118.028L178.775 118.493C178.336 118.537 142.289 122.101 111.569 122.101L111.572 122.098Z" fill="#33353B"/>
<path d="M130.883 124.888C115.776 124.888 100.882 124.464 92.6724 123.075L92.7513 122.615C113.613 126.149 177.857 123.42 178.506 123.393L178.527 123.859C178.135 123.876 154.256 124.891 130.886 124.891L130.883 124.888Z" fill="#33353B"/>
<path d="M92.3013 118.494V118.025C93.0498 118.025 167.425 117.914 178.462 115.308L178.571 115.761C167.484 118.379 93.0527 118.491 92.3042 118.491L92.3013 118.494Z" fill="#33353B"/>
<g opacity="0.7">
<path d="M99.0288 193.656C99.0288 193.656 91.2807 185.359 82.7579 191.602C74.235 197.845 83.9625 209.27 94.0554 212.921C104.148 216.569 106.917 218.315 108.736 217.4C110.554 216.484 131.807 188.252 119.463 177.381C110.604 169.582 99.5551 177.1 99.0288 193.659V193.656Z" fill="#0D458D"/>
<path d="M117.069 182.62C116.893 182.62 116.732 182.512 116.671 182.337C115.94 180.248 114.452 179.069 112.25 178.826C110.563 178.642 109.09 179.092 109.075 179.098C108.853 179.168 108.616 179.042 108.549 178.82C108.479 178.598 108.604 178.361 108.827 178.293C108.894 178.273 115.458 176.307 117.469 182.059C117.545 182.278 117.431 182.518 117.212 182.597C117.165 182.615 117.118 182.62 117.072 182.62H117.069Z" fill="#FFF2E2"/>
</g>
<path d="M152.668 189.985C152.668 189.985 154.434 175.734 141.47 172.519C128.506 169.307 125.311 188.013 129.953 200.774C134.596 213.535 135.146 217.637 137.509 218.661C139.871 219.685 184.485 217.432 185.017 196.632C185.4 181.705 169.147 177.071 152.665 189.985H152.668Z" fill="#0C3563"/>
<path d="M178.404 198.744C178.31 198.744 178.217 198.721 178.132 198.668C177.88 198.516 177.796 198.191 177.948 197.936C179.38 195.535 179.319 193.133 177.766 190.798C176.579 189.011 174.945 187.943 174.927 187.934C174.679 187.773 174.609 187.445 174.769 187.197C174.93 186.951 175.258 186.878 175.506 187.039C175.579 187.086 177.342 188.238 178.652 190.207C180.427 192.875 180.497 195.736 178.86 198.484C178.76 198.65 178.582 198.744 178.401 198.744H178.404Z" fill="#FFF2E2"/>
<path d="M113.186 207.336C113.186 207.336 106.069 206.152 104.186 212.602C102.303 219.05 111.63 221.046 118.13 218.977C124.632 216.909 126.702 216.719 127.267 215.551C127.831 214.384 127.626 191.916 117.194 191.214C109.709 190.711 107.046 198.782 113.186 207.336Z" fill="#0C3563"/>
<path d="M112.402 196.217C112.349 196.217 112.294 196.202 112.247 196.167C112.127 196.082 112.098 195.915 112.183 195.793C112.209 195.757 114.759 192.223 117.998 194.344C118.121 194.426 118.156 194.59 118.074 194.716C117.992 194.839 117.826 194.874 117.703 194.792C116.528 194.023 115.32 194.002 114.115 194.734C113.194 195.292 112.624 196.091 112.618 196.1C112.566 196.173 112.484 196.214 112.399 196.214L112.402 196.217Z" fill="#FFF2E2"/>
<path d="M118.516 155.504C118.516 155.504 114.031 150.279 108.709 153.845C103.388 157.412 108.993 164.582 115.016 167.048C121.039 169.515 122.67 170.644 123.796 170.135C124.922 169.626 138.515 153.058 131.31 146.157C126.141 141.207 119.253 145.481 118.516 155.501V155.504Z" fill="#0D458D"/>
<path d="M129.737 149.275C129.629 149.275 129.527 149.205 129.492 149.094C129.103 147.815 128.237 147.064 126.916 146.856C125.898 146.698 124.977 146.935 124.969 146.938C124.831 146.973 124.694 146.894 124.656 146.756C124.621 146.619 124.7 146.481 124.837 146.443C124.878 146.432 128.904 145.408 129.98 148.945C130.021 149.079 129.945 149.223 129.81 149.264C129.787 149.272 129.761 149.275 129.737 149.275Z" fill="#FFF2E2"/>
<path d="M155.37 146.467C155.37 146.467 148.242 144.917 146.02 151.338C143.798 157.757 153.119 160.235 159.788 158.468C166.457 156.701 168.559 156.61 169.185 155.461C169.811 154.311 170.72 131.609 160.221 130.383C152.686 129.502 149.596 137.524 155.373 146.467H155.37Z" fill="#0D458D"/>
<path d="M155.142 135.198C155.084 135.198 155.025 135.181 154.975 135.14C154.858 135.046 154.838 134.876 154.929 134.759C154.955 134.724 157.706 131.281 160.873 133.586C160.992 133.674 161.022 133.844 160.931 133.964C160.843 134.084 160.674 134.113 160.554 134.022C159.405 133.185 158.186 133.106 156.934 133.785C155.975 134.306 155.361 135.084 155.355 135.09C155.303 135.157 155.224 135.195 155.142 135.195V135.198Z" fill="#FFF2E2"/>
<path d="M87.1905 169.489C87.1905 169.489 89.4594 166.13 86.6116 163.661C83.7638 161.192 80.5623 165.486 80.0974 169.29C79.6325 173.093 79.2436 174.196 79.7085 174.758C80.1705 175.319 91.6814 180.471 94.4795 175.308C96.4882 171.604 92.9913 168.354 87.1934 169.489H87.1905Z" fill="#4E628A"/>
<path d="M92.6082 175.006C92.5585 175.006 92.5088 174.98 92.4796 174.936C92.4357 174.866 92.4562 174.772 92.5264 174.729C93.193 174.307 93.4854 173.696 93.3947 172.909C93.3246 172.306 93.0497 171.829 93.0468 171.823C93.0059 171.75 93.0293 171.66 93.1024 171.619C93.1754 171.578 93.2661 171.601 93.307 171.674C93.3187 171.695 94.5262 173.825 92.6843 174.983C92.6609 174.998 92.6316 175.006 92.6053 175.006H92.6082Z" fill="#FFF2E2"/>
<path d="M173.974 155.551L177.073 164.158C177.497 165.337 178.705 166.039 179.936 165.831L188.891 164.313L179.313 167.636C178.582 167.891 178.129 168.622 178.231 169.392L178.91 174.529L176.676 169.947C176.264 169.102 175.389 168.578 174.451 168.616L169.697 168.801L174.264 167.183C175.024 166.914 175.489 166.144 175.375 165.346L173.977 155.557L173.974 155.551Z" fill="#FF973D" fill-opacity="0.7"/>
<path d="M115.498 144.095L111.171 152.155C110.578 153.258 110.861 154.627 111.841 155.405L118.954 161.057L110.083 156.145C109.405 155.771 108.56 155.923 108.057 156.511L104.692 160.449L106.607 155.724C106.961 154.852 106.765 153.851 106.11 153.176L102.797 149.762L107.051 152.079C107.759 152.465 108.642 152.298 109.16 151.678L115.504 144.095H115.498Z" fill="#FF973D" fill-opacity="0.7"/>
<path d="M142.859 132.638L140.076 137.822C139.696 138.53 139.877 139.41 140.506 139.911L145.082 143.547L139.374 140.387C138.939 140.148 138.395 140.244 138.07 140.624L135.904 143.158L137.135 140.118C137.363 139.557 137.237 138.913 136.816 138.48L134.685 136.283L137.421 137.775C137.877 138.024 138.445 137.915 138.778 137.518L142.859 132.641V132.638Z" fill="#FF973D" fill-opacity="0.7"/>
<path d="M98.0201 130.315L95.2367 135.5C94.8566 136.207 95.0379 137.088 95.6665 137.588L100.242 141.225L94.535 138.065C94.0993 137.825 93.5555 137.922 93.231 138.302L91.0644 140.836L92.2954 137.796C92.5234 137.234 92.3977 136.591 91.9767 136.158L89.8452 133.961L92.5819 135.453C93.038 135.701 93.6052 135.593 93.9385 135.195L98.0201 130.318V130.315Z" fill="#FF973D" fill-opacity="0.7"/>
<path d="M91.339 184.034L88.5555 189.218C88.1754 189.926 88.3567 190.807 88.9853 191.307L93.5611 194.944L87.8538 191.784C87.4182 191.544 86.8743 191.641 86.5498 192.021L84.3833 194.554L85.6142 191.515C85.8423 190.953 85.7165 190.309 85.2955 189.877L83.1641 187.679L85.9007 189.171C86.3568 189.42 86.9241 189.312 87.2574 188.914L91.339 184.037V184.034Z" fill="#FF973D" fill-opacity="0.7"/>
<path d="M138.968 229.652C126.34 229.652 114.227 228.897 110.081 228.54C102.976 227.926 96.4852 224.992 96.4209 224.959C96.225 224.869 96.1402 224.64 96.2279 224.444C96.3185 224.248 96.5466 224.164 96.7425 224.251C96.8068 224.281 103.181 227.162 110.148 227.765C117.08 228.365 146.347 230.073 162.884 227.49C179.024 224.971 186.164 216.121 186.234 216.033C186.365 215.864 186.611 215.837 186.781 215.969C186.95 216.101 186.979 216.347 186.845 216.516C186.772 216.61 184.982 218.851 181.138 221.434C177.603 223.81 171.586 226.919 163.004 228.259C156.297 229.307 147.514 229.652 138.968 229.652Z" fill="#33353B"/>
<path d="M89.5645 220.563C89.4856 220.563 89.4067 220.539 89.3365 220.489C81.7873 215.01 74.817 202.766 74.7468 202.644C74.6415 202.456 74.7059 202.219 74.893 202.114C75.0801 202.009 75.3169 202.073 75.4222 202.26C75.4923 202.383 82.3808 214.48 89.7897 219.857C89.9622 219.983 90.0031 220.226 89.8774 220.402C89.8014 220.507 89.6815 220.563 89.5616 220.563H89.5645Z" fill="#33353B"/>
<g opacity="0.6">
<path d="M53.7102 70.4879C53.7102 70.4879 50.8391 64.9616 43.5734 65.6549C36.3078 66.3483 37.1733 71.8863 33.7115 71.3685C30.2527 70.8478 25.4079 71.3685 24.37 74.8294C23.332 78.2904 18.6598 76.3888 18.4873 79.3319C18.3148 82.275 23.8496 84.3521 30.2527 81.7542C36.6528 79.1563 39.7696 83.7728 48.7661 82.9361C57.7626 82.0994 58.8765 81.0609 64.2037 81.5816C69.5279 82.1024 69.4022 78.4513 66.9813 76.0289C64.5604 73.6066 54.754 73.8348 53.7161 70.4879H53.7102Z" fill="white"/>
</g>
<g opacity="0.4">
<path d="M207.817 85.9588C207.817 85.9588 203.838 79.0604 196.555 80.1955C189.275 81.3277 196.394 84.4375 186.845 85.9588C177.299 87.4801 175.194 90.7187 179.565 93.3078C183.933 95.8969 191.052 88.6123 198.821 92.1756C206.586 95.7389 216.974 92.6935 207.817 85.9588Z" fill="white"/>
</g>
<g opacity="0.4">
<path d="M243.429 71.1644C243.429 71.1644 240.753 66.5274 235.859 67.291C230.965 68.0516 235.751 70.1434 229.333 71.1644C222.915 72.1883 221.503 74.365 224.439 76.1057C227.374 77.8464 232.16 72.949 237.382 75.345C242.604 77.7381 249.586 75.6932 243.429 71.1673V71.1644Z" fill="white"/>
</g>
<g opacity="0.4">
<path d="M106.11 19.8353C106.11 19.8353 103.435 15.1983 98.5406 15.9619C93.6462 16.7225 98.4325 18.8143 92.0147 19.8353C85.597 20.8592 84.1848 23.0359 87.1203 24.7766C90.0558 26.5173 94.842 21.6199 100.064 24.0159C105.286 26.409 112.268 24.3641 106.11 19.8382V19.8353Z" fill="white"/>
</g>
<path d="M37.875 111.249C37.875 111.249 38.9363 114.277 35.1441 116.038C31.3549 117.799 32.8373 119.721 33.8197 120.83C35.5038 122.726 28.5481 121.992 26.9926 125.611C24.294 131.895 32.3636 132.199 36.2055 130.637C40.0473 129.074 51.7542 124.37 52.1986 123.036C52.643 121.702 52.8594 118.305 50.7396 118.39C46.9446 118.542 50.6315 114.625 47.9679 113.955C45.3043 113.285 37.872 111.249 37.872 111.249H37.875Z" fill="#33353B"/>
<path d="M61.8793 130.597C65.5311 129.716 69.1479 127.019 72.5161 123.338C75.0598 120.559 76.5772 117.944 76.6415 117.835L70.6244 114.175L73.633 116.004L71.5688 113.9C70.2618 116.144 64.7388 121.913 59.9175 123.288C56.2832 124.324 51.2309 123.221 49.538 122.905L44.6611 128.554C48.4679 131.723 57.1486 131.737 61.8793 130.597Z" fill="#C97E67"/>
<path d="M43.6815 215.004C43.6815 215.004 43.74 217.356 45.3305 218.017C46.9211 218.681 51.526 219.278 49.8039 220.791C48.8157 221.657 44.161 221.098 42.8482 221.098C41.5354 221.098 40.3016 221.671 39.325 220.791C38.252 219.822 39.325 215.004 39.325 215.004C39.325 215.004 40.4595 215.595 41.4799 215.569C42.9505 215.531 43.6844 215.004 43.6844 215.004H43.6815Z" fill="#33353B"/>
<path d="M25.4251 215.004C25.4251 215.004 25.4836 217.356 27.0742 218.017C28.6647 218.681 33.2697 219.278 31.5476 220.791C30.5593 221.657 25.9046 221.098 24.5919 221.098C23.2791 221.098 22.0452 221.671 21.0687 220.791C19.9957 219.822 21.0687 215.004 21.0687 215.004C21.0687 215.004 22.2031 215.595 23.2235 215.569C24.6942 215.531 25.4281 215.004 25.4281 215.004H25.4251Z" fill="#33353B"/>
<path d="M54.9378 161.83C54.5314 166.335 53.8356 172.166 52.6514 179.278C50.3855 192.905 47.7102 206.637 46.3975 213.22C45.9267 215.575 43.9473 217.298 41.6024 217.392L40.3423 217.441C37.8044 217.544 35.7461 215.364 35.9332 212.772L39.1172 168.234L39.5441 160.259C39.5441 160.259 55.6103 154.384 54.9378 161.83Z" fill="#303644"/>
<path d="M26.4545 157.274C26.5948 159.15 33.0067 162.093 41.3307 161.42C49.6548 160.747 56.2362 159.679 56.0959 157.804C55.9555 155.929 49.1489 153.954 40.8249 154.627C32.5009 155.3 26.3141 155.399 26.4545 157.277V157.274Z" fill="#33353B"/>
<path d="M48.9355 158.945L28.2906 214.454C27.5509 216.836 25.4078 218.465 22.9693 218.506L21.9051 218.524C19.3935 218.568 17.4755 216.245 17.9316 213.717L28.6941 158.699C28.8345 158.064 31.0712 157.772 31.7056 157.719C36.9714 157.28 49.2601 156.593 48.9326 158.945H48.9355Z" fill="#303644"/>
<path d="M36.4744 126.933C36.4744 126.933 40.2724 121.015 48.3684 123.218C52.1956 124.257 56.9322 124.119 57.2626 131.36C57.5579 137.863 58.1309 145.443 56.0989 157.804C56.0989 157.804 43.012 152.696 26.4546 157.274C26.5101 156.563 27.32 138.22 31.2174 128.323C32.3373 125.476 35.2026 128.817 36.4715 126.933H36.4744Z" fill="#FF973D"/>
<path d="M25.291 129.175L34.2349 133.177C34.2349 133.177 55.2569 135.511 57.3738 131.974C59.5958 128.268 58.0287 123.145 58.0287 123.145C58.0287 123.145 50.804 122.73 45.3336 122.542C44.0881 122.498 41.7549 122.598 40.5298 122.618C29.2791 122.794 25.291 129.175 25.291 129.175Z" fill="#FF973D"/>
<path d="M37.5326 190.032L37.2432 189.965L41.5967 171.352C42.4797 168.667 44.2866 166.438 46.6899 165.06L46.839 165.317C44.5 166.657 42.7399 168.831 41.8832 171.431L37.5326 190.032Z" fill="#33353B"/>
<path d="M25.048 129.658C24.8667 130.658 26.4631 132.747 30.1442 133.285C33.8223 133.824 35.1672 132.604 35.2813 131.211C35.369 130.164 33.7901 128.417 30.3079 127.955C26.7204 127.478 25.1796 128.944 25.048 129.658Z" fill="#33353B"/>
<path d="M32.0186 157.693C32.0186 157.693 43.319 155.821 54.368 158.258C54.8767 158.369 55.2217 158.84 55.172 159.358L54.7803 163.486L43.2167 160.607L32.0186 157.693Z" fill="#0C3563"/>
<path d="M40.5239 122.621C42.0414 124.078 44.4798 125.181 46.4066 124.619C48.079 124.133 47.4767 122.571 47.4767 122.571C46.7311 122.624 45.7546 120.69 45.6201 119.956L45.4593 119.052L45.3803 118.604L45.123 117.17L44.8921 115.883L43.9448 110.608L43.0676 116.155L42.9185 117.097L42.4039 120.35C42.2402 121.386 41.5239 122.246 40.5385 122.615C40.5327 122.615 40.5268 122.618 40.5239 122.621Z" fill="#C97E67"/>
<path d="M42.9185 117.101C42.9185 117.101 43.9623 118.587 45.3803 118.605L45.2429 116.931C44.3511 116.841 42.9185 117.101 42.9185 117.101Z" fill="#33353B"/>
<path d="M37.875 111.249C37.875 111.249 38.2931 112.048 38.2463 113.914C38.182 116.647 41.3631 116.968 41.9244 116.05C41.9946 115.936 40.7666 111.632 40.7666 111.632L39.6936 111.316L37.8721 111.249H37.875Z" fill="#33353B"/>
<path d="M45.9188 117.383C48.6055 116.698 50.0986 113.454 49.2539 110.138C48.4091 106.822 45.5464 104.689 42.8597 105.375C40.1731 106.06 38.6799 109.303 39.5247 112.62C40.3694 115.936 43.2322 118.068 45.9188 117.383Z" fill="#C97E67"/>
<path d="M45.1434 106.276C45.0557 106.495 46.6083 109.388 41.0764 111.586C35.5446 113.783 37.2112 105.963 41.3922 104.728C47.4269 102.946 49.3595 106.82 49.149 108.446C48.9385 110.07 45.1434 106.276 45.1434 106.276Z" fill="#33353B"/>
<path d="M41.4564 110.442C41.4564 110.442 39.746 113.505 41.1991 115.82C41.1991 115.82 39.4653 114.684 39.2957 114.137C39.1262 113.59 38.9771 111.501 38.9771 111.501L41.4564 110.442Z" fill="#33353B"/>
<path d="M40.4068 113.359C41.091 113.745 41.8775 113.601 42.1581 113.04C42.4417 112.478 42.1143 111.709 41.4272 111.322C40.743 110.936 39.9565 111.08 39.6758 111.641C39.3922 112.203 39.7197 112.972 40.4068 113.359Z" fill="#C97E67"/>
<path d="M44.8774 111.316C44.9066 111.299 44.93 111.27 44.9359 111.232C44.9446 111.17 44.9008 111.112 44.8365 111.103C44.7984 111.097 43.9564 110.904 43.4857 111.787C43.4564 111.843 43.474 111.913 43.5295 111.942C43.5851 111.972 43.6436 111.945 43.6845 111.899C44.1055 111.428 44.7751 111.325 44.8072 111.328C44.8335 111.331 44.8569 111.328 44.8774 111.313V111.316Z" fill="#33353B"/>
<path d="M44.3103 112.756C44.3688 113.022 44.5734 113.203 44.7664 113.159C44.9594 113.116 45.0676 112.867 45.0091 112.601C44.9506 112.334 44.7459 112.153 44.553 112.197C44.36 112.241 44.2518 112.49 44.3103 112.756Z" fill="#33353B"/>
<path d="M48.9736 110.887C49.0087 110.884 49.0409 110.864 49.0584 110.832C49.0906 110.776 49.0701 110.709 49.0175 110.676C48.9853 110.659 48.2807 110.159 47.5088 110.793C47.4591 110.834 47.4503 110.905 47.4913 110.954C47.5293 111.004 47.5936 111.001 47.6521 110.972C48.2222 110.697 48.8801 110.858 48.9064 110.872C48.9298 110.884 48.9532 110.89 48.9765 110.887H48.9736Z" fill="#33353B"/>
<path d="M47.9032 112.001C47.8564 112.27 47.9763 112.516 48.1722 112.548C48.3681 112.583 48.564 112.393 48.6107 112.124C48.6575 111.855 48.5376 111.609 48.3417 111.577C48.1459 111.545 47.95 111.732 47.9032 112.001Z" fill="#33353B"/>
<g opacity="0.3">
<path d="M42.0765 111.758C41.9946 113.297 42.8074 114.792 43.8922 115.099C44.9769 115.407 45.9213 114.409 46.0031 112.87C46.085 111.331 45.2722 109.836 44.1875 109.529C43.1027 109.222 42.1583 110.22 42.0765 111.758Z" fill="white"/>
</g>
<g opacity="0.3">
<path d="M47.1547 111.405C47.2453 112.914 48.1049 114.33 49.0786 114.57C50.0522 114.81 50.7685 113.777 50.6779 112.268C50.5872 110.758 49.7276 109.342 48.754 109.102C47.7804 108.865 47.0641 109.895 47.1547 111.405Z" fill="white"/>
</g>
<path d="M42.0704 112.85C42.0909 112.926 42.1114 113.002 42.1377 113.078C42.3657 113.804 42.7721 114.424 43.2838 114.798C43.4855 114.948 43.7048 115.059 43.9358 115.123C44.158 115.185 44.3773 115.199 44.5878 115.167C44.6463 115.158 44.7018 115.147 44.7574 115.132C44.9445 115.082 45.1258 114.994 45.2954 114.874C45.7135 114.576 46.0205 114.09 46.1813 113.494C46.2485 113.248 46.2924 112.982 46.3099 112.704C46.3275 112.414 46.3128 112.127 46.2719 111.844C46.2573 111.724 46.2339 111.607 46.2076 111.49C45.9708 110.46 45.3685 109.585 44.6112 109.231C44.5176 109.187 44.4211 109.152 44.3217 109.123C43.8393 108.991 43.3715 109.076 42.9622 109.369C42.4447 109.74 42.0967 110.392 41.9827 111.191C41.9652 111.305 41.9564 111.422 41.9476 111.542C41.9447 111.612 41.9418 111.683 41.9418 111.753C41.9389 111.958 41.9535 112.162 41.9798 112.361C42.0032 112.525 42.0353 112.689 42.0733 112.847L42.0704 112.85ZM45.6228 114.266C45.4971 114.45 45.3509 114.602 45.1843 114.722C45.0381 114.828 44.886 114.904 44.7223 114.948C44.4855 115.009 44.237 115.009 43.9855 114.942C43.7487 114.877 43.5206 114.757 43.316 114.588C42.8131 114.187 42.4271 113.532 42.2459 112.774C42.2195 112.657 42.1961 112.54 42.1757 112.42C42.1581 112.306 42.1435 112.192 42.1377 112.078C42.126 111.905 42.1231 111.732 42.1347 111.557C42.1435 111.396 42.1611 111.238 42.1932 111.089C42.2078 111.004 42.2254 110.922 42.2488 110.84C42.2488 110.834 42.2488 110.831 42.2546 110.825C42.2546 110.817 42.2605 110.808 42.2605 110.799C42.3043 110.638 42.357 110.492 42.4213 110.352C42.5792 110.003 42.8014 109.717 43.0704 109.527C43.2663 109.386 43.4768 109.298 43.696 109.269C43.8832 109.243 44.0732 109.254 44.2691 109.31C44.3422 109.331 44.4153 109.354 44.4855 109.389C45.2193 109.702 45.8012 110.553 46.0263 111.557C46.0526 111.674 46.076 111.794 46.0906 111.914C46.1257 112.168 46.1345 112.429 46.1199 112.692C46.1053 112.955 46.0643 113.21 45.9971 113.444C45.9123 113.751 45.7866 114.026 45.6287 114.257C45.6257 114.26 45.6228 114.263 45.6228 114.266Z" fill="#33353B"/>
<path d="M46.7223 115.512C46.4007 115.512 46.0469 115.427 45.6931 115.181C45.6668 115.164 45.6609 115.126 45.6785 115.099C45.696 115.073 45.734 115.067 45.7604 115.085C46.8802 115.857 48.0058 114.936 48.0146 114.927C48.0409 114.906 48.076 114.909 48.0965 114.933C48.1169 114.959 48.114 114.994 48.0877 115.015C48.0789 115.02 47.4854 115.509 46.7164 115.509L46.7223 115.512Z" fill="#33353B"/>
<path d="M45.6492 115.424C45.62 115.424 45.5937 115.404 45.5908 115.372C45.5703 115.22 45.6317 115.041 45.7662 114.845C45.7837 114.816 45.8218 114.804 45.851 114.819C45.8802 114.836 45.8919 114.866 45.8744 114.895L45.8627 114.912C45.7136 115.129 45.696 115.275 45.7048 115.36C45.7077 115.392 45.6873 115.421 45.6551 115.424C45.6551 115.424 45.6492 115.424 45.6463 115.424H45.6492Z" fill="#33353B"/>
<path d="M33.5182 120.444C33.1498 120.362 32.3457 119.069 32.3253 117.82C32.3077 116.913 32.6849 115.731 34.562 115.245C38.0764 114.338 37.9273 111.436 37.9214 111.313L38.2401 111.293C38.2401 111.325 38.4214 114.581 34.6438 115.555C33.3691 115.883 32.6995 116.585 32.6498 117.641C32.5943 118.832 33.3837 120.055 33.5942 120.131L33.524 120.441L33.5182 120.444Z" fill="#33353B"/>
<path d="M47.2896 112.267C47.31 112.349 47.3334 112.428 47.3568 112.504C47.3802 112.583 47.4094 112.659 47.4387 112.736C47.4562 112.785 47.4767 112.838 47.4971 112.888C47.4971 112.894 47.503 112.902 47.5059 112.908C47.5235 112.949 47.541 112.99 47.5585 113.031C47.5585 113.031 47.5615 113.034 47.5615 113.037C47.4153 112.665 47.31 112.253 47.2662 111.82C47.2545 111.814 47.2311 111.808 47.196 111.796C47.2077 111.878 47.2223 111.957 47.2369 112.036C47.2515 112.115 47.2691 112.191 47.2896 112.267ZM47.2896 112.267C47.31 112.349 47.3334 112.428 47.3568 112.504C47.3802 112.583 47.4094 112.659 47.4387 112.736C47.4562 112.785 47.4767 112.838 47.4971 112.888C47.4971 112.894 47.503 112.902 47.5059 112.908C47.5235 112.949 47.541 112.99 47.5585 113.031C47.5585 113.031 47.5615 113.034 47.5615 113.037C47.4153 112.665 47.31 112.253 47.2662 111.82C47.2545 111.814 47.2311 111.808 47.196 111.796C47.2077 111.878 47.2223 111.957 47.2369 112.036C47.2515 112.115 47.2691 112.191 47.2896 112.267ZM47.2896 112.267C47.31 112.349 47.3334 112.428 47.3568 112.504C47.3802 112.583 47.4094 112.659 47.4387 112.736C47.4562 112.785 47.4767 112.838 47.4971 112.888C47.4971 112.894 47.503 112.902 47.5059 112.908C47.5235 112.949 47.541 112.99 47.5585 113.031C47.5585 113.031 47.5615 113.034 47.5615 113.037C47.4153 112.665 47.31 112.253 47.2662 111.82C47.2545 111.814 47.2311 111.808 47.196 111.796C47.2077 111.878 47.2223 111.957 47.2369 112.036C47.2515 112.115 47.2691 112.191 47.2896 112.267ZM47.2896 112.267C47.31 112.349 47.3334 112.428 47.3568 112.504C47.3802 112.583 47.4094 112.659 47.4387 112.736C47.4562 112.785 47.4767 112.838 47.4971 112.888C47.4971 112.894 47.503 112.902 47.5059 112.908C47.5235 112.949 47.541 112.99 47.5585 113.031C47.5585 113.031 47.5615 113.034 47.5615 113.037C47.4153 112.665 47.31 112.253 47.2662 111.82C47.2545 111.814 47.2311 111.808 47.196 111.796C47.2077 111.878 47.2223 111.957 47.2369 112.036C47.2515 112.115 47.2691 112.191 47.2896 112.267ZM47.2896 112.267C47.31 112.349 47.3334 112.428 47.3568 112.504C47.3802 112.583 47.4094 112.659 47.4387 112.736C47.4562 112.785 47.4767 112.838 47.4971 112.888C47.4971 112.894 47.503 112.902 47.5059 112.908C47.5235 112.949 47.541 112.99 47.5585 113.031C47.5585 113.031 47.5615 113.034 47.5615 113.037C47.4153 112.665 47.31 112.253 47.2662 111.82C47.2545 111.814 47.2311 111.808 47.196 111.796C47.2077 111.878 47.2223 111.957 47.2369 112.036C47.2515 112.115 47.2691 112.191 47.2896 112.267ZM47.2896 112.267C47.31 112.349 47.3334 112.428 47.3568 112.504C47.3802 112.583 47.4094 112.659 47.4387 112.736C47.4562 112.785 47.4767 112.838 47.4971 112.888C47.4971 112.894 47.503 112.902 47.5059 112.908C47.5235 112.949 47.541 112.99 47.5585 113.031C47.5585 113.031 47.5615 113.034 47.5615 113.037C47.4153 112.665 47.31 112.253 47.2662 111.82C47.2545 111.814 47.2311 111.808 47.196 111.796C47.2077 111.878 47.2223 111.957 47.2369 112.036C47.2515 112.115 47.2691 112.191 47.2896 112.267ZM47.2896 112.267C47.31 112.349 47.3334 112.428 47.3568 112.504C47.3802 112.583 47.4094 112.659 47.4387 112.736C47.4562 112.785 47.4767 112.838 47.4971 112.888C47.4971 112.894 47.503 112.902 47.5059 112.908C47.5235 112.949 47.541 112.99 47.5585 113.031C47.5585 113.031 47.5615 113.034 47.5615 113.037C47.4153 112.665 47.31 112.253 47.2662 111.82C47.2545 111.814 47.2311 111.808 47.196 111.796C47.2077 111.878 47.2223 111.957 47.2369 112.036C47.2515 112.115 47.2691 112.191 47.2896 112.267ZM47.2896 112.267C47.31 112.349 47.3334 112.428 47.3568 112.504C47.3802 112.583 47.4094 112.659 47.4387 112.736C47.4562 112.785 47.4767 112.838 47.4971 112.888C47.4971 112.894 47.503 112.902 47.5059 112.908C47.5235 112.949 47.541 112.99 47.5585 113.031C47.5585 113.031 47.5615 113.034 47.5615 113.037C47.4153 112.665 47.31 112.253 47.2662 111.82C47.2545 111.814 47.2311 111.808 47.196 111.796C47.2077 111.878 47.2223 111.957 47.2369 112.036C47.2515 112.115 47.2691 112.191 47.2896 112.267ZM47.2018 112.528C47.3393 113.063 47.5615 113.546 47.8451 113.926C48.1287 114.309 48.4737 114.579 48.8509 114.687C48.8743 114.693 48.8976 114.699 48.921 114.704H48.9269C49.1198 114.748 49.3128 114.745 49.4941 114.699C49.6491 114.658 49.8011 114.587 49.9385 114.482C50.4882 114.078 50.8361 113.242 50.8654 112.247C50.9151 110.626 50.1052 109.07 49.0672 108.774C49.0468 108.768 49.0204 108.763 49 108.757C48.9093 108.736 48.8245 108.725 48.7398 108.722C48.617 108.722 48.5 108.736 48.3831 108.771C48.2398 108.812 48.1053 108.883 47.9737 108.976C47.4241 109.38 47.0761 110.217 47.0498 111.208C47.0498 111.273 47.0498 111.337 47.0498 111.401C47.0498 111.521 47.0586 111.641 47.0703 111.761C47.0907 112.022 47.1346 112.279 47.1989 112.522L47.2018 112.528ZM47.5615 113.034C47.4153 112.662 47.31 112.25 47.2662 111.817C47.2545 111.691 47.2457 111.565 47.2428 111.44C47.2428 111.366 47.2428 111.293 47.2428 111.22C47.2574 110.752 47.3422 110.325 47.4884 109.965C47.6287 109.62 47.8246 109.342 48.0644 109.158C48.0731 109.149 48.0819 109.143 48.0907 109.134C48.2105 109.046 48.3392 108.985 48.4708 108.95C48.5877 108.921 48.7105 108.912 48.8333 108.926C48.8947 108.932 48.9561 108.944 49.0175 108.962C49.9794 109.237 50.7221 110.708 50.6782 112.247C50.6782 112.253 50.6782 112.262 50.6782 112.267C50.6782 112.267 50.6782 112.268 50.6782 112.27C50.6782 112.27 50.6782 112.276 50.6782 112.279V112.285C50.6431 113.207 50.3274 113.964 49.8303 114.33C49.5818 114.514 49.2953 114.582 49.0058 114.526C48.9707 114.52 48.9386 114.511 48.9035 114.503C48.8742 114.494 48.845 114.485 48.8187 114.473C48.8129 114.473 48.8012 114.467 48.7953 114.465C48.7953 114.465 48.7953 114.465 48.7895 114.462C48.5643 114.377 48.3509 114.222 48.1608 114.014C47.9328 113.768 47.734 113.449 47.5819 113.084C47.5761 113.066 47.5673 113.049 47.5615 113.034ZM47.2896 112.267C47.31 112.349 47.3334 112.428 47.3568 112.504C47.3802 112.583 47.4094 112.659 47.4387 112.736C47.4562 112.785 47.4767 112.838 47.4971 112.888C47.4971 112.894 47.503 112.902 47.5059 112.908C47.5235 112.949 47.541 112.99 47.5585 113.031C47.5585 113.031 47.5615 113.034 47.5615 113.037C47.4153 112.665 47.31 112.253 47.2662 111.82C47.2545 111.814 47.2311 111.808 47.196 111.796C47.2077 111.878 47.2223 111.957 47.2369 112.036C47.2515 112.115 47.2691 112.191 47.2896 112.267ZM47.2896 112.267C47.31 112.349 47.3334 112.428 47.3568 112.504C47.3802 112.583 47.4094 112.659 47.4387 112.736C47.4562 112.785 47.4767 112.838 47.4971 112.888C47.4971 112.894 47.503 112.902 47.5059 112.908C47.5235 112.949 47.541 112.99 47.5585 113.031C47.5585 113.031 47.5615 113.034 47.5615 113.037C47.4153 112.665 47.31 112.253 47.2662 111.82C47.2545 111.814 47.2311 111.808 47.196 111.796C47.2077 111.878 47.2223 111.957 47.2369 112.036C47.2515 112.115 47.2691 112.191 47.2896 112.267ZM47.2896 112.267C47.31 112.349 47.3334 112.428 47.3568 112.504C47.3802 112.583 47.4094 112.659 47.4387 112.736C47.4562 112.785 47.4767 112.838 47.4971 112.888C47.4971 112.894 47.503 112.902 47.5059 112.908C47.5235 112.949 47.541 112.99 47.5585 113.031C47.5585 113.031 47.5615 113.034 47.5615 113.037C47.4153 112.665 47.31 112.253 47.2662 111.82C47.2545 111.814 47.2311 111.808 47.196 111.796C47.2077 111.878 47.2223 111.957 47.2369 112.036C47.2515 112.115 47.2691 112.191 47.2896 112.267ZM47.2896 112.267C47.31 112.349 47.3334 112.428 47.3568 112.504C47.3802 112.583 47.4094 112.659 47.4387 112.736C47.4562 112.785 47.4767 112.838 47.4971 112.888C47.4971 112.894 47.503 112.902 47.5059 112.908C47.5235 112.949 47.541 112.99 47.5585 113.031C47.5585 113.031 47.5615 113.034 47.5615 113.037C47.4153 112.665 47.31 112.253 47.2662 111.82C47.2545 111.814 47.2311 111.808 47.196 111.796C47.2077 111.878 47.2223 111.957 47.2369 112.036C47.2515 112.115 47.2691 112.191 47.2896 112.267ZM47.2896 112.267C47.31 112.349 47.3334 112.428 47.3568 112.504C47.3802 112.583 47.4094 112.659 47.4387 112.736C47.4562 112.785 47.4767 112.838 47.4971 112.888C47.4971 112.894 47.503 112.902 47.5059 112.908C47.5235 112.949 47.541 112.99 47.5585 113.031C47.5585 113.031 47.5615 113.034 47.5615 113.037C47.4153 112.665 47.31 112.253 47.2662 111.82C47.2545 111.814 47.2311 111.808 47.196 111.796C47.2077 111.878 47.2223 111.957 47.2369 112.036C47.2515 112.115 47.2691 112.191 47.2896 112.267ZM47.2896 112.267C47.31 112.349 47.3334 112.428 47.3568 112.504C47.3802 112.583 47.4094 112.659 47.4387 112.736C47.4562 112.785 47.4767 112.838 47.4971 112.888C47.4971 112.894 47.503 112.902 47.5059 112.908C47.5235 112.949 47.541 112.99 47.5585 113.031C47.5585 113.031 47.5615 113.034 47.5615 113.037C47.4153 112.665 47.31 112.253 47.2662 111.82C47.2545 111.814 47.2311 111.808 47.196 111.796C47.2077 111.878 47.2223 111.957 47.2369 112.036C47.2515 112.115 47.2691 112.191 47.2896 112.267ZM47.2896 112.267C47.31 112.349 47.3334 112.428 47.3568 112.504C47.3802 112.583 47.4094 112.659 47.4387 112.736C47.4562 112.785 47.4767 112.838 47.4971 112.888C47.4971 112.894 47.503 112.902 47.5059 112.908C47.5235 112.949 47.541 112.99 47.5585 113.031C47.5585 113.031 47.5615 113.034 47.5615 113.037C47.4153 112.665 47.31 112.253 47.2662 111.82C47.2545 111.814 47.2311 111.808 47.196 111.796C47.2077 111.878 47.2223 111.957 47.2369 112.036C47.2515 112.115 47.2691 112.191 47.2896 112.267Z" fill="#33353B"/>
<path d="M47.3946 111.831C47.4443 111.82 47.4911 111.781 47.5145 111.732C47.5525 111.641 47.5145 111.539 47.4239 111.498C47.3946 111.486 46.7105 111.193 45.8392 111.644C45.7515 111.688 45.7193 111.796 45.7632 111.884C45.807 111.972 45.9152 112.007 46.0029 111.96C46.728 111.588 47.2777 111.822 47.2835 111.825C47.3215 111.843 47.3625 111.843 47.3975 111.834L47.3946 111.831Z" fill="#33353B"/>
<path d="M49.6462 139.8C46.6347 141.204 41.6847 142.149 39.8895 141.21C36.5447 139.457 36.0711 135.326 35.3723 132.07C35.0126 130.403 34.0975 129.367 31.814 129.224C30.8667 129.162 29.3171 128.817 27.3465 129.657C26.3933 130.063 26.4079 131.084 26.5278 131.947C26.712 133.296 26.8173 135.209 27.5424 137.538C29.2674 143.068 30.0627 145.481 33.8636 148.064C38.53 151.236 47.3159 150.206 53.4998 145.156C54.1518 144.624 50.3538 139.472 49.6491 139.803L49.6462 139.8Z" fill="#C97E67"/>
<g opacity="0.5">
<path d="M36.8517 147.047C36.419 147.047 35.9424 146.91 35.5038 146.649C34.4922 146.049 34.0068 145.031 34.3986 144.329C34.5419 144.072 34.7904 143.887 35.115 143.8C35.6412 143.656 36.3166 143.785 36.9189 144.142C37.9306 144.742 38.4159 145.76 38.0241 146.462C37.8809 146.719 37.6323 146.904 37.3078 146.991C37.1645 147.029 37.0125 147.047 36.8546 147.047H36.8517ZM35.5711 144.127C35.4453 144.127 35.3255 144.142 35.2144 144.171C35.0594 144.212 34.8518 144.306 34.7349 144.513C34.4542 145.014 34.8957 145.836 35.6997 146.313C36.2143 146.617 36.7757 146.728 37.2055 146.614C37.3604 146.573 37.568 146.479 37.685 146.269C37.9657 145.769 37.5242 144.946 36.7201 144.47C36.34 144.244 35.9307 144.124 35.5711 144.124V144.127Z" fill="#B2604D"/>
</g>
<path d="M52.596 145.343C52.596 145.343 59.1511 145.282 60.7446 143.767C62.338 142.254 63.1245 138.966 62.0427 139.843C60.9843 140.701 60.2388 142.152 60.2388 142.152C60.2388 142.152 61.8381 138.872 61.189 138.62C60.2534 138.255 58.7476 141.213 58.7476 141.213C58.7476 141.213 60.7855 137.143 59.7856 137.161C58.7856 137.178 57.2624 140.197 57.2624 140.197C57.2624 140.197 59.1365 136.438 57.9787 136.485C56.8179 136.532 55.9964 139.524 55.0344 139.229C54.0725 138.936 50.9148 138.977 50.0728 139.981L52.596 145.343Z" fill="#C97E67"/>
<path d="M58.9551 143.225L58.9492 143.064C59.5866 143.038 60.1626 142.119 60.1684 142.11L60.3059 142.195C60.2795 142.236 59.6772 143.196 58.9551 143.228V143.225Z" fill="#B2604D"/>
<path d="M57.2797 142.474L57.2417 142.316C58.1656 142.09 58.7211 141.178 58.727 141.166L58.8673 141.248C58.8439 141.289 58.2738 142.228 57.2826 142.471L57.2797 142.474Z" fill="#B2604D"/>
<path d="M55.9203 141.338C55.9203 141.338 55.8969 141.338 55.8853 141.338L55.8911 141.177C56.5636 141.209 57.2536 140.112 57.2594 140.101L57.3969 140.185C57.3676 140.232 56.6747 141.338 55.9174 141.338H55.9203Z" fill="#B2604D"/>
<path d="M49.2456 140.101C49.3743 140.057 53.1576 136.485 54.0991 136.485C55.0376 136.485 52.7249 140.704 52.7249 140.704L49.2456 140.104V140.101Z" fill="#C97E67"/>
<path d="M74.5071 119.169C74.5071 119.169 81.0623 119.107 82.6557 117.592C84.2492 116.079 85.0357 112.791 83.9539 113.669C82.8955 114.526 82.1499 115.977 82.1499 115.977C82.1499 115.977 83.7492 112.697 83.1001 112.446C82.1645 112.08 80.6588 115.038 80.6588 115.038C80.6588 115.038 82.6967 110.968 81.6967 110.986C80.6968 111.003 79.1735 114.023 79.1735 114.023C79.1735 114.023 81.0476 110.263 79.8898 110.31C78.7291 110.357 77.9075 113.35 76.9456 113.054C75.9836 112.762 72.8259 112.803 71.9839 113.806L74.5071 119.169Z" fill="#C97E67"/>
<path d="M71.2998 114.321C71.8641 113.207 75.0715 110.311 76.01 110.311C76.9486 110.311 73.7675 116.223 73.7675 116.223L71.2998 114.324V114.321Z" fill="#C97E67"/>
<path d="M75.1681 114.462C74.8728 113.634 75.3932 112.826 75.4166 112.794L75.5511 112.882C75.5511 112.882 75.0511 113.657 75.3201 114.406L75.1681 114.462Z" fill="#B2604D"/>
<path d="M80.992 116.457C80.8195 116.457 80.6265 116.443 80.4072 116.41L80.4306 116.25C81.7375 116.448 82.0767 115.937 82.0796 115.934L82.2171 116.021C82.2024 116.042 81.9247 116.46 80.9891 116.46L80.992 116.457Z" fill="#B2604D"/>
<path d="M79.495 115.228C79.267 115.228 79.0126 115.199 78.7261 115.134L78.7612 114.976C80.6119 115.401 81.0622 114.175 81.0651 114.163L81.2171 114.216C81.2171 114.216 80.8458 115.228 79.4921 115.228H79.495Z" fill="#B2604D"/>
<path d="M78.296 114.192C78.0972 114.192 77.8779 114.169 77.6382 114.122L77.6703 113.964C78.299 114.087 78.7902 114.037 79.0913 113.821C79.3486 113.636 79.3837 113.394 79.3866 113.385L79.5474 113.405C79.5474 113.405 79.5065 113.721 79.1907 113.949C78.9656 114.113 78.6674 114.192 78.296 114.192Z" fill="#B2604D"/>
<path d="M238.298 191.249C238.266 191.249 238.236 191.235 238.216 191.208L235.201 186.873C235.169 186.829 235.181 186.767 235.225 186.735C235.269 186.703 235.33 186.715 235.362 186.759L238.377 191.094C238.409 191.138 238.397 191.2 238.353 191.232C238.336 191.243 238.315 191.249 238.298 191.249Z" fill="#33353B"/>
<path d="M241.137 192.133C241.104 192.133 241.075 192.118 241.055 192.092L237.324 186.873C237.292 186.829 237.304 186.767 237.347 186.735C237.391 186.703 237.453 186.715 237.485 186.759L241.216 191.978C241.248 192.022 241.236 192.083 241.192 192.115C241.175 192.127 241.154 192.133 241.134 192.133H241.137Z" fill="#33353B"/>
<path d="M235.801 190.471C235.772 190.471 235.74 190.457 235.722 190.43C235.69 190.387 235.699 190.325 235.742 190.293C238.269 188.423 239.614 187.473 239.739 187.473C239.795 187.473 239.839 187.517 239.839 187.572C239.839 187.622 239.804 187.663 239.757 187.669C239.54 187.754 237.313 189.377 235.859 190.451C235.842 190.463 235.821 190.471 235.801 190.471Z" fill="#33353B"/>
<path d="M235.8 192.34C235.771 192.34 235.742 192.328 235.724 192.302C235.689 192.261 235.695 192.197 235.739 192.165C239.941 188.747 240.081 188.841 240.157 188.894C240.204 188.923 240.215 188.984 240.183 189.031C240.163 189.063 240.128 189.078 240.093 189.075C239.794 189.178 237.35 191.111 235.865 192.32C235.847 192.334 235.824 192.343 235.803 192.343L235.8 192.34Z" fill="#33353B"/>
<path d="M61.2624 217.123C61.2624 217.123 55.2686 210.95 57.3299 207.433C59.3912 203.917 62.8734 214.987 62.8734 214.987C62.8734 214.987 61.0694 201.895 64.806 201.67C68.5456 201.442 64.806 214.987 64.806 214.987C64.806 214.987 66.1919 211.827 67.5456 211.634C68.8993 211.441 68.5134 214.311 66.0954 217.126H61.2624V217.123Z" fill="#F9B170"/>
<path d="M61.6892 217.278C61.6717 217.26 59.9583 215.485 58.5549 213.241C56.6398 210.181 56.1837 207.752 57.1983 206.02C57.5784 205.374 58.0345 205.075 58.552 205.137C59.6016 205.257 60.7828 206.86 62.1629 210.037C62.5751 210.988 62.9435 211.942 63.23 212.729C62.8996 209.294 62.5166 202.46 64.3937 200.169C64.7972 199.675 65.2884 199.409 65.8556 199.374C66.4082 199.341 66.8614 199.537 67.2064 199.962C68.8963 202.047 67.376 209.478 66.5427 212.954C67.1655 211.936 68.0455 210.807 68.946 210.675C69.37 210.613 69.7092 210.771 69.9021 211.123C70.4547 212.129 69.7062 214.7 67.5017 217.266L67.1684 216.979C69.3378 214.458 69.9255 212.082 69.5162 211.336C69.4138 211.149 69.253 211.079 69.0104 211.114C67.8525 211.281 66.4988 213.823 66.0749 214.788L65.6597 214.642C65.6685 214.613 66.4901 211.623 67.0397 208.352C67.759 204.075 67.7005 201.269 66.8672 200.242C66.6158 199.932 66.2942 199.792 65.8878 199.815C65.4433 199.842 65.0662 200.049 64.7387 200.45C62.3675 203.343 63.882 214.557 63.8996 214.671L63.4698 214.768C62.6862 212.278 60.2712 205.775 58.5052 205.576C58.1719 205.538 57.8678 205.757 57.5813 206.246C55.3533 210.043 61.9406 216.903 62.0079 216.971L61.6921 217.278H61.6892Z" fill="#33353B"/>
<path d="M73.3783 232.444C73.3783 232.444 68.9576 227.892 70.4779 225.297C71.9983 222.705 74.5654 230.867 74.5654 230.867C74.5654 230.867 73.2351 221.213 75.9922 221.046C78.7493 220.879 75.9922 230.867 75.9922 230.867C75.9922 230.867 77.0155 228.538 78.0125 228.395C79.0095 228.252 78.7259 230.37 76.9424 232.444H73.3783Z" fill="#F9B170"/>
<path d="M73.694 232.558C73.694 232.558 72.4163 231.235 71.3813 229.579C69.9691 227.324 69.6329 225.53 70.3814 224.255C70.6621 223.778 70.9954 223.562 71.3784 223.602C72.1532 223.69 73.0245 224.872 74.042 227.218C74.346 227.921 74.6179 228.623 74.8285 229.205C74.5858 226.671 74.3022 221.631 75.6851 219.943C75.9833 219.58 76.3459 219.381 76.764 219.358C77.1704 219.331 77.5066 219.477 77.7581 219.791C79.0036 221.329 77.8838 226.809 77.2669 229.372C77.7259 228.623 78.375 227.789 79.0387 227.692C79.3516 227.649 79.603 227.766 79.7433 228.023C80.1497 228.763 79.5972 230.662 77.9715 232.555L77.7259 232.341C79.3252 230.48 79.7609 228.728 79.4597 228.178C79.3837 228.041 79.2668 227.988 79.0855 228.014C78.2317 228.137 77.2318 230.012 76.919 230.723L76.6149 230.615C76.6207 230.592 77.226 228.389 77.6324 225.975C78.1616 222.821 78.1177 220.753 77.5037 219.995C77.3166 219.767 77.0798 219.662 76.7815 219.682C76.4541 219.703 76.1763 219.855 75.9336 220.15C74.1852 222.286 75.3021 230.554 75.3138 230.638L74.998 230.709C74.4221 228.874 72.6385 224.076 71.3375 223.93C71.0889 223.901 70.8667 224.065 70.6562 224.425C69.013 227.227 73.8724 232.286 73.9221 232.335L73.6882 232.561L73.694 232.558Z" fill="#33353B"/>
<path d="M203.06 217.779C203.06 217.779 198.639 213.227 200.16 210.632C201.68 208.04 204.247 216.202 204.247 216.202C204.247 216.202 202.917 206.548 205.674 206.381C208.431 206.214 205.674 216.202 205.674 216.202C205.674 216.202 206.697 213.873 207.694 213.73C208.691 213.587 208.408 215.705 206.624 217.779H203.06Z" fill="#F9B170"/>
<path d="M203.376 217.893C203.376 217.893 202.098 216.57 201.063 214.914C199.651 212.659 199.315 210.865 200.063 209.59C200.341 209.113 200.68 208.896 201.06 208.937C201.835 209.025 202.706 210.207 203.724 212.553C204.028 213.256 204.3 213.958 204.51 214.537C204.267 212.003 203.984 206.963 205.367 205.275C205.665 204.912 206.028 204.713 206.446 204.69C206.852 204.663 207.188 204.809 207.44 205.123C208.685 206.661 207.565 212.141 206.949 214.704C207.408 213.955 208.057 213.121 208.72 213.024C209.033 212.978 209.285 213.098 209.425 213.355C209.831 214.095 209.279 215.994 207.653 217.887L207.408 217.676C209.007 215.815 209.443 214.063 209.141 213.513C209.065 213.376 208.945 213.323 208.767 213.349C207.91 213.472 206.913 215.347 206.601 216.058L206.297 215.95C206.302 215.927 206.908 213.724 207.314 211.31C207.843 208.156 207.799 206.088 207.185 205.33C206.998 205.102 206.761 204.997 206.463 205.017C206.136 205.038 205.858 205.19 205.615 205.485C203.867 207.618 204.984 215.889 204.995 215.973L204.68 216.044C204.104 214.209 202.32 209.411 201.019 209.265C200.771 209.236 200.548 209.4 200.338 209.76C198.695 212.559 203.554 217.62 203.604 217.67L203.37 217.895L203.376 217.893Z" fill="#33353B"/>
<path d="M169.027 233.293C169.027 233.293 163.209 227.302 165.212 223.887C167.214 220.473 170.591 231.219 170.591 231.219C170.591 231.219 168.84 218.513 172.468 218.294C176.097 218.074 172.468 231.219 172.468 231.219C172.468 231.219 173.813 228.153 175.126 227.963C176.439 227.773 176.065 230.561 173.72 233.29H169.027V233.293Z" fill="#F9B170"/>
<path d="M169.442 233.442C169.425 233.424 167.761 231.701 166.399 229.524C164.539 226.555 164.098 224.197 165.083 222.518C165.451 221.892 165.893 221.602 166.396 221.661C168.103 221.854 169.972 226.344 170.939 229.015C170.837 227.945 170.732 226.537 170.691 225.06C170.58 220.856 171.042 218.091 172.065 216.842C172.457 216.362 172.933 216.105 173.483 216.07C174.021 216.038 174.46 216.231 174.793 216.64C176.433 218.665 174.96 225.876 174.147 229.249C174.749 228.264 175.606 227.166 176.48 227.038C176.892 226.979 177.22 227.131 177.407 227.471C177.942 228.445 177.217 230.943 175.076 233.433L174.752 233.155C176.857 230.706 177.427 228.401 177.032 227.678C176.933 227.497 176.778 227.43 176.541 227.462C175.416 227.623 174.103 230.092 173.691 231.028L173.29 230.885C173.299 230.856 174.094 227.953 174.629 224.779C175.328 220.628 175.269 217.907 174.462 216.909C174.217 216.608 173.904 216.471 173.512 216.497C173.08 216.523 172.717 216.725 172.398 217.111C170.097 219.92 171.568 230.803 171.583 230.914L171.167 231.008C170.407 228.591 168.062 222.281 166.349 222.088C166.024 222.05 165.732 222.263 165.454 222.737C163.291 226.423 169.685 233.079 169.752 233.146L169.445 233.445L169.442 233.442Z" fill="#33353B"/>
<path d="M255.948 221.488C255.948 221.488 252.048 217.468 253.39 215.18C254.732 212.892 256.998 220.095 256.998 220.095C256.998 220.095 255.822 211.576 258.255 211.427C260.688 211.277 258.255 220.095 258.255 220.095C258.255 220.095 259.156 218.038 260.039 217.913C260.919 217.787 260.667 219.656 259.094 221.485H255.948V221.488Z" fill="#F9B170"/>
<path d="M256.226 221.587C256.226 221.587 255.098 220.42 254.185 218.96C252.94 216.968 252.642 215.388 253.302 214.262C253.548 213.84 253.843 213.647 254.182 213.685C254.867 213.761 255.636 214.806 256.533 216.874C256.802 217.494 257.042 218.112 257.229 218.627C257.013 216.391 256.764 211.945 257.986 210.453C258.249 210.131 258.568 209.958 258.937 209.935C259.296 209.914 259.591 210.043 259.814 210.318C260.913 211.675 259.925 216.511 259.381 218.773C259.784 218.112 260.36 217.374 260.945 217.29C261.223 217.252 261.442 217.354 261.568 217.579C261.928 218.234 261.439 219.908 260.004 221.578L259.787 221.391C261.2 219.75 261.583 218.202 261.317 217.72C261.249 217.597 261.144 217.553 260.986 217.576C260.232 217.685 259.352 219.34 259.074 219.966L258.805 219.87C258.811 219.849 259.346 217.904 259.703 215.774C260.17 212.989 260.132 211.163 259.591 210.496C259.428 210.295 259.22 210.204 258.954 210.218C258.665 210.236 258.419 210.371 258.209 210.631C256.668 212.515 257.65 219.814 257.662 219.887L257.384 219.949C256.875 218.328 255.302 214.098 254.153 213.966C253.937 213.943 253.738 214.083 253.554 214.402C252.104 216.874 256.393 221.339 256.437 221.382L256.232 221.581L256.226 221.587Z" fill="#33353B"/>
<path d="M7.12254 220.028C7.12254 220.028 3.68709 216.488 4.8683 214.475C6.04951 212.46 8.04646 218.805 8.04646 218.805C8.04646 218.805 7.01144 211.304 9.15458 211.173C11.2977 211.041 9.15458 218.805 9.15458 218.805C9.15458 218.805 9.94985 216.994 10.7247 216.883C11.4995 216.772 11.2802 218.419 9.8943 220.031H7.12254V220.028Z" fill="#F9B170"/>
<path d="M7.36803 220.119C7.36803 220.119 6.37394 219.092 5.5699 217.805C4.47348 216.052 4.21034 214.66 4.79217 213.668C5.00853 213.299 5.26875 213.127 5.56697 213.162C6.16928 213.229 6.84467 214.148 7.63702 215.97C7.87384 216.514 8.08436 217.061 8.24809 217.512C8.05804 215.543 7.83876 211.626 8.91471 210.315C9.14569 210.031 9.4293 209.879 9.75384 209.859C10.0696 209.838 10.3298 209.952 10.5286 210.195C11.4964 211.392 10.6251 215.648 10.1486 217.641C10.5053 217.059 11.0111 216.409 11.5257 216.336C11.7683 216.301 11.9642 216.392 12.0724 216.59C12.3882 217.167 11.9613 218.641 10.6953 220.11L10.5023 219.946C11.7449 218.501 12.0841 217.138 11.8473 216.71C11.7888 216.602 11.6952 216.564 11.5578 216.582C10.8941 216.678 10.1164 218.135 9.87372 218.688L9.63689 218.603C9.64274 218.586 10.1135 216.871 10.4263 214.996C10.8386 212.544 10.8035 210.938 10.3269 210.347C10.1836 210.169 9.99944 210.09 9.76554 210.105C9.51117 210.119 9.29481 210.239 9.10768 210.467C7.74812 212.126 8.61649 218.554 8.62526 218.618L8.37966 218.673C7.93232 217.246 6.54644 213.522 5.53481 213.405C5.34477 213.381 5.16934 213.507 5.00561 213.788C3.72791 215.964 7.50545 219.896 7.54346 219.934L7.36218 220.11L7.36803 220.119Z" fill="#33353B"/>
</g>
<defs>
<clipPath id="clip0_2648_2881">
<rect width="274" height="239" fill="white"/>
</clipPath>
</defs>
</svg>
